<mxfile host="Electron" agent="Mozilla/5.0 (Windows NT 10.0; Win64; x64) AppleWebKit/537.36 (KHTML, like Gecko) draw.io/24.7.5 Chrome/126.0.6478.183 Electron/31.3.0 Safari/537.36" version="24.7.5">
  <diagram name="Page-1" id="AawznlVU5xywfr7RIZ7i">
    <mxGraphModel dx="4157" dy="2217" grid="1" gridSize="10" guides="1" tooltips="1" connect="1" arrows="1" fold="1" page="1" pageScale="1" pageWidth="827" pageHeight="1169" math="0" shadow="0">
      <root>
        <mxCell id="0" />
        <mxCell id="1" parent="0" />
        <mxCell id="TZkRVpZgQpIInud-tQH3-5" value="" style="rounded=1;whiteSpace=wrap;html=1;fillColor=#ffe6cc;strokeColor=#d79b00;" parent="1" vertex="1">
          <mxGeometry x="200" y="-80" width="1160" height="800" as="geometry" />
        </mxCell>
        <mxCell id="MMB2D70Bj3hJrAFttmzr-4" style="edgeStyle=orthogonalEdgeStyle;rounded=0;orthogonalLoop=1;jettySize=auto;html=1;entryX=1;entryY=0.25;entryDx=0;entryDy=0;curved=0;strokeColor=#001DBC;shadow=0;endArrow=classic;endFill=1;fillColor=#0050ef;strokeWidth=2;" edge="1" parent="1" source="TZkRVpZgQpIInud-tQH3-2" target="MMB2D70Bj3hJrAFttmzr-1">
          <mxGeometry relative="1" as="geometry">
            <Array as="points">
              <mxPoint x="-15" y="93" />
            </Array>
          </mxGeometry>
        </mxCell>
        <mxCell id="MMB2D70Bj3hJrAFttmzr-26" style="edgeStyle=orthogonalEdgeStyle;rounded=0;orthogonalLoop=1;jettySize=auto;html=1;fillColor=#0050ef;strokeColor=#001DBC;strokeWidth=2;" edge="1" parent="1" source="TZkRVpZgQpIInud-tQH3-2" target="C0WDaNFQtQ9nxweYVRwT-5">
          <mxGeometry relative="1" as="geometry" />
        </mxCell>
        <mxCell id="TZkRVpZgQpIInud-tQH3-2" value="" style="image;aspect=fixed;html=1;points=[];align=center;fontSize=12;image=img/lib/azure2/databases/Azure_Database_PostgreSQL_Server.svg;" parent="1" vertex="1">
          <mxGeometry x="250" y="30" width="98" height="130.67" as="geometry" />
        </mxCell>
        <mxCell id="TZkRVpZgQpIInud-tQH3-8" value="&lt;font style=&quot;font-size: 25px;&quot;&gt;&lt;b&gt;172.30.2.75&lt;/b&gt;&lt;/font&gt;" style="text;html=1;align=center;verticalAlign=middle;whiteSpace=wrap;rounded=0;" parent="1" vertex="1">
          <mxGeometry x="372" y="-30" width="60" height="30" as="geometry" />
        </mxCell>
        <mxCell id="C0WDaNFQtQ9nxweYVRwT-12" value="" style="group;fillColor=#f5f5f5;fontColor=#333333;strokeColor=#666666;" parent="1" vertex="1" connectable="0">
          <mxGeometry x="330" y="220" width="300" height="210" as="geometry" />
        </mxCell>
        <mxCell id="C0WDaNFQtQ9nxweYVRwT-5" value="" style="shape=image;verticalLabelPosition=bottom;labelBackgroundColor=default;verticalAlign=top;aspect=fixed;imageAspect=0;image=data:image/png,iVBORw0KGgoAAAANSUhEUgAAANcAAABoCAIAAADtg/JCAAAgAElEQVR4Ae19B1RVx9Y/lw7qUxNN/ZKsFPUtV2Lyku/5NKabojEae6HZCwiKVJVeBEQUsaBiRMXeEZFebq9cepXeO9xeTpu/cwdPbkxe/snLytMv3FlnXQ7nzpkzs/dvdpt95poBUzFR4ElTwOxJd8D0fBMFgAmFJhA8eQqYUPjkeWDqgQmFJgw8eQqYUPjkeWDqgQmFJgw8eQqYUPjkeWDqgQmFJgw8eQqYUPjkeWDqgQmFJgw8eQqYUPjkeWDqgQmFJgw8eQqYUPjkeWDqgQmFJgw8eQqYUPjkeWDqgQmFJgw8eQqYUPjkeWDqgQmFJgw8eQqYUPjkeWDqgQmFJgw8eQqYUPjkeWDqgQmFJgw8eQqYUPjkeWDqgQmFJgw8eQqYUPjkeWDqwSMUUgCg4zeQ5PfUpZv7za3Td5hORg0FDCj8EVYUBXDDQQBAPgImRQH6gFglAUUargBAPqqP7sIpQFDwIl0fnZAAEIaDAoZGUQuoEQo2+aj82JNHV0x/RwEFkCw0MB+CgcCBUgeGcaACQA8ABgCGEWqC0hFATwAMAzhhQBhJYQSlISktBVQEkBNAQcATNQG0BNDhACcBhQNcB/Q4wEiAUQAjKT2GawkKp2C7pBpo1UCrBVoMViAhqQ0Ah6c0/kcBA0xDBGBkhxAoqyigl+u6OlTSZhWvQ13Spa7sVld1q6s6VRXd6iol2aYG3TqgwCgdQekoSktSCoW2tUNe0qGVdGIl7fqydl1Fu66qTVvTpq3vJ7pUQKYDGgxoCKClgBYnVYOq7tahpk5tV6Om7YG2uV7b3KhpbVF3tCq6BvUyDaXXUyRJi0MjEWli1V+bAkgWkgDodGRfSVParaK9l4q236jYc6Mi+EZFyI2KkGtlgTerQrMa40rlN/rJKi3Vj5NyilLgoLu6PfO2OPqSNPByZeilqsiLVVEXK2MuVsZdLI+/Vn2C13+/h2rQAzkFtIDSaInBim7hZWFyStnZROnJxJIzicVnT0rPJxVdOCW8dLE4ldklaScG1VDcPlLSj4D46O9fmxejd3RmkOMUBYAWo7oLqxKPMxceF3+eIPkmXrIgXvJdvOS7WP43h8QLjpUuOVuxid+Z3K+vwKk+CgzoQKOw4dwp5rY47uoY4aookeM+kfM+0br9ki2xRdv38d2Olu7NbLnUrW0koH5XqYkebntmeLpfBD8wQBDgyw3x5UT4sfftZsXsYcX55sbuE566/CCnXS/TQG1uAOIjSwGp6NHLpb/6yM0MTgOggF4P+nNqjh/hzTtZ/VlC+RfxZV+j42DJV/FlXydUzDss/u6CdEf10F0taCJBDw6axc0Xk4TbD5U4xZQ57CtxiixxiSxeH1WyObrELVy8LUKw/ag4nN2ZowJDFNAqiL7CzszA+74R4rC9klA/caSvONpXtN9PGOcnTvDkHPLkHA7ins5qKRnAtGqSICnKYCNSJEUR0B8ylb8sBUZQSABcDfrTa4/H8b85UvNJfMXnh8q/OlT+9aHyr+PLv4mvgMeR0u8SeMszG6L7tEU46CZAu7jpynG++36pS1SZS2TpusiSjZHFmyOKtoaLXcNE28OFO/bx/ZPLTzTh9XqgkRND+d05gVkB4eIoP0GYrzDKWxjjJYrdJTrkKTqyU3jMQ3TCl3v6EO9mk3JYRRJ6AqcIEpAQhTigflTTf1lejN6BQY1MQQ2oVYGutAfxMaIvDj34MK7q47jKz+Mqv4ir/OJg5dyDVfCIr/g6Vjj/TLFb/XChHvRhoEPYcPkI222fyCmyxDmiZH1E8aYI6Zbwoq1hErdQkUeoaGcwzzNaGMqXc1RAriCH8nqz9ubsCS3a5yMM8xXt8xbF7BId2Ck6tEN8ZLv4mJvkxE7B6T2ZP4gH2xUUiZEEQiFBUZgJhX9piELvhAQkBpQK0Hq3PjZa/Glc/czYmlmx1R/FVn0cW/XJgepPD1R/FlvzWWz1l1El3xyRrq8YzNGDIRz0ChuuHmFvjxI5RRY7hxevDy/eFCbdHFq0JaTINViyPVjsESjcESkKyO3NUAKZnBzK7snwy/ELLAr3Egb5iCK8DCjcIT7kLk5wlRzbWnTCQ3h6+92jmV1VfaQOoyjKEHwkKEpPW4p/aWaM2sGZAYP1hQG1DLSlN8bHiD6Lb5h1sOZfcdUfxlV/FFf1SWz1Z/tr5sbUfBldMy+qcmFC2aaKoVwMRmF6uY3XjvF3RoudI4ocI6TrI6Qbw6SbQqSbg6RbAqRbA6SuAWL3KElgQX+2CqiGCdn9jgzf7N17xGG7RMG7xPt2ig/sEB90Fye4SY66Sk5slSRtF53ZeDfhTld5F6nVU1AZA4Mg1AIKox3nUcurv+7AzaAkhGFkTAl681p/iOF9c7zh0yPVHyZUzTlc+fGhys8OVH25v3pedPW3UTWLoqqXH6nYVj4EZaEa9HFa7hwTekcJncJFjpGSjRGSzeFFm0OkmwOkm/cUb95dsnW3aHu4ICC/L08JtMOkOq+H45seuJsf4SWJ3CHZ7y45tF2SAHWx+ISr+PQ28ZntwnPr0o/e7CvvovQEimMbQudaw6cpXvNXxaEZXIwDAAekDsjFfalx7GUnquclVnySWP7xsfJPEio+P1T5VVzlvNiqb6OrF0ZVLztQvEHYn6oGfXogL+lmnRAGRnJdIsXrI8XQKQmVuAYXue6VbvMv2eZb4uYr2RkoCLzTek8ONAqgq1A9CLy3bzc72lu8f6f4oLvksLv4mLv4hLvotJvojJvonLswZe39o9f7yzspPY5QOCKq4QqgCYV/WRSitQoCUFpK0aorOsVzPSpadLL4q1MlnyeWfnG8bO6R8q8OVXx9EAJxQXT1kkiJQ37XpSGyUweUzcrqy6WHIwo3hfO3hIvcQ0U7gsU7AiU79kh3+BXv8Cnx9Cry9ROEJNde7QdyBdB0ansTuef8c2N38eI8RQke4qMeohMeolMewjPbRWe3C897CFI23Dt2o7+ik9Jj9JoeCmj+VTlgGhcAZjAOZ0go0JJqNejMqjt6ircukf99ouib49J5x0vmJ5TOP1Q2/2DFgriqRfurl4aLVl1/kNCsqVIAWT/Rw2xNS+DuDWO6h/A8g4ReQWLvvRIv/yIv32Jv7xIfz6LdO/ghB4qTqjWNQ0AxhCuZrUUx7GTP3EMevCPbhYnuolPuwjPbBcmugnOu/PPuvAub7x6/013RS+qJkXihYVn594etoW9jKIODgz09PZ2dnYODg9AVI/9Q5FGv1w8MDHR3d/f19alUqqcQQhRFkSTZ1taWlZXFZDI1Gg0FVyWe6jKCQsMCCoWR8k68KL/5+Hnx9pOCNccEK4+JVx4SLo0VfR9btDi2ZNmB8lVRYsc43q78jrQeolsBVO26pvzWOyfEMfs4e4I5voE83718X1++j5fAx0eye5ck2I0bupsTd70xvZXs0QCyn9Tmd1fsF1zdVZjozj3hwU3y4Ca7sc+6ss65Ms97FJx3v3UivbV8CNeRkJyGBB3CkKnzOylJkqRer5fJZKdOnYqMjAwKCrpw4QJEIQyH/1h+L3Pq6upOnDgREhISGxubl5f3e2//L9QnSXJwcNDX1/fNN998//33U1NTn34gmkGzEEkdAugwKA6HQGXVQDq7+Ux65cHb5dHXysIvlASeLvI5JnI/JNoQI1gbXLjheNl+kVzUSw0pgHKQ6i4bFqU9uH6h7MwPxSdPl506WnwsVnwoWnwoVHzIkxvjzTmwT3A8r180QOlVAHRTWJGyI6Ui53Tl/cTS9KPF6UekWUeLc48W5yZKcxPZ6UVdjWocI8mfwuV3ohD6/iTZ3Nz83nvv2dvbW1tbL1u2DMmJHzH4+4XE3bt3//GPfzAYjAkTJvj6+v4XUPV7H4FhGJfLtbCwsLa2NjMze++997q7u/+gBvi9ffi99c1IaPcb/GQCEBhBACVODeDUkA7060C/kmxXgLY+vLZeLpT23L9dGXeY5x7G3xrE35Vcd7ZIVtGHy3Qw40unBTIFGBwC/T2gu43qqNY+YHUJUirvhApOeLHjPHOjotmnRX1NPXqdCgAZoIaBZggo+oGql1L1UNpeChs5SD0GoBDE9RjUqDBe/Z+s4EGNjBNNjU2zZ8+2srKyt7d3dnYmSRLH8T+Cwuzs7A8//NDMzGzy5MlBQUG/l9z/hfoYhqWnp9vY2FhZWZmbm7/66qu9vb3/hef+kUcYUEhRCIqGrFWlEu9Q470YJaeAjgJqEqhIoMTAsAp0DYBqUe/dpNKYCMHuUHZQYnESu0fUoetVUkodTExUqijZEDWoAAoZkA0BeTvRl90nihOf35132Pte/P7cq5nN1Q/Usl5SO0CpFECtAqQSUGoANJQh/YuEnzBKSJAkTuAEgVMkDkPWEIj/Thoao4qe9BRFYRjW2Ng4Z84cc3PzsWPHrlmzhjQU4/o07dBFugK0lg0G1mNGVVZW1uzZs83MzF544YXw8HB0O6qJbqEbp1t+7ATJ+H93Ed3+2LfoX7rlXzxBT0eGr0wm+/jjj1999dXp06dHRUUplUq6BeNO0hcfG+Mv9AHqS0h+RB/6Rro1dOUxs9u4WXRufIW+BeYXQo1sSCwlCVyl6+9XVXVrpN2a4i51Sb+mul9T062p7tc2yvB2GdWpBzIMKMoHxaeLjoRy9uzm+kaKoi7WX+cNCqtVlbXqyjpNdb26tlXd1I/1yinZMFD0UMMVqpYzJWm+6ce985K9888fLMlI7S2rUPVVK/urVMOVSlmTStGr0yoomDSLkYAgKAhBPYbhOE6QOAkPY/VsPAA0chzDMQzKTr1ej4aK47hGo2lrbfvwww+trKysra2dnJxoqv2ckfBROLxdp9Pp9XqSJDEM0+v1BEEYPzwjI2PWrFkMBuO5554LDQ1F+KOfSxAEhooeLv081k/UVZ1Oh9oc6YxhYDqtDglpNIpfvBH/94UgCDTrSJJEPllPT8/Jkyfv3LkDCQLjILCgakghoOn6czqgTkIlZFTgMAnYMiIO6jkBU/AgLnEc8gdVR6RDZDFWO/To6JpGzSMfGXqgpBbrl9anXxdGXCsLvl4Zebk04kZl3PWK+GtlCTcrTuS3X69S8IeJbgzolEDG6siL5of7CXz8+Lv9CgJCuVGxRfGHi48lliadKDp9WnLubkNmkbyiA+/RAL2KwoplzdHMy56ss5sLkzZkHt2efSpcdGuf4M4+0b19/PvxwvwLlVLp0EAXgWsAfOcAsh5KQigOIQp+AsLHuYsmKEEQGo1GbiharRbBqLWl9dNPP7W0tKRR+FhTiIh6vV6j0SgUiuHh4aGhIZVKhfCEPo2paYzC4OBgzDBTcBxXKpUKQ0EgU6vViEPGtEZXkNuEY9Aw0Kg1A4Yil8sxA3DhZDBCAM1OlaH8Oxwi5JMkqdPp0Kder1epVDqdDsdg4JXuDGoBw6DZ/fM5iUCMph8a9Uj/KUDgkLwajQZhjgafUqmUy+VKpRLDYGwNzWSKolA1vV6vVCqHhobgADEMEWekTaM/j3xkoNGClvvFcYdzVhxkL9ovXBHOWxUtcokSrt/H3xTO2RjBdY0X7Ob3ZvaQzcNgqI3qvNJwPVwcGSgKCRAG7xaH7BQEbOfs3pbvvy1nt2tmwI6s8H2ik/da2YO4UgF03YQqs7N8V8E5V955V97ZzZyzG1nnNrJSNjIvb8y/sjHrisut8573b9/uaG7FdDC/0DD54FBJ8ucofEzM6HS67u5uqVR68+bNpKSkkydPpqWl1dbWDg0Ntbe3f/zxx2ZmZv8OhRRFDQ4O1tXVFRQUnDt37ujRo8nJyTk5OdXV1YODgzhuiJ0bSQxjFIaEhOh1+r6+vqKiokuXLiUlJSUnJ2dlZTU0NAwPD1MUpdVqH+sqkrU4jnd3d9fW1mZkZCQlJSUmJl65coXD4dTX1w8PDz+GQo1GU1VVlZeXx+FweL9UuFwuk8kUCAQ0WwmC4PF4eXl5OTk5HR0daCIjWBQVFXE4nIKCgubmZiTYjOcYhmFNTU2oQmlpqVKpRP2nKKq/rx89SCQSDQ4O6vX69vZ2qVR6/vz5xMTElJSUwsLCtrY2JAtxHNdqtQ0NDSwWKyUl5dChQ0lJSWw2+8GDB2h+0l1FJyjXGpBAqQXNhY3HT4gd44rmR5csDpMu2Ve2OrLEIVzqvK9kfYhonX+u01FhiGSI2U/1yYCW1yeNlx4P4oX6C/bs4Pu4Cf3dxAHuRSE7iyN9yuL8Sg97sGMCchPY7SUySicH+ipNb5j41hZ2sqsoZavkshP/gqPgkjP/mjPn5gbePef8W+tz72xLu36vra4Hh2IBqgADChEQaSQgyUdzV61Ws1gsZ2fnCRMmmJubmxkKssqjoqKqqqrmfTPP3NzcxsYGaWRjWYjjeEtLS3Bw8JQpU2xtbRkMhoWFhZWVlYWFxeuvvx4UFFReXo6QRD89MzNz1qxZZmZmzz//fFBQUGVlpbu7+/jx4xkMhpmZGYPBsLa2fthaTExMZ2cnrb8QrVGf9Xp9TU2Nr6/v5MmTrQzF3Nzc2trawsJixowZBw8erK+vR3IFCcK6urqNGzei9tHofv7JYDCmTp1Kd1Iul7/00kvW1taWlpbBwcFDQ0NIRqpUqn/+85+oqb1797a0tCAdTd+I4/iePXtQhQULFkgkEgyDpgVJknfu3LGxsbG0tJw2bVp6erpUKp03bx7qCapvbm4+d+5csVhMEIRKpcrMzJw9e7atrS3NFAaD8dFHH2VkZPwciCMoJOCLSF25TWcOcJziSlfGlK6IKlsZVeqwr9gpsmhthGRdhHhjpGjbnsxNl2uS2nVtKoA34N3nq6/55wT4cPz8ivb4SAO9pSG7pOGeRZE7JNE7JLGeokP+zGNHOFeatL0YIBuxgTPN3K0FP+wqvblRdNFJeNlRdNVJcNOZe8eFc8+Zle7Eyticfy+SnVGjHFYa7CucxPUUgZEkAUOHPxYkHgmCUCqVly5dmj59Ok0IGxsbe3t7GxsbBoPxzDPPbNiwYe7cuQwGw8bGxtnZGekgWhlVVFT861//Qr6kpaWlra3tmDFjxo4da2NjY20oc+fOzczM1Gq1tPLKzc1FwvXll1/euGHj5k2bzczMLC0tx44dO27cuDFjxjAMxc7ObtasWV1dXQhPCPo4Do3XgoKCV199lUa8nZ3dhAkTUCzJ3Nzc0tJyzZo1YrFYr9drDaWhocHNzQ35vJaPirW1tY2NjcWjYmZm9uabb1IUBQ1ZnJDL5fTEiIiI6O/vV6lUyOp4//330WwJDg5ub2/X6/W0hkWdDA4OtrS0ZDAY8+fPl0gkNMVSU1MRVd98882IiIgPP/wQTTlbW1s0b1Fs6Jlnnmlubk5KSpowYQKiDKqAGGRjY/Pqq6/euHFDr9fTJKUoCmV2AQy+EdeT1ZwczVsbXb46smx1ZJlDZKlTRMnacOn6MMmGMPHmcJFrCMf9qCSqZqhSD8hucvhWXXpQXpgvZ7e/ONBfHOIvDvcV7/MSxxiSZQ7tEB3ZyToWWnBWMtBEALKHkF/rkGzNPuUpvrJJcMFRdHWN6KYTP9WZe9eZc9+Bk7GKm+XMuu+RdZUja5MDjMRxjMR1gNBT8L09YxQiPGIYdvHixYdEsbCwQOB7/fXXFy1atG3btkWLFr300ku2traI4lZWVrQsRIoSANDX14fQYG5uPnHixBkzZqxatWrHjh1OTk7Tpk2zt7dHmPj888/z8vLoGZCVlYUYYG9vP3HiRAsLi3Hjxk2fPt3J0WnLli0fffTR+PHjET9sbGzmzJmjVquRIahSqUiS5HK5D90aMzMzGxub8ePHz5w508XFxc/Pb+3atVOnTrWxsTE3N2cwGE5OTpWVlciGa29vDw4Ofvfddz/66KM5j8pnn3326aefPvfcc9bW1vb29kiOItYC+A6RbvLkyRYWFgwGY//+/Qq5Aok0giD+9a9/mZubW1lZRUZG9vT0IDmH1MsvonCkAkHevXsXodDa2nr8+PHW1tbPP//8119/7eTk9Mknn/ztb39DM8LMzGzWrFn29vZjxoyZNGnSrFmzVq9e/fnnn7/wwgvW1tZ2dnYWFhZfffUVn8c3livQLjTk1GiVoCOj9XSkwGlf5cqw8pWhZQ6hpS6hpetDijcGSzcHS7YGS7YHCHbs4wYX94p1QCsHypyG/IjCGF9OkL8gbA9/3x5+jD8/1kdw0FOY4CE67i465cY95cVKzuqupABQklhGX7XbvZM7mee2cC86Cq+vFt124qc5c+85czJXc7OW8XNWce873Tlzv7dOSWIAJ3Hql1GIphGXy128ePGYMWOsrKzGjRvn7Ozc3t5OEiNGd319/YoVKxDhkI+8Zs0a5Egi32XBggUormtnZxcXF4fW95DqVKlU/v7+CC5mZmb+/v4DAwMIiLRGZjAYlpaWU6ZMiY+PR8Y4hmFarZbJZL7xxhsMBsPKymrixImRkZEAAJVKhRyIt956y87OjsFgTJ48+cKFC0hXInXZ1ta2du3acePGIWm6f/9+5O1CWfVovQd1D3m7OTk5kydPtrS0HDdu3CuvvLJ//35EFgCAVqudNGkSUoUxMTEymQyFDnAcRxr5ofSKiIj4z1CIzJvPPvustLQUPVGtVmdlZf3tb39DWsXc3NzOzm7u3LlVVVW0ZcxisWbOnGlpaYkEZEpKCoH/GHwwRmFXRsuZcIFTZOXq0DKH4DKX4NL1waWbAks2BxRv2VO8da90uxdrS5QgpHRArCblakrDahFEcRJ8OBG+/Kjd/NjdvDh/Xrw3/6in4MQO4Wl34RlX/llv8dXU3oohUjNIqguHG7anJrrnJm9jX3bh31wjTHXhpbmw7zuzs1dzcpbx8lZys9fcu3Cjp66b0Om0Oj2B6QChA5QOZv38OHnQ4OPj4+3s7JDnsWHDBp2hIKcVWWCNjY2zZs1CELS1tXVxcaG5WFdXN3HiRCQpT5w4gTw4HMfpMA1FUVu2bEEw/fzzzwsKChAKUbwQ6dOXXnopPDwc+dE0AkiSrKqqmjBhApINL7zwAgIZAODKlSu0zMjMzIQOLI4jRanX65FnsGjRIktLSwsLi9WrV5eVlSEg0t1GJyRJZmdnP/vss6j/kydPDg4OpjvwZ8tCc3Pz999/f2hoyLhXer3ey8sLqV0zM7NXX321q6sLOebI+yFJMjk5ecqUKahOTExMd3c3mhtQIxNQFAIC6GWgPbPxfDDTJaxsbWjp+tCSTcGlmwNLNu8t2+xfttmvfMvuUjd/4Y44cWTVgAQDKjXA8pqLIvhJuwQHdgr2+/AO+nDjvXkJu3hHPXkndvBOe/DObmOd9WBduNdfpwJUF67K7KzyuZfsWXDZjXtjPe+mCz91HTd9HSfLmZ3tyMldzc135OQuu3PlUndLJ4nrMAwnMD0gVIBSAqD7KQp7eno8PT1ppclkMlFoBmEFfer1+oKCAiSWHkNhdHT02LFjzc3N33333YcOCu3rGFP2xo0b7733HgoNnjx5EqH8/v37M2fOROJqwYIFUPoaFqxpglIUpVAokpKSEIJtbW1ZLBayRNesWYNks6OjY1tb26MYFNSHyEsAAERFRb344osWFhYzZ868m3qXvo44iqKJ+fn5b7zxBlKsEyZM2Llzp/Gof4ssfAiF0NBQZLYad+NhO4/ZhT/XyM8//3xISAi0QXXQBkUUIwgiOzvbwsICCeCEhASVSkX3CtkDfX19X3zxBdIhAQEBXV1dtD0wgkIS4HowzO5M3cd2iyrdFl7sGlq8Pbh4e0CJ6+4yV78yV59yV98y971Sn3BWkKSLrQMyDcBYbRVh7NPurFgPYZynIN6Tn+DJP7qTPwJBd17KNnaKB+vi5RbpMKAGgL5U1bc7PcWj8KqrKHU99/Y6bto6bsY6To4zO9eRXejAYTmyC5fcuZHS3dlGwqQakiAxilT/Egqrq6udnJyQMHB0dESxAzRaevAURT2oe/Dqq68iJ9TRwREFtAAAa9eutbGxQbM2NDQ0PDw8Ojo6IiIi/FGJj493cHB47rnnLCwsnnnmmePHjyMrLScnZ86cOQwGY+LEiT4+PsbPos9xHC8uLraysmIwGOPHj09JSUEonDNnjqWlpZWV1YcffoieE/KoBAcHh4WFxcTELFq0aMKECQwG4913371169bPp8fDEMxHcz5C02DcuHEuLi7GoRZU//+rkf8ICt94440LFy4QOPQf6UlLEERtbS2aeAwGIyMjQ6fTGRMERcTmzp1rZmZmbm6+Z8+ezs5O2h79EYVaIOuiHhzlBsUId0WIPUMknkFFnoFSz70lnn6lnj5lnj6lXrtL9u4u2JvZkCbHBjCA1yraj5fc9CiMc+PHuwmOuAmOuQkS3QSn3ARntgnObxNc2sK/7Ma5crS0oB/gWgC69JrjxfmbCi6tk6Q68VOd+OlO3BwnboEDp3A1h72Sw1vD5iy+c+t8T1frIxRSBAn3FqEe18jFxcXLli1DE2vLli1wwCRM5aJHjvjR2tr6z3/+E2nt1atXI7lFUdTChQsfWujI47S1tbWxsRk7diw6sTEUY8/O3t7+8OHDiOLIRzY3N3/hhRdCQkJ+Eto1LPqhnrQ0t0yaNAl5RYcPH0YonD59OoKmhYWF8bNsbGzs7OxsDQVVMDMzmzJlyqVLl2g2oxOhUDhv3jzkHY8ZM2bBggUajQbpYnrgf7YsnDp1alpamnFQE9mptbW1tEYWi8XGEgGhTSaTffnll0hw+Pv7t7dBNYK6TaOQNLx60p3bfjPonnsE1zdM5Bci9guS+AVI/XYX+/mW+nmX+u8qCdjFDTpbcaFd0a4D2kFKkdnMDyg45l4Yv52f6Co46So45co/42qA4FbBlc3C61v418N4ae0kpNYQRXCGOrZmpKzj3FjHS3XhZriMoJC1msNZyeE5sDjLb9261NXVRpJw9YPAAY7DELaxVWiIy5eWljo4OKDwytatW1E2ofH8Qyhsa+66n9gAABlZSURBVGubOXMmQuGqVasIHK5BabVaR0dHa2trW1tbCwuLn4ff6CsI5ba2tnFxcQgH2dnZn3zyibW19TPPPOPn54cUMfqKxgFFUa0trWPGjEHhnoSEBITCt99+G7nexu2bGwpt19OMfO21186dO2eMwoqKinXr1tnb2yOr9NNPP21paSFJEiVu0U83RqGxj4xWO5B38kdkIYoXImeLHjhBEDU1NQwGA2lkNpttjELkvSkUiq+++gqN3dfXt6217UcUIh8ZvXqiBopm/EFaw/WI/N1+2W4+edv38rz9eV7efK9dQi8Pkc/Wor1u4rAg7sGCbt4gGNQCdT8xmN3CDWP9sC0nYUN2wsacoxtzEjfknN7KvLSVe22j8Pp68a3tzCs36op6KUwNQBeB3etu3H7v4orbySszrq7JurMqK21Vbubq/NxVBQVOuQUrLl6+UNvQpcdVWi2O6SkIRCgJwU/EHNXU1LR5M4zVMRiMxYsXI348JplIkqypqUGBK2tra1oW4hju6+trZ2dnbW09Y8YMFoslEAgKCgqYTCbbUJhMZm5ubmFhIZvNLiwsZDKZDQ0NKA6SnZ2N0iMsLCxQkg6yR+FioyFb56GdrlAocnNzEUtsbW1RoAcA8MUXX1hbWzMYjJUrVwoEAo6hoJPCwkK6A0wmMycnh8fj9fT0IClCEERlZeW2bduQf81gMGbPnl1aWoqcG9QBZDg+ppHNzc1jY2OVSiWBQ/KpVKoPPvgAhQMDAgI6OzuRoTmyqIjjKpXK19cXhXjmzZsnFosNogAODcULkZBOTU2FNxqcXCQISZKsrKxEdoKZmRmPx0PLTgimaBSPofBhBIqeOSPxQgK+XkTp4TtQqmZ9I3+o4FbTxZPSQ4cEUfHS2FhJdCg31LcwYKcg1LNovzdn//GylAp5jQaoVEDejfeJhutSmpkHS+5G8q9Fi+5ECu/5ZF12TTu7Kefiet71jYWXQgpvcwfbBgA1BKgHuJqvHDrXWhldyt3Lzt3NyffnsPy4HB8ebzebH5iZn9/RJ8NJtUaDYXqSxCnicVmIpntISAgyMqZMmXLkyBGtVotwgLiC47hMJjt69Cianba2tnTUGlDg7t27zz77LIr2VVVVKQ1Fp9OhKa41FP2jgr7F9BiO4RkZGQiF5ubms2fPRr4zQRA4Btd/kVjq6upavnw56pu9vX1PTw+CSEBAAFrgefvtt+vr6+nHoeeo1WqNWoNcZo1Gg4aDlnRbWlr8/f0nTpyIROacOXM4HA76Col/uG5miOYgoavRaJ599lk0DWgUAgpoNJoPPvgAuWtLliypqKig13aRoyAWi5csWYIMlYULF4pEImMUIrNvypQpqamphnynkVALWpVGKESi7ucopChKLpd/+eWXCKm+vr4dHR0/opCWhYYNBqHq0wG9khoaxDsHtR0dmoYubUuztrFKVSlUSM7VXfMvjPYsiPTLjzldfKVCViMDwxqgVlDqbny4VTfUrBms0w7UaobLZQMFHU2nKwTuuVc2ZJ/zZN8IZt/hDXUOANAPqH5AteH6dp2mSa0qV8jq1OpatbpGo6lRa+pVahlOwBeRofOGYxSOURQGt0n8MVKD4hc3btyYMWOGra2tvb39rFmz7ty5Q/tcBEHIZLLU1NRXXnnF0tLS3Nz8Jyg0BPBeeOEFpNoWLVpUX18P0wsMliVSEwCAlJSUAwcO1NTUIHWP6TFMj2VmZtIotLOzW7x4cU1NDbyFhL4USZJ9fX1+fn5jxoxBoelVq1ap1Wq0pFFeXj5p0iRkHri6unZ0dKBEFXgbWiwnyVOnTiUlJXV2dtLpFP39/ZGRkRMnTjQ3N7ewsPjoo49YLBZaBENcHInRGPb0QeaaWqWm41Aoao2SJyiKmjdvHpLHY8eOvXDhgkKhoN3wnp4eb29vNE8sLCy+++47iUSCHkGSZFpaGlrknDZt2r179+hHI4ePJMnq6mokRM3NzYVC4WOyEADwcxQiSYkyu1BiF8wwxODr8TBlVY3LdZSSgtsQ6nGg08GVFfUwpajVN97vKtzHP+mTHxeUfyRRdIXdV9xCdfeCIRlQ66CjTSoALqMIGUnKCbxNp8robdonznTNv7Qt+1I4O/NeW1MHAEMADAMwCEAfCQYoSgaAHAAFAAoKyEm4cSLMioIZZzB4rQMkXD4xitQgoPT29vr6+qJgzdixY2fMmLF3714ul1tbW5ubm+vj4/PWW2+h2AFazHBwcBjJ9SDgywDx8fHPPPMMg8Gwt7f/4IMPDsQeEIlEbW1tDQ0NhYWF3t7ef//7359//nkvL6+GhgYSTggYPaY1MlrkGD9+/Ny5cw8fPlxUVCQSiU6dOvXtt99OmjQJBTInTJhQVVWFZDPKcNm6dau9vb2ZmdmkSZM++eSThISEysrKxsbG6urqtLS0LVu2vP766w+XgKOionp7exGnLxrWh5CMefbZZzds2JCRkXHr1q2bN2+mGpVr165VVlYay0KEWiQL0XWSIMPDw5977jlkjL755pt79+4tLCwsKio6efLkggULJk+ejL4yNzefP3/+iEaGop4w1sh378IQEr1A8HNZyOfzfzcKDZCEr3jIwUA7Vd8Fmvuozh7QOQj6ZWC4DwzIgUYJ8EGgGQDqTkLO7Kk8ILjqlXPMqzAxiJ+cUH7rbr9EQrZXgf5mIO8E2kEY5INg0gIwQODioZ79kvytWTe2F+TsyCuM4UtutnSXAFAKQBkAlRToAgDKSBwoSaDCcK0egyM0oBCHsnBkKRlxhf7EcVwoFC5fvhxBzdLSctKkSdOnT//HP/4xbdq0SZMm2dvbT5o06X/+53+srKzGjh2LshnQ1McxmNXi7e09fvx4MzMzCwuLF198ccaMGe+///677747derUyZMnW1tbm5ubf//99yKRCElZAEBWVhYKuEyYMGHq1KnPP/+8jY3NSy+9NN1Q3njjjb/97W+I/ePHj//h9A8oxwTy0ZCE19bWtnTJUjs7OysrK1tb25dffvntt99+GJR55513pk2bRuvcbdu2NTU1IVGRkJCAliWQx/3iiy/+/e9/f9NQpk6dOs1Qpk6d+s477xw5cgSldWm1WjpVIjo6GmWFQeNPp29paaETLu3s7FBr06dPf+WVV8aMGfPee+/NnDlz7NixDAbjm2++EQqFyJYgCfL+/fvjxo0zMzN766237t69S3OBTiorLy+nXSuxWIysI7oaAECpVH799dfIqPDz8+vo6PiJLDT8g2NAwWvMPcE9mCg5lFSUeJyfmCQ+c6Yo5Yz0UrLk+s3aPKGsrodUD1FUG67NaK8I4V52ZZ7Yxj3pITjtV3QhUHo1UnrrUFHacVHmGX7e3XJpWX/fMAn9imGSKBjoCuQWuGTlO+Sw12UwXbN5PmypH7vYny3ZyxJGsQWJ/CJOz1ArTipJCoPKGKoogiJwCjfk1jzy6elhGU5UKpVEIkFZLYj3yBhCwm/GjBkXL1783//9X5TNsHTpUpqmarVaq9W2t7cfOXLktddeQ7YjbVyjkwkTJqxbt66goEAul9P0un379jvvvIOW4Nzc3I4fP/7aa68hzY4MQdSNKVOmXLx4USaT0UYCstBxHK+rqwsNDUUCCUk4ZDMg4fryyy97eXlJJBKNeiQEExMTg6YZqkB3Enlm6F9zc/OHup7OutVqtfb29ojfoaGhMPkPLs3ALGCSJPPz82fPno3mGN0m0vWXL1/euXMnihbNnTuXw+GgHC2ShOvIVlZWZmZmb7zxxtWrV2nfHI2LIIjS0lIahUwm0ziMj2bg8PDwV199hXq1a9eupqYmJKGhRn60BQJEYXrZzeB7fmHcwEBuiG9B4F52RCBvfxDvUCAnIYh7PJp3LqutpEmv6Adkg16WXFPoxU7ewj29QXh6ozh5k+DsFu45V9Z5D+Ylz7yrPjk3owUFqc31HRRUuy04dq2lddXt+8uz2I65Aqdc8Yp0/vL7/GUZvGWZLOc8jkt6nkc2O7m2qUGP6YDBIYF9h3EanDQQ76f4o//T6+H8vnbtmpub28cffzxlypS333574cKFISEhIpHooe31MEFr6dKljo6Ox44dG3HoDGnDaImzv6+fx+PFxsYuW7Zs5syZ06ZNmzFjxrx583bv3n39+vW6ujqUhUCjsKSkxN/ff8mSJZs3b3740L6+vszMzMDAwPnz5yOp9v3334eFhQkEArlMjnQW4hP6RN3u7u7OyckJCAhYuHAhkoLvvffesmXLIiMjMzIy2tvb6YAwRVEZGRkuLi4rVqxYtWqVk6E4Ojo6ODg4Ojo6PypOTk7Ozs6pqanIVsEwbOPGjc7OzkuXLr19+zbymfQ6mKSDhGVxcXFsbOzSpUvfeeed6dOnf/HFF4GBgWw2WyaTPRz1mjVrVqxYER4eXldXBxcODC8ASaVSZ2fn1atXu7u7I+UAFfGjVXudTocW7jds2LBs2bLq6mpjWYiWVeVyeVhYmJOT08qVK8+ePdvX14c8+hG70KD7cC1QZNTcDc8LDi0K8xMHe3D3eIlCfSVRvuJYP/EhH2G8DythH+tCYV9dF1TNGHegYZ/45ibmKRfhmXXFF9ZLL7sILzpyUhzZF10419eyb29kpe3h56e2tXZSQEZRwiGFey5nVS5vdYFkFbN0aU7p4tyy7/LLvi0oWcQpXZArXJTJX5fOutve14WRerihoh4j9HoKjhUnKYKEWW40+OgT5KloNJqmpiaJRMJmszkcjlQqRYEAlUrV3NxcWVlZU1ODVjbRjbRQRKn23d3dlZWVPB6PxWLx+fyysrL2tna5XI4y/mliAQDUajVqsK6uDpluer2+s7OzuLiYx+VxOdzS0tLu7m74FJJCjvNjKEQzQa/Xd3R0lJeX83g8DocjEAjKy8u7u7uRa0wLCQDA4OBgTU1NlaHUVNfUVNdUV1VXVlZWVVXVPip1dXU1NTX9/f0oeYwkyfr6+tra2ofpjwMDAyNGodGbXwCA/v7+ivIKRK7i4uLOzk6EUXi9oqK0tLSluUWj0UCNZFgLUCqV6CkNDQ0KhQJFH+lXHTAMk8vlFRUVD7FYVVWlUsIEIppHqDKGYS0tLbW1tdXV1T09PfRMe4RCuI6My8HQ3Qd3g5mhAdJQn6LgXaIgb0m4jyTSRxLjIz7oI473FRzdmXH4ZElGtbJbAfAmXPZDTeG2wjOO3GRH4QUX4RVn/hVH3tU1vBtreKlr+OlreBlr89ODucwqDGaTtenwo/Xty+4zVxQWL2dXL8urXpJft5BZN49Z9zWr9qvC6nn51UvTJWGs8jKFRguATovpcL2O0utIAr2MMpL7/4iraJDGMoa+glQP8m1pWtAntGCDQDFk2I8YAEYyl6ayMTXpG39+gpCKHkEvZvxi34x1tDG+6e6hJ9KPMG7z0dANJosROVAdhBgawXSD//bEMLHpAdK9pa1YuquPtYAGiOojjNKPpntifAua8/Rg6a/oMZqhlzgwgA+BwZv1d3azgvykIT5FId5F4d5Fkd6SaG/xAW/xIW9Rgo/wuHv24SjupZKBZhXAe4D2Sr3IvSDFgX3egXfJmX/VmXfdiXfLkXd3De/+Kl7WKl7O6vwM1/wsjlKOQTeFvNQ1sCQ1d2lh2TLOg2UFtUsLHixkNsxjNn7JbPqysPGb/KYl2bXb7hax+1VKCmAQhToNpdPCHTUBQcAX2ulCj+Q/OKEHj+6l2/x3J8aPoO/99RPjW4zP0SOMr/x6O499a3yjcW+Nr9O3oIt0NeM6/+XzkViSoWfGj6a7asi1puCeXQNg8Eb9bV9uoFdJqKc0fGdR1E5JzE7JAU/JYU/xUU/x8V3Ckx6FiSGs8+LeejUgegF2vUHqWXjFhX3JkX/NkX/TkX/bkXfXkZvuwM1y4OY6cArW5Odsysu519ejBKCHIK909i2/k7ukoHwJp2FxYc33zJpvWQ++YUEUflXQPC+3dWlmo9P1ovtdqmESQElI6DVAp6VIzIDCHwOGxkP5/ef04H//rfAO+vZfOfntLf9KIz//6rc0S9/1Wyr/d+rQXaK1BHoufR3uXwjgC7/6ATBwreG2NzdkZ2mEhzTKo+iAu+SguyTeQ3LMXXLSXZLkIT6zg/fDnoJkXletCpB9AL/ZUOLFvLaOc9WRf9OBn+rAS3PgpTtyMx05uY7sAkc2a01+/vrc3EstLYNw7Y683tGz+lbOsvzyxdz6Rczqhazq+ewHX7MavmY2fZ3fsiCnbVlm85KLomutyj4CwJc7SUwDoLOCoT1CHgHgD9KOHvx/1g59+6+c/PaWf6WRn3/1W5ql7/otlf87degu/SoKKZIAOgVQXKu77cUK9xBHeEj2G7ZYPbxdfMRNkugmOb1NcsZVfNaVd8aXeY7TXa+CmVpkamO5Z8FVJ/ZlB/4tR26aIyfDgZO5hpOzhlOwmsNaxeGuLGSty2eeb2obBKCXpO73D625dm9NYfn3rNqFhXULCuvnM5vmMZvmFbTMz29dkNu6NKtp4WVBSouygwA4TOvCtYDUwqXFP3HnuN/CCWM6/pFz+ll/pJHHePnr4pl+4q9X+4P9+YO3G2QhfG1aqwDyrPYCz6wwT36Mp+jgDtFhD7jd9HFX8cmtkh+2SM5uEZ/fxDnjw77A6W1Sw10+QFZLjVf+1dUFKWt4txzZ6Y7srDXsnNWc/JVc5goeZzmXv5zJWVvIPdfSMWBYL+EpVGuvpS7P5C9h1i3Mb1yQ3/ptQdu3BW3z89u+zYPH4pym767zk9uULQTQw11cIQShpwJzrf+s/QuN+fSL53+QxMa3o/aNr/zH58Zd/ZVG6Gq/UueJfzWCQgB0MjBYqa0LL0jwYx/04sfvECa4i45tF8FdVrdKkjdLzm0RX9jIOevLuiToadYBoAFAOti1T3jfOS/FiXPbiX3fkZW9hp27mlO4kstZzuMt5wmWs7hrmayzra19hiW7aq02uJC7+E7h0sL67/Lbvs3vQsf8vE50LMpt/vYG54cOeSMB1HBFG+b66w3vyY+8+//ECWbqwJ9AAWQXkgDo1UDeBfrvtuSFFB714xzx5B/bwU/0EJzaLkx2FZ3fKrqwTXRpC+v87sIrku4WlGzVQ+huNpd6sW5uyL+5npnuwsxyYuU6sgod2JxVHN4qDn8lk72+sPBsa1MvoOSA6CD0mR3dW7KESzLKvs9r+S6vEx0LcjvQsTin4bsbBT90DtSTlNKAQszw22jw104eGYV/AhFMTT5hCqBIDfwpUB3QDAJZPd5+uyk/RnjOr/CEe9Zh18wj23JObM09vTk3eXNu8qbsMz6ZF3it9XqCBASlJ6l69fDV+tIgdua2rDvrMu+4ZKU5Z91fnZGxMjNrRWbO8vvZa7Pyzjyo76NIOaEeAtpOnLjQ0LEjt3jl/bIl92sW369efL/6+/SRY1m6dOmVtJS2tkYCk5F6HcxTMfzIBP0TpU+YXKbH/ykUgO/gUdD2JzXQQVEPA1U7GMrpKDpXnR0vvBHFuhzFvbmPlxrBTwvnp4UL7h3gpks7W/Q4/KFPCoe5+O06bV5HS1J50X4JJ5TPDOKx93A5/jyeL0/owxEH8Ipvt3TJSUKpU2phzhjWRBJprb2xZU0hpW17JC1+wiZ/UbPhaAkU1gUWsLN629tJjZzUYAQBf4sM7lsDf37nabav/xTmjJpGR94ENaQVEloK01J6BdAOAHUrMVSv6ZUONUuGO8SybqG8Bx6yHkl/54BWDRf94KZuEBiYYT/CdhKv0Sqkw/38wQGBXMaTK7hyJXtYyR5UPNDiGorSYjqCxDWkVg7IbgBqACgmgVgL+EpSqKKEKkqgosRKXDI01IKpBymVFuigJEQoJElgWBEaNXwZXQOFKCQMHihGwbVagqAwEoOrt/A/SkViCopUGDxiGQAKuJMhicMtfgGBUQTMuINJvhhJ6Em43IiTpIogVCSlIGGmoJyEWYo6ADdCNOzBhn43Gbq98AcaAVAbNkjUkHCbRHgYMI0BoKU0GKmFv/2EDEMIQSgMRxdzRs1oR1AIcUUCEm6bCm0xuImloRj2sYRaEf5eN4C/v63TEgQMIsMtHSBkMQLmGuA4hWFwfzwcNyQRkXqc0hkOHGbsG6obdmKEa7vg0WZ3MPBlkKkYjFiSBIDAh6SnSIARpB6iEIdbexogiFBoAuJfEJsjGtmwgyHEAVrbhhnsj5a60Q7nI/ucG5BqACt0GhB0SMKQ7UJjF+ZNQcGIGw6CgPKVMAjaEWhDkP0ETPB/dIxIu0e/Gm/YcNsQ8ULuiclV/gtCEObUGFLrISgoaHo9QiGUiBBbEJRQGY6gBP6Hvnrsk4bsCNB++Q8dQX1Mt/7SdSQT0S5Jht+mhS8moM7+NTkxmkc1snPcY4tCxiAyhojx9f/g3LgpY6L//64jFP5EfBrfbjr/v06B/ysoNOni/+tI+7X+/4hC41rGwulPOjd+nOl8lFPAhMJRDoCnYvgmFD4VbBjlnTChcJQD4KkY/i+j8KnomqkTo4YCJhSOGlY/xQM1ofApZs6o6ZoJhaOG1U/xQE0ofIqZM2q6ZkLhqGH1UzxQEwqfYuaMmq6ZUDhqWP0UD9SEwqeYOaOmayYUjhpWP8UDNaHwKWbOqOmaCYWjhtVP8UBNKHyKmTNqumZC4ahh9VM8UBMKn2LmjJqumVA4alj9FA/UhMKnmDmjpmsmFI4aVj/FA/1/OsOnNInOQt8AAAAASUVORK5CYII=;" parent="C0WDaNFQtQ9nxweYVRwT-12" vertex="1">
          <mxGeometry x="28" y="15" width="133.49" height="64.57" as="geometry" />
        </mxCell>
        <mxCell id="TvYVOuvGwIo_3C9jy05R-7" value="" style="shape=image;verticalLabelPosition=bottom;labelBackgroundColor=default;verticalAlign=top;aspect=fixed;imageAspect=0;image=data:image/png,iVBORw0KGgoAAAANSUhEUgAAAhIAAACMCAIAAACmrNfyAAAgAElEQVR4Aex9eZhU1bXv++9973svN1eBnkdwwHmKw000DnFITExyE5ObGBMVusbuBppJZRBExTighEFQjIoKMqMIojgAItLdgDSzMo89z91Vdc7Zw3rfb+1TTYNdrd0RUXLqO2J11alz9ll77/Vb8/pf5L08CngU8CjgUcCjwNemwP/62md6J3oU8CjgUcCjgEcB8mDDWwQeBTwKeBTwKNAFCniw0QViead6FPAo4FHAo4AHG94a8CjgUcCjgEeBLlDAg40uEMs71aOARwGPAh4FPNjw1oBHAY8CHgU8CnSBAh5sdIFY3qkeBTwKeBTwKODBhrcGPAp4FPAo4FGgCxTwYKMLxPJO9SjgUcCjgEcBDza8NeBRwKOARwGPAl2ggAcbXSCWd6pHAY8CHgU8Cniw4a0BjwIeBTwKeBToAgU82OgCsbxTPQp4FPAo4FHAgw1vDXgU8CjgUcCjQBco4MFGF4jlnepRwKOARwGPAh5seGvAo4BHAY8CHgW6QAEPNrpALO9UjwIeBTwKeBTwYMNbAx4FPAp4FPAo0AUKeLDRBWJ5p3oU8CjgUcCjgAcb3hrwKOBRwKOAR4EuUMCDjS4QyzvVo4BHAY8CHgU82PDWgEcBjwIeBTwKdIECHmx0gVjeqR4FPAp4FPAo4MGGtwY8CngU8CjgUaALFPBgowvE8k71KOBRwKOARwEPNrw14FHAo4BHAY8CXaCABxtdIJZ3qkcBjwIeBTwKeLDhrQGPAh4FPAp4FOgCBTzY6AKxvFM9CngU8CjgUeD0gA1NWvGBCdXxw8xu258nvHHn3nwa/0OT1qT4X1yHXyf8Tp/4d/x27vmaB3PiKNxref/zKOBRwKPA950CpwVsaEXSJukAO4gUH2Di/B/DgOroXz5BuVzfAIYiJUg4WklzEYCIxGda8tHhddwPcV9AhiTpkBZ8yDYY+74vFG/8HgU8CngUMBQ4HWADUBGHBSCHJJJEQpIQ+Lftu+PfaA2oEUQ4NDnq2IlQKIi01lJKRyqpXShSBgSOv067n7UpKO7q0lorjbG4ioi36DwKeBTwKPD9p8DpABsO6RZSMVI26wqSHHMoYAGsTh0egAJpkXKgT2ippJBSCiUdKZWwSVgEvGAAIrI12ZJsqaXq+GrGtqWAE1oonCwYMFyt5fu/ULwn8CjgUcCjgKHA6QAbsCdphw+btMXWIbB8hxl33GplbFft/lWaHNY1XGwBjBDZRBZpGxcBQOAjw/oZLtr+anedY6qIhH+F72fOww/hCTGGMG/JeRTwKOBR4HSgwOkBGzADQc6XxiRFSpHUbH0CE1cdHgL44B4ufBjgOOYR1/ziadYSyoyMkrY7vJrCfWy4WGAjg1UKpjPcmZ0cnpnqdNgs3jN4FPAoAAqcDrChjH/C1RxgkYKGoAUMUHBlJ7BSQUGJae0oWJ7YZCW1EvBjaHxk/BvsKsFFmPt/xQU5mktJLQUc40Aa4cGGt888CngUOM0ocDrABusagAdNJBRcCxxCxZI+2Hdc+D/hDUKkLGbrCj4JIqmV0kJreMEFrE3ErN8hgAl0F4sNVokuKAhGLzjAoWTEkYaUVpKHdpqtHO9xPAp4FPg3pcDpARuStOMIVdXsbDnctG5fw7oDLSUHW0v2Nxfvbyw52PFRfLCx+GBT8YGmkgMNnx2s31cfbXSgUxDZcWVDs8oitFYRRYeaaeOR6LoDTYkuWHa46UBtrMmG4gJ/BqsmwBuO8vo3XV/eY3sU8Chw2lHg9IANZWt1sEXNL6t8+J0vBi7YVrhgZ8HCL0LzvwjN35m/aEeHR2jRjuDCnfnzdw6Yt/3+Rduf+/jAxnK7xSaCgwT+iTj3h6qxu5He2Fj+yFtbBs3fHF60o8NjzJKtM9fs2XioKQKNQ5Nw2tzjXgDu92jjmAweVmGNoTKurXKIBD+IMmHerNSabB1XBeVT2kVB8Bl8QfciJlbCUIOD8r5HhPGG6lHApcDpARs64qiPD1q+1zffMq3shimbbpmy8ZbJ63825bObppbdOHVjx8dzpTc9V3LLpE0/m7z12qmbfzVj/fR1FYcaNDmCRIy0hklKEzmO1rRwR8M9s8t+/lzxz6auv2Hqxg6PG6dt+Z+XN09dte9QowMuIpUJ0XKdK96S+55QQJEW8GaxpwoyBEsQCmk8rDdqXiLSklq3tFLNUao6rJubpOCoOQRoAxpMkAXSdjRShyCGcECehVg9xE+Q0rB+YqF4L48C3zMKnA6wIYkOR+XLG4/c8dyaG17YfO209TdMXXvr9LW/eKH4tunFt0zt+Lh52ppbnv/49umlNz/32bUvfHbjtI+HLlj/WZXVCo6PZA7XkyHBAp56f8evZhRfN2X9jVPW3zq1uMPj2qllN00ufnDBho2HGxC9y4wCvEI6msOrvmdL4991uJrT/AWmTzlWiybHJhXTQtkoIEAyqiPNVFdHe7bQRzPU60XR2Q86q9+go3vxrQm25ohrAzcIpzNONaGQf4oIb1Q0IAEfnPGg/btS2nvu7ysFTgfY0ERHG50ZK3f/6ukPbp2++dYXtv182sZfTFl3y8Q1N09ae+v00o6Paetun1b8m2mf/WLKptue3/yLSasemF2yo0rDtMRmBhc2hGjV9Njysl+9XHrDP7ff/MLm26aVdnjcOGP7Lc9/NnzRZ8WHGmJwaQhbSU4R9/LEv0/bA4F5mijG7B2aRoxUCyEFlFqJrGgDlX1Ar46h0T+n/FwK/lAPSNUPXUnLnqWGo0S2iJsmFWoQKCCDOSRKFkT5wqyQtNUu+z4RxxurR4HTJABXE9VbYvkXtf1nltw0teS66WXXTd903bSNP52+6Ybpm258bn2Hx3XTNvxk+qafTtl07aQN1z1X/OvnV07/5MDeRh3BdlZaaYvDq0ipmKSF2yry5pTeOmXtjZNLbpq6vsPjxiklf3ix+B8rd+1usBHXpRwBA4UWBMuFt9q+PxQQWkeV45hUTwmTkkOqVVcdUGsW0IwC8fDN9oCz7FAy5Z9Jgf9L9/6Q8s6iGcPVgTJFrZaxRwntqIhFwk0ZhbUK12Ndg1eDKYnjrYvvz7LwRtpGgdNB2yAtpbD3NamXS48MfWvHfbM2/eWV9X+Zuf5vr5f9bfbWP7+e4Ji15S+vb75nZlm/1zf5524Yv2L7BnaJKyR8cPYe1A5NEuixu1m8VLJv1Jtb/LO33PX61g6Pgnlbnv3wizX7G1phehDI/oNtm0Ny2+jtvfkeUADeDU7elEIj6tpuqVVly2nWKHr4FhrQmwrTKZwezcsUvlwK5pA/UwX7OC8Mkvs2KmqNubChbNUK2DB/cnA4aaO4NHPeKDvAPNj4HqwHb4gnUuC0gA0lybGFoMNNtKVSfry3edWu+rV7m9bubVyzt27N/gTHvoZP9jR9urtp7Z7Gj/fVfVFjW1GTeSFgVUD4i1bCQYkSRZbSB5rtDUdia/c1rd1f1+FRfKhpZ41Vb+F3cKrD34mEDa+0yImL7rv9N7scoBxwWUwpDu9w3n1ePnMXDb2I8nOAE4EkCqfocG8d6E390oQvXQ+/mBY9SlV7iWK2wQlJkmwHQgcLDpx3alJPFdeuYdD4bhPCG51HgQQUOC1gA0kSQrHv2iGKCBUTUihlO07Uti0lOz6kcISQjrSkbAI+ECofohAuaoIws5cKVdCNbdpSJKOCooJsJTs8YkrbDDYInHFsDqDikieeRJlg8X03PzYFzuCiiLbSjnX06kgafQMV5lCwpw4m62C6zutJ/lQdzKXCvvTAFXriH/Tbj9LuTyjWjHxT49tgcQG5pqiBDCTiepmKLEmOMp5x4UbmfjfJ4I3Ko0BCCpwOsME9NrRUQmpUQNcwICMQBlxfQdpLcLiFQ0yzDls7HHoLlzh7NVHpEPXXOZGDVJR0FHVHuHRJhxeEVKkdbZQMxGsyuzBxnJ5vI+EK/M59ASe2Q9RcSVuWiBdCVHQZ5aWTP0WG0+xQmvYnkT+ZBvYVY29TLw6k96bQ1hVUfYBszvM0GR3cr8UtZIliBIjGptZqvX+DKl1Kn71LNZ+TiqCmgCdSfOfm3xvQV1PgdIANPKXZfvHcbDgl2qxDiWpSuRFT+CnqgkhhFAsGIZQVUQwbDqEKOhgJyuIyaCSCIQMbiO5nRoGWH+wJ9cxUX70OT8EZsB4B1DGp8GWhJgxCnAAbjc20cQlN/XN0cB87L4V8ORTMFfnpdjhDD+hLD99ALxfIVa85B7fLSLOSmGYka7hebuiqHL9rrs3lbZrraPNSMWuIfPxX8ok76N2/U91edrafggf3bvk9oECbuAvOxmIq12rl1XnqZY3TBTa+BwvBG+J3iwJSk6UcQmqfdJCEB8OirYlam2jLCjnNpwNZFEq1fRkU6E2hbF2YJkdcpKf+lVY+T5U7pRAIeGDPlen+mPDxtKb9G/XMgZEB51MgRd/3nzT2p3rrGoq1MBdI+Dvvi39fCjBsmGIVbhym0ELbxphxysniwcYpnwJvAKeAAqxqkFCIsnUQJ21rhNARWa20cw29NDiWf670naF9qSqYRv7/oGCaGHuLWPI0HdhAzZWKQ2mhXiCJT31FtJyWtG2l8/QfY3mZFE5VvjPFwHOdj+aq5hqGnVPw+N4tv+MUQHkKs8b4jfkjStRi/jzVo/dg41TPgHf/U0EB1zuFpBoSiJN2LAkHBJVvozkjacCFFEyhcIrjz6D8DAr1VE/eRqtmUU2to9ikaeyQytY6imjduJW0w0dBZcwNb+vRN9K9PaggXYeSqV+yXDxF1h81Rs8Of+V9+O9MAY2GohzSiYZzAmtOEHRiY3w/1aTxYONUz4B3/1NBAdeDZfwRGICDOIrmZvrkNXr8Vu1LUYFMCuVSIJ18fWjiX8Xmt6i5nhBTzQG16ByJqD1FMfR1QXpPwsdAeZH1S2jMdeTvJUMZKpxO/l705kTtwUZCmv3bf6FaSURZi5US4XfkyBhRc1vL0lNLIA82Ti39vbufGgoYbYPTMllVQJ8VEnu32q8UySF9KZBh+TKdgmzdP5Uev5M2vWtFmmNoIiwV6oNYaOOo4lYE0yYMdugEL0l6w1J65KcUTHH6Z2p/FoWTaOlEqqtIjDUJLuV9/G9CATeuRpBVQ6JOcE0aIVHf7LuwZjzY+DdZht5jnkABFziQrwMzFcoeq7ULrcduV7508mfTgDRdkCLuv4rWvSpaqx1LKyEVWQKpn0Jzbo/pyoV9jNq4J1y/3Z+SaMMy9chPKZAs+mWTP5fyU9Syf1BtxXeCB7Qbqff2O0IBiCKNNWrzu7RyOq2dTeV7WGoh7nbdiYTyLQ3fg41vidDebb5jFDARt8jxIWVBiqs/pBc8KoddSv1TyJ9F+T1oQK6cfb9q2CuEjRKFgntBchI5jAZ8mEBbhSIiiTezItq4TI67nnxJCrG8ORRKkUsnU115pz6R7xjBvOF8ixRwmiutT99QE/+iR1+rH/s1LX5S1O2FRixbSaF+zal9ebBxaunv3f1UUQBZ25ytjfR/7Mf9G9TU+yg/RwdSZTCdAilq3M20bYW2JSBCCXi2uXyA8W4gLNJUE4C3UnI5gQTPoiRtfJsevpH6J6lQlgplUiCFlk6l+iNeJFUCkv27fyz2rNPP+7jiWbIT6k2jr6eyRcKKIp0Mq/AUv04RbBgLgdLcc5vbeGvJTSmM7Q5fm5ABt6ATf8CVBSHUmQ8V6ja0HSYlpgv/MuHNddvdyk3oSzwrPHI2PKLe4bF+r/y5+Vk74yNO5F7iXDvdnBPPM2dJ8yQUrIqPxBRVMontx+4Zf2y3foo7iGPlvfnMti//BSOK2+kofuf4qHD/tsvHKRUnDI+m3ZlcfQN0ZhHfndz4E+C8duca2n/9f7HqpNERlKM0iY1v6vG/oEC6E063QmmUf658ZSg1ViDRE15w22L1wmAGEjVQlxBpH7wc4wDS4f2VpA1LkCTYP0mFM2QonfyptGwKNRztzLbFD+8GaYFRtCWwgqTmD7MXcE+sI2MOj9O0w5Ek+BB5jlw/LT7f5lJmOtzJMcvp2NWPvevoou6PeFRt73F1lG1wZy1+BfOn25Wk3cXiv3OjEHirtCVWMqNwL9TuN1/3rdusmVkPtnH8wfF7pi6GGR9A2yft1qf5vu1hzCpoY03mx/y8/NlXDytODHN/pde/SY/cSvf1onCaDKZSIIPen6xb6t10VMgsZgnEh4T/d24q/eoxfP0zThFsGG4JpMAGVArFoYRCHzRBSmouMCUg59ms/zNXw9pGihY8k9gmppQI53IjctK02wQjMCm7sFij2EiiQymtpUIuOM7nCyAck992Qj9eSpxOLBG6aWJr2q0vnnZ3Y5hzpRQSJUs4W5hn2+VWmPoOWnFg//Krk1F09hV4LBZhnCaGf2O/ufuA25i2Rzy3QjwPkY2nJn3Nra7U2b06+c4Mw7DTOE7wA/Md2sElUwl52rwX3G3AdDIfSs6MwNaOv9wnY0aGx+zGi/kiSpnh95oc5dCHU2n0T8ifIcDZ02jIJbT8BZJGI7EENcGlYabPxODqKCpM8Sc8j+DwHb8U0Ya3aey11D9FBzN0MJ18abR8kmqo6GzwoIi2TdY6l6/iVHbGDJ5hVpXiwb/oC2bKHbSjU8ej6eBTQdhyXEgH64ZnCNXZsK/ikC2xV+MtAAx4dnCl+EegqsZ1dFt7RNBZETLqwfLbJg/jxRJA/TdzL5O6z4uSF45b7QWFILUgrv6Dwj0u5eN37Nr/FYGRoOui2y0Ll4Nw4mIyD6ndtuYx8UDj92EeYGDD2C0ZOQyQQ5Zwt6Bbqyj+q4T/P7a+kUBk09o3oJ7600QggwK9KJBK70yipkpcH0RBi0muosQ5Q1wjk9lRZwsq4b27/sWpgA3AJLab0BST1GRRfUTXRQhHq65vthuarfqGSE1dpLohVt0Ua4zELNtCvCMABo5J3hlc3ZrZfEzo1qhubpVNLaKxxWlscfgNv292GnDBDo66Jrumyalp1XUxahFAALTZkMxbE9PRLBaXwYF9mWY8DtfEdjClZuExFzTc0rV5Y/EDLzgnGe2bsDI7QA3c+1+BDVujU4TL8lE1hfMKMCrXxoL7mpG541M8qCgeAWuRqeueo1Fxo1svvjMYkTtZfA8LQYWOQEChxSIBQ3a70TjokCckTyu2Rts4sV0sSPeMRoZ986XNQLs8RGYSRkrBEB0Ro/cm0oPXkC9dB1KxUUf8iNbN1xqCC0BFt6LrkiNRe8oVWxBSZYoScle/xITqFmw4iNyPIW9d2zFEbbmSkeFU4HFKoKcL8z1DKHSJMfTuIj3wK8AGZDQJm5xiaUzEUDeFJ5A5FRda40t/1X1iIBPCB1jGc+fRVHjDAHFJjcJdICwvUFSqR0tNADngCePQEk2uzFzjEsplkcbg4OodXXxSczpzoPa7QJCytI4h3sHIkG0Lr/0bLm0t0KMRQ4SVk+dEsByGkQMjjUBkiKYVt+75OmM8ETY+fQPqaV6qFciRoUwR6K2WPS+a6rlfixZczp+0hWGjsKrEUNqJYl/njv/KOacCNvB8ltCywVJfVEU+/aJ25ZaqlZurV2+uXlVWvXJr3cot1SvLKj4sq/hgc8UHm8vX7KzYeqShusUCYXi3gBFitUH5aLb07sromh0Nq7fVrdpau3JLTdtxwp9tn5s3H2+rWruj6pPPa4t31e88Em2IAjmYmXeu67mLH6qCkTJYH7K1dKTRl3jn4jteVyhdgZwy/ktrNOEwHd4sCDqoM+NuyxNmMdHnJ5z25T9Z0AGa4eJme5shg/Ng53GJRSm0YBaB9YaO1loJrS2jzGle/FiFpqrfl2/ylZ9o8FmKMtdFgSaT2WBYgKOFg7srtDKJk9HQU3CvE7CVtu3qapHQHSFfsYhl+DYzICN+fuV4vnwC3BncEwVczLZb1dInafgV5EulYAYFs+Wo62TZuy0c+Ggiphg/SCL2ljVHYZFwtMNSsdm0X76J+aRbsGG55Ie0YVIKHQVuISBAcfcvxyHlSHIcY0dzJZZEg+jsc6liDnv8bWPo4Elh5g7m6LKjuOyNxgBfKUy4iwdcToFMWFo2W/ncQqN8USMYIJ+NYcrQud3teByoQo12u0isiRsSeFFA7NSIh+76y0hsUnPDZmT5GynHqAa8I4xpFP9KRjCAGMLtUKuUhT+gHIs4jsIj8cNphyQLN2BQ2NhmFX+d8Z0IG2tm0UPXky9DhvqoULYVyNXvzlAtdZIoQtSkKSq5xTDET5soillKIIN+nbt39ZxTBRu2TXSw3lm9s3ZxacX8dVULi6sXF1ctKq56o6R2bknt/JLqeaW1c0vr5pRWL9hY/d6Ohh2VsXaSD7Rq0hSxaV+VtWpHw/zShrkldXOKa99YV/vGuho+8H5OMa7W4TGvuHzep4fmrj08f+3h9z+r2lspYrgkKcWFXxIREisdwOAWQORJM3Kmia6JcznXaGaWYwSTrXhPsqSChdpmckh0p25+rsCuwV1YT7Z5gUVtsizwFyOoMUNgmc+sbMP0DLi4apC7dxXbY7o8Ek3akcI4q1whGVdSRoB2SWPuam4EoqIGZFx809gUGuJq/EA63rHxx1kYMu0UgqG6/mLOAeEDZSudWJNc/BgNvZR8ySqQ5fjPiYy5We/6KEYWOVFyYhzBYqEaieNSlxN3YTGJGRRJAP8YWLdgw9TQNGoGBukQ8r3ANqJCO46SKLEJKVNaRv1hS0XX6cC/kBHcwRj8HaQjA5JsIsuRMAzxUorTHEYUdDtOrF2hRotbGcPoFK7SCdYGPdhEIsTQlMaxoX06rJSI+Ozjb1tBVYnxWkahMNiTpIMoIh3DG26gpVtJRbrxyKY2DARPsBFGRiPRsKHULLM28R3PbTY9BDx4uPgv3j9mz7BNCl9CqGU0kY7G+u8+bKhP5uoxN1FeKoWyKJSk/MlspDqKUtwqymAMHI1holodarYI3YIS20m7QaTOfnIKYAMrSYqopG1HIkvWl88tqZq3oWFead284soFJeXzio8sKj26uKR8UWnFwtLqBcCS8mXryzfsrm+OYmHxNsdkoxdsjDbtb166vnxRaeXCkgpzLCipaDsWlpQvLDna4TG/pGL++tqFG+rnF1e/XVKxZX9LS4wRwWjNCYiGxcQLhG2sFuBAR0hGwFykhY4b2mYZFnYLlgnj0hXzRMRrasg2tlBssbG+YvslGEYnH8d4aWMBGVGH167NQgqMUExA1vzZRADLDyevORESEXdRSgtD5OrfMXN+J/dL8BWbxZnNsaTIpjmWyhiIDBlZIDNmHiOv2SRs3BoCJtf6aNM5sFPjpJZRcFBwNdj6/oWtwhyM15OKNcoFD8Of4UuGHdmfiTCqg58gT1fDSqUVlA0svnhxEdjpJT8RRAAbNopEr27BBq8Uhy1HsM+ynsFzqrXFiw9PjjEh+VBrB6jcKSdPNDq2fsHsigtifeD6LbxgjPMNyG7kC8Z4qGlsYOrkgqZ1AWbPKJTm546kqM2Si1FnDExAoIdh0pFSOco1W6GqpNvOCjU2BMViAG/EnnJogqun8ALrZBwJvoKF3DwtDI88sfBSSgs9fbk5J34YV4SNiy1+R+MAbUM43tHS0TpmmvW4zMF4b1i6TDCGEz4+QdtQxQvVI7fpvCQU6g+fScFU+c4U0VyDOQcyxVhuNiY89s8AfKXhTSdc+WT8eQpgA4+B4qO0/Uh0SemRecVV8zfUzy2tnlN8dF7pkXnrjyxaf3Rx6dEFxeXzi6vnF9csWlf1dkll6ed1jRE0U2KHAtavJKqL0oY9jUtKDi0sLV9QUr6g5OiCkvKFpfHDYEbp0YUdHYCN0poF62vnfVq+ZN2hzXsbDGy4xqUExDbsDaNgCyxLQIZ3sMgHT5VFLfVUd5Sq9lH5F3R0B5XvoMpdVHuQmqu1HTGsx+x5I8QkuFW3P45ACkFKmuHaRLEotdRQw2Fd/bmu3KErdqiKz2XVPlF/VEYaJOzjsErBV2nuCRMtgNn0oevGOLTWtrC4EjmuCbEVEmKMRDNFaqnhENXsocObac862v6R2rRcbXhblb4lS950Nr4tt7xLn6+m/Ruo4nOqP6wiDdKxBNcZxPCM9Y9lOtPQhCMNujFGg4fsBNKSrCY5bywNvpj8KeRPIl+afPQXet86NAZXpCO2bK7VjYepdj9V76WmwyRatLG/YDw2J40n5tndhQ2WXg02WDZV60OfyW1rWis2SasanV043MPYVTg0A8oHVlfXX8b+w/xbO1aLKN+uvlgR2/exFatl4xArMmyS5b0Lhtq2WDq8WwvUCNYPpTKIZlLqbSwD2BuldLSIkNNEsTpqqaSGI1R3hBqqqLGammsp0kCxVnJsWIjwbJDw4wqMwVOsbVCgw9t/1YdKKcfhLBz23VmMRaxnOyRbyG6iaB21VOmGw7ruoK49qOsO6/qj1FRFrQ26tRH9u4QNtIs7XhhKGRB5z7mTACKxS+arxoNV1jZx7BIXn85Tj9xCwVQVSFKBM0R+Ln04U7U0wsqsHGE366Zaqq+h5gbpxIzHD0arrzQefo2RfJ1TTglsAMYtRXsqox+WlS8uPrKwpGJBacWC0vIF68vnlFbOX185v6RiXnHl3OKaucU1i0qr3y2r3XKwNWazpoqJMSZx6GZfHGn5oKxifknlPPykfF4x3vNRAWBIfCworlhUXLFg3dGFnx58f9PhPRUtMSOKgxG0zeGJNGTPncRiY1nPlYYtWzU20b5NtPEtWvmSWPyEPXO483xATv0bTb2Lpt1Fz/vopSI1b4x4fwpteJP2bKCqwxSJGi9Kt90YJw6O/8Y2VTEs/YbDtH8jlbypl06i2aPo5SE07W6a8ic9+S9y6n1iRoHz+ij51jO0aiaVLKLyg9RQT5bV5mlkU1w3pXkNFYzFc7uV6o+qg5ud7SvUp6/R8mdp/hg5c6D8Z0g+d4+c+D/qyd/q8XfQo7+kR35Jj/6Kxv+SHr9DPvU7Z9Ld1oywPWekeLmA2hQAACAASURBVOdZveZl2vyOrjxEDbVkxRBpyJIxByawubJDQnyND7WrI0iyW9TcMTT4Eh1IdULpKtRbP/Jz+mSWs3UFrXrNfnNidM5I8VqhnlmkZo+hZZPo81UkI+zkUKRs12qR6I7dgg03Noohl1qPUtk8emEQPXa3fLGQNrxFTUdMHS0o3QALuLO7DRvYUQKWexmp01tW0esP05P/oyflqY9e0bWHEcfAxnojWMT3RmKYhNLCDjwToMzbldWmZm2Xo6XV/s2y7APx8Rtq+RRa/BjNfZBmD6HXi+i1gTRrMM15QC58xFk2Wayerco+oL1lVLFfRCKOglcJNHeruWATdpYuk2g6WHkSwCKbIlXUeFBVfC52bdDrP6BVC+jdGbRkPC0eR/NG0axhmPFXitTMIfrVYWrWA3LeQ3LRo7R8Iq19jcreUXtKZdU+3dpAdgwHgASTYCI9cH/j4Ew8krZvToANZ81s9fCNFM6QwXTH11OHcumtZ+nztbR9Fa2dRUufVXMeVbMeUQuetFfMUF98TJGaYzdtu+hJe3NKYAMCqNC6NkJbD7V+uLl62YbKZZtql5XVvv1Z9dJNdcvLat/dVLNic+27m+uWb6r+aFv1poPNFY28KxiW2/iGo6imWWw50PzB1rr3t9S9V1ZjjhWba9sddSs2d3C8X1b7flntirLqlduqNh9qrIlKuMSNNh3fGR2R3fjBeT1o0nYzVWyjkoW0+Bl6PkhP/VqNvVEOv0INPJ/yz6JQDvo0hHMo/2w94Hw5/BI15r/o77fTc3k0f7wuXaQOrVexxn8lbqqDETbX6oNbRPEiuXg8Pd+fHv85jbhaDb5QDjxfhXvrYBahjUQOFZxFgy5Q9/9Ij70BQ3plMC2bSGXvUOVuZUWMDg5qcIRnB3fp9CM2xWuqPUSly/Ck0/vThN/QYzfTiJ/oQVfIQeepAefo/FxC4ls6HxkUzKJgNuLTcaTrYLbM7yOLLtIP/hc9fDM9fad6dSi98w/a+iHVHFQ2iruBb7HPstOxJPzSODfYMSJJtKq5Y2kIYMMKp6tQFg2+UE3+qzPxThp9jR52mTP0QjXoXBpwri660B51gzNvLNV+wb5o+GyMVybhnboFG1yZ12hqkg6WRKb3p4LzKC+HCi9wXn6Q9qwlXY+GggyhjrZt+hcqFkkLlX016cPb9bwxdP8V5E9TobPpsTvsncXUUsd+FVdoc+ECymziFxRW3qbGd+W0Uu1e2vGRXjmT5gzXMwJiwh/kw7fSgz+mYZfT4IvU4PPV4PNo4Nk06FwafIEedqkccY0cd7OecCdN70+vDaUVL9GWFVS9S9otELbMPoXs1i3PlmNR1QG9+X31zkSA1suFNOU+9cTv9bif00PX6wevovsvR+v4or408BwacA4NPJcGnkdFF6ghl+hhl9GIq2ncTfKp/45Ny7PnjtYrptKmZfrILmqphbONYcON2jBRPInp1PbNCbChPnmDxt5I/nTbnwGraV4KPXO3/WKBnnQnjfsp3X+FPfRSOfxSGnqxHnYlvVhA2z+yLPSL/HZepwQ2jOsNDKk+SvsrozsPt+w8GtlxJLL9cMuu8sie8sje8tZ9lZG9la17K5oPVjfXtti26bwM9dgsGdfLYEuqaxEHqqL7q6L7KyP7KlpxVEb2V0b2V0X2V0YTHfsqo3srY/uqYofqYrURiSjuuAbe9n/AB3MXtvewpReRgsAMFRO6cieVvkKzB9BTv6Shl+n83iqYoQNpmGZwwwzyZaExnK83+XN1IEuGUnU4iULJOpQtiy7XT/6GZoZo7et0eBtFmpAXyBquuWfn1gZWBcwKgTzjSqZWhA6W0Uev6VdHWI//xhlyoQ6nUTBJB1JkIF0Es0WwjwrkUiCbg4VSKZAk/T1FoJcMp8iCdIScTvwjLRhDG99U1fuE4/CAYIxpZ5IAkY6BSuJFivCCNQto4r006FKdl0p5vSiQJvyZqn8WBTL5yCCmlQ6gp4UMpctQJpADwMYJcXnJ2C390ygvE5QM96HRV9O0P+nFY6hsOdVXwS1rzOcmIwCDgUSCWWNuxendCYdolhF7ayU5EZo7hoZeqoJpVn6KE0pGt/CB54lQGvX/D8pLwmz6c7Q/Q/fvIfNSo4//mnavdFSU9U5I+50x0W7BBkR2hR5SFGtRZUuaR1wNGgbTyJdiPfprKl1EohYPyJNhaXiJ3VS6hE+c+AsdZc2JaOdaOfkuFeyhA2c4vmQqyLU/fkPXlyPQ0xA7LlnxX6zqGI1b2xzwwF/DLcH6oIRTnar2UNlb9NZ4NTlPjf6lGtRbFmTKUKoKJLM9MAVBz/5MFchGKTA/z34ghQJJKpikQikUTqfCPjTyRpr4J1o4itbPp/I9iNyHUQCWAU40YQMbs16WJ4xrAc/LW9i1HvD5BGPO0a207Ak56S/OsKupoDeFMyiUrgMp2CmhDDs/U4QzRChNIc8uFbmZ/jQ+MpQvg82YvcjfU/qTrFCWKLqARv4XPfsnMe8R+vA12r9ROI0OUsLMkuDpgS3L4Cc+jK9Z9xMzKyfABn06lx6+Reala38qBVMpL1UOuLBlYF8nlKb8SSovRfnSMOxgT7rn/9Cg82jZk9HGg0z3xLP8zX1zSmDj2PCNoK34Jfll3n/5304sOSYi8Ms/6fwTc+u2f4+NCUvN5eBYblJrizVarEHYqKQSoqlBbltLC8fRI9dxP4Y0GeRFFkyhYIoOpepgGgXStC+dsM6y+N9UHU5WBUk6nIwl2I9BJb+3HHuTnD2CPltONUekRLATLA6GNydWeiBwYX+gDD9iE4Wi+mqkIs8solE36MLzVDCd/D2RfxBKVcEMgsySSX4cOpCpQxkKbDpVhlJUMEmHMWzypaBp9sDz6anfqLefcHatUy1NULkpZuJ2QSJWuhFsz2janmjt32vSMWnRzBE0+CLypWlfKvnTKZjphNLgc/YzpmJI6dqfpvhguGWaYJAZ7kZl9NXQP7LAtfNSRLiXGtyHnv4TrXjFOfyFbUXYdQ+vJudrS6JWDNl1FyeMzjSKJTMVTvmzIzRvtBp2GeYxnCzDqSicHsigYJIMpQDG8gAkKpiNsflSxJjraecKSzkc5OOm8bSnwHHvuwkbbDknotZ6MJFh52l/hgr2RifzB6+ij2eT1creDSwYNq92S+42AwXwsZ1+62p66g+U10sF0gRieDLp7WcIBd7j4YNYk/BPMGygXTKADf+LSN3K+4VM2KCUSrU00xfraMnj9PRv5JCLJDYC74hgJoUzdThdu3w5jfzp2qwKzDgELx1MVVi6aSx+ZcDb5E9XRX3p8dtp4XjasY6am534TpFIveWgAMQGYI1ivIzkrJe4yRSKg2d1azOtm0Njr9WhLNE/k/J6kr+HDKdSKI38GdqfrcPYEbw70mUwQwUyMDZ/mvanKyyJNAolU6iXCqa4w8PI04BtI26gV4e2bF6o6vYjCA0aF8MExC6QSaNkJuuHGN5xAbMnwIZe+4Z4+Fbpz6ZgsvSnaH9v6UuTgWQdzBbhLB1Ip36ZlJelCzIpdIbwpdCcEXbdXg4FPW7pnaQ/TjFsgBF97VcnJPja10h44vEXx6yCdyNvIWbJFhOWasMq5VD1bvXpP/U//odCF6i8HKugt1OQ64SynGC6CKbJAJYX+VhwLsjRA7LlgEwZTMNqC6dRIJnu60n9UiBW52c5oZRYMCs28Hya8Dt6f6o+sl0hOZeiLEp1onBgk9sciqVtsmwq30fv/0OPuqp50HnKfyYFe1E4WwdzqX8G9WeJKZwWDZuMhCzYzUK5KpSLEwI5wBJfhgqf5fhSbX+GwFc5auhFcno/tqFDqGe8BHBDvEMUB0r/SYBpgpdWUNinF4oBZ4tQuijMosIsCmei1lP/ZEhPIEgGhbIpmEuhPhQ+h/L7UvgcqEf56ZSfiSOUgXOwUTMpnGUVpDt5qQLlY8+jvLPE0GvEnAf0/k+kaLaQeQEWwkkcAkFgLiwk1AE6gI25LmxAuuyXRnlJwn8mhXqxTJeuA8kUTKZgOgIih/aNTPuLOlTKmURsNj1OcPwSTf5F2Gip12vfoKHnki8dyqI/mUZeTZ/MISfChnSsUsyEkfG/dPOv9UH3YEOL+HOzp9ZIEoIr7clotLne2rRUzbhXD71A+ftof1/yZWPe/bnk702+XBjcfDlYgaEcJ5TREkhtDabZmHEuEuzPJV+u9vHJ/hwKpEp/lgieI/zZash5ckaevfFd2dhICmEyOgYfB9RH46M2XIU5McMG4AwHUoVQWVa+N03ln63697JDORRMl/50O9hHhno7wRzbn0l5Z5KvF7SKQDrr5TAhKH8qxJf8XApma1+m8mXKQA7sz+F0CvUUgTOcYBKFs6nwHGvs9fTeM3Rkix1ttVjn4FtjdEqj9jmI5g7o2OScABvik9fFuJuw8gNJTiDT8eWCewR7kC+JAslOKFkF07QPsimFs8X9P6V3XqKaBoOUxy560t6detg4aY/21Rduw5ATT4UDkNNjISK0CIpAgDUmkfJdtGQijbme8ntRuJdzX5rsn4m15UtBplgoB9L60CvpwetpzK00/pfqiV86T/zCHv8bMfoXNOgqCp4DCW5AenRgWiQ/yQr0AFvv958U6EkP/VQufFwf2Ua2sBzk6/FSP3Fo5m8OpueaSJGos7tMvPEQDb2QQgjUc8LJViBZ+NNg7cnPpsJsNfBsPeRyDOnx2+ip2+nJ22n8bTT2JhrxY4SchvvQfSnME6EVaX86Wgn5k1Fu79Fb9IoXqOIIiQgn7AJItbbBLhDRkThkXiuK1NC0kCzIcYKpdn66CKQ4gYzWQec5gy/VQy+n+69GdbZHb6MnfkPP/lFP/qt+rh9Nv4+m/ZEm/bd44vbY2Bti919lF10oC/rw5kmBPj4wm4Ln6Huylb8nBX9AQ/rql4v0vk8R/8omflh03DhSTsMD2nf8Mtu2nbbRSnNGqWEwUoFuobOpMFWHfki+nhQ+Swy70nroFvnwHXr0z+XDt1nP3xdZ80/ZXAeViwP7OgF43P5fgQ1NaA+1ZjYNPkf7UiVYajI99GNaN59E7HjY4Pjgjh/3qz7tJmyg7gCLzTZ4t8kNlbEWIoo20vvTafwvIBnccyb1Z/TNT1fBXhQ4U4d6yfwMWdiHBl1Aw66AkWfMtTT2Ohr7Uxp9HT1wDQ39ERVdpAaeIwuzVDhZB3uAg4cyKZSmfT0xKYW91ZO/UStnUqQJGiV0TpNAwxlRrIUgb8JsIZb5eRqE1tqpOSLffoZCvem+Hk5+LhVkcg2PXIl28Vl6YB8KngUhZtDFNOxKevC/aORPaNRPaPRP1IgfyWHn0+DzaEBfGTrXCZ7jBPuIYLoMnBkL94jlp1O/ZLrnB9jLg68Qs0bowxsQms8uHrOZEUGGaGo2IxxvSzgRNj6drR65kQJJlHemHTpL5uVCFsz7D1SpgkmgLz14pR52hRx0iRhzc3T2SNq3TttNmMZv5fVvDRuJKcxCgiAbJYksTQIeWKmofDcteIwe/LHtz5T9eohQuhqYC2n03jOof6/ooItax9+hXyui1S/Q5x9Q5U5qqqbWJt3cpA9vp53v07pX1NwHxCO/puDFdG8OJIWCXlSQC9Xknp7anxEbeY09YwDt2oi4z04XgIVocwSSiF2brZful4Vnq/vOEHnZcHQHz6ZgbwpmyFCmPfgS9cTvacE42vCG3P9ufcXh5roGp6mBasvp4Fba/B59MF29NrTlmT/Jwr7aQAXsMNkikGIVpOrCPhS+kJZMoJpDrsdAO8hqhOatiFoTERDZ8HY9YgQKc9g0nA7bzgNXqpcD9N4kWfqB3vQxfb6BDu6kqgPUWKlaG2SsRcQiorFF1tVTxSE6uI22f0CrX6Q3hssJv4+NuEaHs9Q9Pal/mhNIjRalyUEpyp9GRVfS7NFUu8+4XDTyz1lF5K4YLIR3PMb2sAEzudVKb4xUQy5RgVQrmBkN5FBeD7ovRQ++Tk8KOu9Mlds+pENldGAjHSim2s+hcplwLlsqBVk3oV7zDcBGnV49Sxed5cKGLwmNAksXHYvgYhEDvpBO10zHhDCfdgs2ELMN1xAimnBnzl+Hj9puoncmAwDyUrG2A9nK10sEznRCvZTvDB3MoJFX0nN/pIX3y5VTxPoFcuuHalex3reJ9m5VO0vF5g9FyQK18jla9AA99wcafZUKZ9PfzhR5qU4gCYUgw30oLw3r6u+/oE9fJ9VKkmIMG9g27FUwtqBjsAEJn/NxtUSkxtJnqPAc6tdTwobcSwXTrQd/4vz9Dpr8B3p9UHTF87GP/mmvmSVLF8hNb6kt78hty8W25faWZfb6hbTqBVo0ip6/F3cfeTUNPl/l58hAGmxcA3LZtpkj7k2JDf4Rvfl3qtwpkPhHppgAoAuh7TAmQW9vN1/H3nMArv50Po27mXw9yHemGNCX8nLpvp7WwHOsh2+NPR9ylj0DH8/mZbRpGcyATZWKLKWatALn+BZeHmx0RGSWIpHmhU2gW2PQbalqBy16jEZdo8KpIpwLaeXeHvpv/0/n58iHbqQXffTpfDq0Gz6GaETYiE1h14NGq4ZYhGKN0qq1Wo+o8s20do6emk9FV0PV8KWxNJ1J/nQZSKYh59EbD1FLNbhS4hccmJqcPZvsmcNU0QXQdYJZlJdp+XKo/5nYUQ/+hF4aTOsXUs0ux260RRT10bhYv9JSKMXJVRbFmqi5QlfvprUzxbSgNeQaDZt+D/L1VP0zlL83hTPVyKvU8udlzWHOxkKil/E6KqSgdfxSWjdaLXpagAozXX0/3Jue/gNtWEAtVdJq0E4TBmOy9txMXZjATGaVw6WptKOQcdJYo8v3yG0radFDsb/fqQJ9yZ8igz2jgTQV7EPhs1CD4YOXY7oVXQicVhME6Ya7dcbLeeTYt/xA0RaaPQJxMoE0GU4RwR5w9jz+e1qzhGoOUbTFFo4tY7ayIlo2c2K6EzXJcZaCf9YIkB1To9vahjvEplq16nVIwXmpKpgDM8XD18N+CAIxtzlFsOHAlAr2B/MlzFRIrQBmlCygh39mF54V8/e0A0kyP5fC3F636KLYs/2tlW+qLeuoYo9urRFOiyOi0olqNECNkGNrxxKOZQvLdqIyUqcq9jjbSqzVi60XCuTwy2Qgw/LnCn82L/g0uIKf+i19/jFRtNl12cM3bnCMbUGGPpwbjIGy46P2sF76lBPMgL/Kl0X+VGfMdfTeZDq0ieoPU1MN8q4ijdizFtfWQvUWh2yH7AiyTGINKtKgmuuoch9t+YDefpqm3qNG/1iFM6nfGeRPtYM5sXAWBXo7Y35tr56rW+tMjjtieoBjHMLCWZDtl+cJsEFrFtLo27B38ns5hbl0b5oM9nVeLKCSOVS9zXHqozIadaLSiQhH2Gb9qSgn2SRYhN/ox98V2EhoL/pGn/brXoy5js3yiTIBIrEqWv6sGHO9LshEqTtfOuWnUfgMCmfYz9wVW/UapOOWCiEbNEU5fRiSLkxdiNuICeRSuNYTaUsnVk9VZfTRNGuKzx52uSxIolBP6pcq+yVRUYZ45DbaVaJRzDvhCwuu/HOaN1oPv5TDUdKpXzoVZpCvpxx2Mf3TRxvmWHV7mp1IxPgGBWc0wX1u7G1g/cz94beQdgs1VVDFLrHyZXrqTgqdA4dbIFsGUyPhlJg/SY+7hVbPFM3VwDLo26h50cn4OOvRoedCVJihg70ErLG56tm79fZPEDEbZ7LgOUpxITaU/AHrcUNjQC3eVPAmAWBi9VR7QO38mF4ZQYOv0P5esKGBfaTbBb3VM/dEyjdyQgf3ajVpWNiknWKvkUUNDkZbaNYIOfhiFUiDWJCfooeday8c29xQBUez8WuylIg0ZbP/UccoJtFO3Har/iearm4aqeL276YavfJVGtib8lI1YKMXjbuBNizlfEzDFs1zdj/xEdwfk6J1V1zifD92I8FSh0KEjhR04DOa9DcdOk8He1NBpsxPjoVT7MHn0hO/pMVP0+5tUMFjzZwuFw+kbzPHukY/3ilmlUiHrBb4yQ7toncn0T9+r4ZdJHypsHoF0mUwxx5yuZr1ELXshdAA/Y9TCXnG4BZneY89cmayDWwcUsuetgedxbblbMrrZT3yM6d0oYq2oOIZtFWLM76R7sqjAGVAHhNPKbWjJWcIaseJqcZKeWinU7xIzAhR4UXUv6cqSLKwnc/UhRfStBBtfR/1F7i5Cy9HUwkN27Az2Fg9n0bdSr4UnZ9sBVPhDR13B61/UzdVMKm5QoJJm+fCzBwC/u1lbniw0dFedxeJhPCLCjUx2rzIevyXKj8b8+dLd/LTYuEUuv9Smj2YdqwQDTWI5AFnhoLh5iIy12fLr3CjG1kgMjUTYISvPUDbip1ZI63RVyIcK5gNd1wovWXMbXSkDJEhnbyaGhDiMvYaCrO+4k+nUKodyhYjr3TefVbt+kQ113HJGnhk2FmKKkJct8OU7ojH1PMtEGGCsA+HGssR0/XSMBp+HQXOkuEMO/+HCMoKpNCUu7ABYhFIczImjO8n0QgRfmXT1KAekOWE0+xwBvSzZ++iz9e6IViuwgKLgpsGzLK7RDckSO4mFtlgm7EGWYooEqPDW9Tc0eL+K+GdDqZwwFUWDbtCfDhNy2bYKKA8wO3I3tqvDxvNNOtBAxsca5tLD11D615rQekVQSqqFDy9MANhTQguTBt1KGJrCyqSi8AJyNFN2DBR1hry76rXaFBvFrGzYdkfdyNgA3XNXdjg4ARTijPBGDr/uFuwwZGvphyJIbtNtQf18sly4Plu6HkgV/pS7cFniRf+6mx8066rQk6ccdu1n2AsRlSaskDcdnNvZAdT6TAaFQ31VLaEnr+LBp+L6MRQbxXKjuXnioduok1vaifKcgKSt3nq3V6/LODjsrwduS1DzSG1bIIY0EflpULY8p2pH72BSudTtAGBHphhrrEZBw380ozEXAVIgug7UxsAure0UIVh1zo9bxwNvpLyeqrCM6Gy+7No+GX05iPUeIQUos5Y4GBJiEMR28uFx4QwUzh99Swa9VPKQ0ywCCQjlGZGgS7/wuaiDrC3YVScFu4AvlEbzcSVdT7R39C33xXY+IYe55u5DDMbZVAd3OrIdjHDLwb1QQiQCbbLz7AfuBpizoGtKBLIhaVMEIf5111gRmJyWbThOOCKLpNREvXH9pbRosf0I7dQwbk6lEVDznNeecBqrkJlILPUO3ymTe+JCX+kgizimDwE5OWnREf+mJY/pyt26VgLmJsJ2ECRH4SAWWzXckNNoILEgypZiuIiCAhjVLF69cUaMfche+R1CqGQPeHnD/RSQ86nN0bS4a0o1YaKPp1a0rWGRDm1Pw3IlqFsduRmI1rs8w/QQILvbUrLG0JhC/CnXFiORTvIebCB4A/DSdxYeEfvXkczBtPgS7kPQQoiwQoyaEo/qt8XM6dq1C7jfdh+Y3ZER1yfjVSRZnr9QVl0MeKAuQIuYGPjEnhKMMSIoyUADwd/pASTgMUElK2SCrOa4NUt2HCnh06Ajaw4bCzj7gNMIuNiQKJ4JysmwdjMx92DDRtWqSg4LTiXsizatko+82ed15NTl1LJlyIHnofk1g3LdEtzFPqA2+CEc58YQJilcxsFzrE2wAydGIIMrsuLQ6EsD8lIC6xzU+9RRedzpFMSBZMoP0vOfoQaKlHOBLXEscZ5MmxuzmCmGNsB60hrXXuUlk2Ag92XKhBi0FOMvZHWLULulHmWOF6bvYzfmanndcgr0hSSZpTDV1yMx2rVBz9Tr46kwvMxKiT69NEFOdY/ffLgZgSVcEVoHhgi/lBTvd2cnAAbcvWLcuSPuD9xJiSkQE977gi7oRIPxj51Bi3euvA6ojORiyXtrnny3p482ACXNPk1Zq+5pO9gI7uclkUnrBKFopg8zTiZBRAzN0bC5c3h7lFmwO2pfyKlXD6Cq7nSO2RXbMkOBhL/MaeAKRQa0iQcm5ZPsh+4ShX0pGC6DmdjFoddSrMeoD1lcANCboJ0DcupWXA8eP6YJWfek9gy4OXuBo0bYdigdWgbvfeCeqFIT+lPs++nzR8KG6EpeK74A7JhFHZbPEV9Bc16SNx/GQItfKkymKXyM2nElfLtp6n6MNrQMc34aUz9djysqVNnCOs+O08MzIMc7SFQiJHbVtn1Yt9ae95D1uBLWelG2of2ZelHbqZPZgq7ARa3eMOeOM2O/7/WOtpEz92nC/topFxw4siE39POD9l7DH7BOy+OGuDFOAxZmEam1rwxEhgAhP4F4a6lUZcslU/+ATszLwWeofxUGvET2rECEW94KGNBPm5bHj++OCdglgTeFGnSrw1XRRdBfUFgfoYYfTVtXI5LYBqAQ3hjCMcCgIv9ZoJAN3dJfulG/MNutGliqxFueUzbQNg++Xuhgc8GwAbA0XBV3MSEDnVw/6/zkSGc3rpaPY28DWSJBxEzDe9xorwNbuzkwHeHgtaqtoLeetIZejn5eulQMgWSdDBFPfsHKnmLmpoQHs0Vxnm84N9coVBBo3dn393HppeX6b/BZl5QHTFyksusNTXJj1+zx98qAz0ocAYPNVk/+gfa84nlxDj/D6I4yMJzhouyps2zx09ZV05LnwZs+NNlOFv5U8Tom2jdEopF2laboZi7lBgojAGChTEz4Ph64JPgqtCK7CjtXK3G340kj7w0FegjQjn2E3fo4oUkWtF83sUz2MpYqz7GhE6EjZXT1YjLkOvqz6Fwtgok2wvGOI1VeCh+Lo4/aHtMbs1iYPfrTPa/fM5JhQ3YO137jMsPjrGF+PbmOQGfM+UIwDsESgGztAiqYnPgZC6NCeIyQ7UgjLjdxhgP2k3x8ZcGlVkmQw1RXAeRQKbwQSLqubwCNkyFUJ8Jv1OFZ8mC/9RI/MlWA/vS1L/Rzg9IQL6LGp6GYSVmHInuZIbmWFRfofZvFbvW05EdKKPGvSVwOa5UhyLRQFNJfhOEjQAAIABJREFUwka44aYP6LHfQ8T296C8dBHM0vdfiOogVQeRLNy9F2dU22BDKJWtnBbatTY2JY/CmbEBvahfFuXl6kHn6teK1OEywbgOMid6aa1jUXq+nxxwLkInAyk6nKmf/TPt+KR7VGLpgYuIo9yWtGr2y9cfoMILKC9NhbJkKANFKVZOiyKVgUUwVPDl3MlEI2SY4nXFakK0Sb02VBVdGE8zzNBjr6Wy9/gREbXpsrTOnjnhnbDkugMb5mbHwQZc4v4kevgmvXEpGC/rQkYW4TquicfQ6Tf8mGCMeutqMYFhAzkBWTq/M9hwvT4aVQtjpGjXBpr4P04oh3ypOpgEk9qwy2jp06ruIPafMT7yVoY/JN5uiyuFmJZrHKDHG9RswLZ/mQ0QQlcNch/aImYWyYFnQWzqnw5HY9Hlet3zuiXCao9Aaw8Fww2uwKzD7HusDU1Uc0S//RTl5yLlO5iq/Kk0+gYqWaKcVle56ZRWHX5ppB7wmdZKenUCDejNybbpMNYNu4reeoKcZsQLQG7kEvW8SNtvoGOwoaRyLP3RCzTiSsrLkP4cheSSTJo3Fu0gGb46HMO3+eHJgg2APcrlqxg4nzlMl4l4grPhtsdze5AUC6sVzAU7lS2NZqnBLMJmPFxA2AiyiXIzBsFCPtbDlw+uWaPhdNBR0pJL/KO9jgtmCSiNUWChCdXabJcupweusSF59SB/uvJn6Edvo5UvU0MFg52bQM5spf0ySHDpL39szKQoYB4lHdHQN7nFHss0QCIjQfE6w4PbzfKtyTT0KgqlQ/vxZcgBZ9M/7qRN75DFmXlfvsXX+YR/ikZrKAzNN2sup7UzaeztMtSTfNkqkKHC6fLJ38rSRUq3ci5k4uc9ebDBzEDF6mnZ0/TA1RAYQxkqkI7I47efjMaaQC1wC8SrdAqhYF08yx5sgAxY8V2EDd6gYMzoIRNroZKlNPYmGciE696fgmzNSX+hLSuU1YKdYszxupUBxHRdctgQbIJHTE/aNqTo4A3PF09ZYw29O51GXkd5GZTXG9m14b7O0nFUV2NcedwWDXf8NmHD+Jm000Dvv0H3X0bhNBVI1b50XXSJnj2SWioNyrJuLxQr1u33z3GwISy98kVE9yKPKgsV0gIZNG+sbqgAh2z/s6+ztU/COScLNrAlXWmEG6ugJZaR+6GSupYKzqpjsY/XEnf2Zucex8MgqSwmWdJjGwugIsZxcCxCGOw+ztQBgh5/2EQtuK8N2GB+wh13LWbOiclphBOpdN0Ra8548mdZgQwKwQGrB5xNrxbR0b08zZJ5vZti1s3ZjNeUMrFO3NAJAj8s165VhGOyIAgRYmerdtoT+1MQBQZEfi4sVA9cSUueoEizyXiKy8WJn67Db2CRY4VOs94B2VVRw271+njUgQj0FqFk7T9TDb5YLnxMR6pgLGI9sMOLgQF949qGCwPcE1g7tOYVGneT5mJWYBzB3nLWCLulDhwqDhudan8ebBybuu7BBqLT2egJCafmKC2ZogZegGwkXwaOQefS20+L2qOYBQ7PxV10Y3yHAqVgEjVh7pos04/4+P0bPxkLSkLnRtAx/CNlH8aevlP403QoWwdRsiz2sp8q9rERE7uddQ22eWLbuHmZJ0/bME/IRsMIbV1DY65XhTl2IEX5UlHD9MUBqmYf6ouBUmBmbNLCw7W9jsGGcYmveolGXYPo/EAG+s/70/T8sbqhvO38U/vmpMFGnPMSuiXYUYXm0W5BFsgBJtQNRWXc4AWOduWeM1iKMCZza1+8d+UUtDPjvCzu1mTihBy0CxOmeT17dbFA2x+mRKZj6VjEcuJVl6G1QLpO+DKDF5KObJcT/kL3nOGEORXcn4oglo9fExb6bqM1GNeSg8e5u1IAAyZXhzAZSsYTDM+B8bMjHFDrqNmftrLp83fpwZ/CUuFPd8K5oqAPPfV72rEKAYiKWrGt2q/GhI944hfKVghBcc32QlELWvS16k0f0QM/EsFzZTiZs9DTaLqfynfDkQwlMsHrm4cNaF2m7CAnOhKtX6wfv135U7jeXDoFeovpYd1UySogdjEzpQTDw8cebBwjTndhIwI+aISbgzvp5eHaj5qAiKHwZ6qHrlUb37a4VjGmg9HcoZibzOS6t1gLMUoBZ5y34cTxb9h4gUghaTyIem+xevFuCv5AhH5I+TmUl2w/+zs6uAXViDnUHP1zGWLAjr8V2DBNw5C7cmCbHHe7KOhto1ZjCuWfpaflUcVOMDJYx8HdvmxrOgE29OqX9ahrkC/pT+Mai2l6wcOAjW4zmmOz/Q28O1mwwcoGHJ9S6WYOt6BYI0rtH91K5WW6Yj9VHaLaI1RXrusqZEOVaqknu4UkevvACQEHhsn6coO4waWwbqxI5ICqPUxHDtO+XXTkc12zR1bu0oe2dHioI5vpyGd0uIRqP7etVhQRgsHMIFincjmq8UXkzpWowHHfD5wCrroRzKAX/LS3FDGB4OoI3Tcox9yqO/zaTWc1WR2CYZRXkFlYHKbI9iv2xsScCK2dTgOQ8gaLWTBNDb2QXnuAGstR0QEGJjepqKtLA89i9EEOKEffHmCipOZDNPkuJ3ihDqbq/GQELz35O9r6KTnolJTwLt84bDCQc8SOgkShSG/5QE24E7JtiEuvB3uriXcjXYsL2UGowwbr5OXBxjHidBc2ULsQsoYm+uJTmnQ3HNTI4kbJQjnxLrX/M6lsGKpN+Dd3DIywO9ASUgpH4bA1zMYxEhH2q8mO/hWOitgIwuKcO0vT/p00C4UyEdgdzqa8JP347bR/PTmO5Kbl7OmxvzUjFUigpFBaaUcf3a0fu1OHz1YIEE+mYA5NvpsOlzHgubBxLEYrPgknwIb6eKYc9ROkA6P+bgpS6xePV41VuNFXLOz4FU/m/08WbLDrGqE5LB80OfvWiqUTnamB1qfvbJn4e3rmz/SPv9KUe1HmfvK94rl+ckaAZhbS8glUsRMaAiYcVn9X2wBKKx2pp/VzaHY+PXcXPf17JPc/cZt64g71xH/TU7/u8LAm/Lb5qd+Kx++kGUXWezNU9RdK8rVhzUrI9Zh/aqe1VhbPpwFnk6+HE04X/nQ58Cyx6DFdc9Ckm3J3V6MMcUPJTkIwE08hW6CMaGUL1WqrFsFPb6QK5pbSJF4wZtbrxSMpnMO55ZxOMerH9O40cqKcIx0xTRMS3y3hN8KoXwxiGpDBtoOoLXQDLX5YFVyq/GlOOE0Hk2nczXrNYnI4JTjR9U4GbKAiA1IwEd0kSe/8VE2+GzbfIMroUqAPlkHlbsgFXPrYEDDRAD1toz1lugcbnNmK+Cj4k7a8R3//pc7rJVG8Np36JcmZQ6liN3KeRCu6tbOvG7FG296hj1+2lk1wljwu3x4vlzym3hynFo1RC0aqhY91eOiFj9LCMXLBk/TmeFrwqF7wjHp1DJp6BTJwI3864OrxO/SB9dpGtWa2nCEU61uEDRgfJMwewqo7RE/9lfLPhVkbpeqy6Jk/qn2l2MWsXLHL1pD/mGRzImx8MkuMuUFzDRXtT1KhbFrylGyqYYkpIeNqP6cn9f3Jgg32sElXId29Qc0apUZdy8XI0mnQ2agqU3A2ysIUnKPzz5YFZ8uBfdXgC9FT6KPndawJUQfQ5Bg2zOTHIrS9mCaFKL+vCOYK5KBmU2GGKuhN+efggh0eA3JpADe9yL/Qfuhn6t1JEEhNNG6n2VHI6Wo+Qh/M4CqYaSqYLgIZdP8l4v3pGgZ0bmgM7oUcZzbtoMZ+N6aKhV5cAGFS2FU2B4nxJjOLyrXIcuBYc6X4pw9GgLw0LMpgCj16O61bJE0ElYjCQNetF9ScuPdJGb1OIhxcUow+fomGXMFVQjNQ/X/Uj+X7M9hCd2zRn3jPkwAbWpBNLRzwzur+3o3y+f6IMEEtuVQK9laP3ioPb2OF1UHwk7E0njiytr89baONFMas2WWXuGb5BrtJxPT6heqRm6Qv1eHAOdW/l54/jmoOslcDuisr+jZ9sZYm3SXH3BQbdoU95GI57FI1/HI1/HI99BI9+EIacnmC4zIqukgPuYIGX6aKLrGGXWUPuxoBjVxKWftSRV4SPfUH60iZlJYJdOAl8i36NnixcSseJxKpool5VHCOCvWErpCXpZ/8ndj1KWRNtmu7Ait2z7Ed1G7fIlBAr5unHrkVOUmBVOVPkqEcWjZRNNcyXz32q2NT+O2+O2mwAa0NYgYwds1C+fAd4HG+/4dkJX826nOYw5+KwrG+VPh8/OkI8Zz+N6rZDat5DCmdgs0NuEztYURbD7qC/vYDO5QRC56DmtsoMpGEmA0s1g6PFER/otVEqvb1Es/dTeVlyOHCNCemPji1Uo37aek/ULgmnIs410AGYhvWvIZqBxoRh6gXICOO1vDP8Hx2Z+5g9HXTGEyakgs+MBmzn4IvLkwaeuNRZ9KfVbg3+8p6gIxP/ZHKVridmuDU6c4Q+DecDe1KQyypceopSaVL30RSCMqeZ6My3YgrxXsT4A/vrHD6N+wShxtRU4QaOdMWjykPbhYvBSmco0OZDtqc9FZjb3AObNIyqrk7OqNg4in2fBvtVgqTqcuwAamZNT+KNalPZ+mHr5fotpRF/mQRSKE3x+uqQ/EURK7g1dRAy57Rgy6UgSzsem7DpfPStC+Te9KgEm3Cw5fq5KPrhvIncVJIigyk2KE0FNj3p9q+FJr4t0j1DmwT7Bo3V/Tb1DZYFkXmXYuspcl+yj/bCp6p0MMjR/39t/bnnzBswB/oeh/hDT22Po+9QxKVQ+sX0d9/xf0u06QvCba4dyY5LfU8ae3ObTeJ3+bbkwYb4PSCn9KiFa+K4Tegin34P0UwM5Z3NroYoQFLKqpW4N80HUiXaPaQrcbfSkc3IwgLsIHye2BlilDP7o3hKND/t/8tCzMj+X0p1Efn9UJlt1CGCqd0eKBznC9D5uegi8NffiAn3ElH17eico3RmTsmNa86SfUHUcCjX4YuzAWw+dIR2/DJLLJbtXaQ9AkXR7MTz7HoxOrV8W3cTzmvzVTY4BQTsH6zMIABWFlcQZMrCDYfURP+6BT0pWCmDJ6JErAT/kzbP1AcUuyWRuj0Zom/ROS9ZLcBx8AhgQvgLRxa/w6NvlIWZgGn+2fpB69SK57G598ibBhCWCgWxKiqpCzfLl4t4v4HiHSkYK4YfQ08pcLC9BkCgqslen3ntQ1+BCyq5hq9ahZKGQZSJKKGkumhG9TGdzhuBx4pNuTG2thRogfu5HP3Vl0MwIVsZbLPYs30yUz10HUqrw8MR/4UyutpL3lC1uwzsdzgBSTthnJa8Lid31vAXo98QPL30v4kNGsKZ1IoUwfTEh0qmCYKuHVmMAVdkgJJ2p8skJiZhj5F/jSaeb9Tv48DqEwoHejx7cEGsxOsNiWkatL/LKKCsxnh0FRGP/4r2vIuxsab2F2eiWCD3SS0cSk98WtuT5IqA+lOfjYtn6yb68y67mQqv52vTipsKPhpyaF1b8rx/81Nin5IgTSFJqlpyO9FozcONoCqkSED2XLQBTTtXqreA0s9irhIwAbySTXVlut3JtPAH9E9/1f6e1kBtPFR/h7Sl8xtROPqS5sec+xNsvL3omCK7JdFLw+i6q0xzYGDiU1KkvtwUX2Ffvcf1P8sXZgOdbh/qh5xJa16hSKNSlnClFRQMSERVcQKTOIrJp5MDeMwkpBNvBh7OZAShCWI68H1bhLb8VXrUZp4jyg8H622Q71UIAUO6rKlGvlWHGvUzTgq0+kGEA0mpGOcPsLBbSpKny6mUT+S2LTZ1D9Djvwven8yUoMNB+/w0b5xIxWb8RCvyQFjqPBT/YWY9YDO741yPf40GcixH7ycdn2sHNs4P0ymeIej4w+/B7BhLB+6uVqvmqMGnE2hFBFMR3TNqOv0+mXIL0XbHwT1kcMterrLVLoNGzBDow9vlNa9Lh66gfr3pmCyE0ih+3q2LnpU1u4ibcGICxYpqbVCfLyAhl+s8nPgjsL274UgCyAB6xnH9mwn2/n4r/DbniJ4Hr09lRor2tzOgNJvNZKKQxBh5lUkopE5Y2gA2mpRMMMJZejHbqP1CxDIybFUpmZnh3PFkRz8z8bl9Pc7KNBD+lJVKEvkZ9LyyagGHRcpEy/sb+ObkwYb4HxsaNeKjm6Rbz8mHruJhpxLQ8+n4ZfQ4IsRDjTgXPQbGXQeDTxfF11M919FE35Pq/+pYi3QNhDHjaJxzJWVcprp81X6uf407Hxn4Nm68DwqOkcXZVtFfcSg81EHpsNjUF8q6qMLssWQC8SEO1Gdv/kIKuB3Slszr9RUK1a/SKHzuMVbGvVPV8MvVu9NpcZKrkAutIDrBQ0oEL7UzSxxjeJ9aHvE0V0CKSbGpWf4IxQAwIYJYNQt1cgGLzwHxV9DyTKcpMfdTKtmETlwt2lkybazl3b6kCd8KVDOBJDBjW9xEShAltQxvWIaDb9UBJNkMA3a25jr9AcvkwNL7QnXOPbnSYMNTBy0MaFq98o5o6jwLDAdP4oL2fdfSjtXaQdOUR6aiak6Nqjj331PYEPb1FhFq+fpgedQIFmg+nIqugatWwA7PnduwGaRLUbU6JAZHf/gHfzVPdhgVEPgHUlbfrbYGf8LQFooBRVbfdn2zEG6crtSXGrBmHCdRjr0/9v77jirqnvfv9/nvXfvNSJMH1CMxmuaMdEYNVEpxliSe5MXU7xJgJk5Z2YAERWRYrBgLyhdAZUivSjNLkiZcoZhGMrQ2/Q+c8ouq/ze5/tb+0zBOaNMDODkHLfDPnvvs/Zav7XWr5eDNC+TnvuNemyInnQrTb4Fx6RbacKtNP4Weuzmsz305J9HJg0WT95H2zeoUIviZFYOl4LhIrFGHX0u4jY8Fz6I/Ja14nG6/8oo2UhWTwymvOVnRTZUYBOUVJkXK45NkdmptGEaNdf2drLBiAe7FykpLaei1P50sV75PK2eKtY8Qcsfo4Xj5PyxcsEYOf8Bd8FYtWgCrZ5K2xZS/RGoRzgFCKeIAwpAnjSSjt0g96ylDY/rJRNp3qM0b4ye53fmZYv5o/SCkV0eYv5Yd954veARa8VTzu7NFKol5Si0BjQf6+P55wZbRfFqNeYayrxY+BNoeKoYNdBZNokqD3KhCKGEi1pywLBcjZQlhFhtxr7OOik2RyPcjmMTwJ4xRmDuRUK0hW8tOeFW2vgSqhajEHeS8vVRj/yI1r5MIgggOc3Q6vbsw0F+nMHXRu4HUCqXZJOyW9XCsWr0VTLzWzK7L+Um0NTbaft6EsQ0KsbL/mlkA5SKdQGq6ZRaMYVGX8H5JRNkVpr70Hdp70faicBoxekFuoXFhU42GClrrR3kpPp8NY25ijL6wk8pKwHK0s8XKqsFLiMcv8plUZnqx5iQ7i/3jGywRpPTzWrpHtwqXvsTZVxE/kS4HQ6/VLz8O3lyJyoH805jadiBCuH0Lln6sZP/rti5Vuet1Xlr9I41tG0dfb5W5a05+2O13vEO5W+ghiquCsCKM06sYFLhshXzHJINTJvtrnmaHrgKZCMr2fUlqSm30fZ34HsIkDFDHVWjfnFejMAhizbrZ+6mzD7IUgrVQhK99yI11fRysqGQCRn8qA4r2xhXEaAHa4+tw1JFHBEUblCpkJIhIUKutEQ0Cg9ZnsC7u9DeMD6FyooPMMR2C4Uk8o+EBblh1PZSEfb7NqlDOv91XLIFuUFym0LMg6BlOCsh99oX58xc4VIvpC2HTmx3HxtMmf0cVGdMV5nJ9rR7qfRjEhKZcTlug80kSrLTdqwGu7luzOAufLN0hB3bTc+0a2OBMQqHExUr1mxb6KLVYGR8/eBlMSJBjf42Lbhf1R4BoCIO5+Lp5m2xb3HJWwvGOORqUSz1KGql02X09F0unNC/RTl9KDeJpv2ZDhSTJA5BjNHg1082IAcBHh7Z0KqlUq+eClHVl6Cz+umsNPHAVbR7M9lhqETYoSDmBKPXFzrZYDsXcw+tjbRzHT3wXWh1UKy+r3r0Ovr8bW23GrmKhXoTPd1DUbNnZAOBupCV8VJRcUAuGkuZ/0G+JCTW/GuKfOxGUbxchcMmN1Sr4YPg12CyfkI3yxpahzMcMkJlUdlgxq/8VxK1wsRIqFEMBYfLwUtcYe0c2jY4PtfsBu2K956jB7+LUHlfivIl68duoS1vwymRzRpeQq7YWweZMYo/1M/9mhNbpZAvDXlKVj9LjdW9nmwg5QY+SqJoF/JR8SkSQznRlCCYVrOBOZkZULqnMgcTY9lkswBunnIhC6PkQpi1ukb81Ci8hYS5MT4mlhnq32BIuREU8AEhsj0i1PWv2lxeqa7Mne2jEako+pgxgDISxIRraNOrFAwjpaAW5Eaw/Akx8Ojy2X8YOxiyGMQG4CpP2MbGvAHpQTDZAF+J6PaTRWryzVDowx0lTflS5NN3iLzVsAQ5FEIvGAmcbU843IFNLAjb4HgNctxW+nQRjfmu8A1UOf1QzTt3IL35MNXVsL3xXCqp2gL4jLeYlqE6ve55uv8/VVY/DV/kNDn6ChgSrVaGHihutxNyoZMNVnrytgg2Ud56+eD3YQ70p4isvu4jkDbIjXhcNBaLcfJgZ/CznXpG1vhztiZxBPeYhBmkm6qxL0b2B4vtZ6v4/d+RKyfpimNwLcfaNB4U0lHIKcKLFBlDkM/KqGFxydj4zu4vmASknVAOUlAb8sO+8OfUJG5YFUZK0pUbXmKyAdsGEmZP/gV9ukCjHA/mxphBYu1SI23Qnk/opd/BawAuBikyo69a+RSCo2OLKWc/7T3/xT/PtgGkypyIAz4AnDSnDcbVqKuDYN0TanUbwhBdNpwbiX29LZANs5x46TGd0QrVtRB7aoNzYSG43euuzf0OJwpzpW0IJkE8K9n/R7BDQ6x5wxsZZ0tNzRXO+zNc3/dgdUfZ4QQalaZnDtP7A7zuHYS2Rvvgee+c5Vx4FR2MgYRZJIfpIKregbXgDDZYaaDASpPTUuW+kUP+S4UvVWQPgGlxzNV64SN23QmuZdBTxIEtxyWOeRciRl4TndpLrw2njGTlu1Rks+fbIzfpTXM5Nzu6E3OsX7e0gU558wUkBONFpEmvf4VQj6+fAtlI1bmXU95aijTjQU9Qi9nBC1/a4D0BuVcHW53AZmvcNai+kJUqff3EQ9fSB7MojEpcjImgxuTJ8ILquhl2l7cYtGdNNrBJkI2QYRkOUuF65/GhNDwVfi7ZfWh4Cj19NwXWKaQWMiXCuG6sQbC8k01onol4ZU+GLnvX7cVoa7xjHZO9w4KVL4pU8MA5UFJ5KxTbT7rq/Vf1Qz9g20YyvKEm3kQfvgFUBFWyiayPvXdYrqZ9W2naHzXIRio24Ii+ctkT1FBhJJVuIXIubv4TyQaEU3Di8C0wCVuM0YK5D5N0Cfp75jWA9dnLgGcfwgEQpYIvBNvcMCnSAeCZikDvxTonJI4FQx7rMCmpTMINFH6RDrkwm7Fa1sNDXwQzazkQd6IjrfbhbeKxeyhnILKSZXGE3YSf0aoXqPoIaj1C2cW50w2q+mJbX3bFe5ewUGw83GLbyM6LDpviIhicF9ZuZA54bm15i8b/3M1Ol9kpMJBmJdNTg8SWBRRsYUoac1zd9oXFX0/vyplJq47Te9PcB7+H9OyIr0yj3MvotWFq7xaukcBml1gt/hPJBrRoILJ2iDbNoAd/KH39lB9MmfJfSttXUKgBvKzHs8Xq3zdDSQXJWCltRdwDW+0pN+rhyZSZBve5kVfSonG6vBS4B7Mdrc7S7nrczcC7uNUzsgEcyDQDpgTh0sl9ztsTyD9QZ/QlXz/9t750/9W0+EE6up3sEBwGpWQLGhvq4AICqYKzkxjJj+Xkr6ycwsANzZDwcAEnqCx2VTJFNtEa0MK5JRsg9lrSJ7PokWuMbQP5b8b/jDbNYra1A9kw/e9iNlgjcmAbvfZnBaUCyAZizpZOofpyjvDqjuR01d7Xf+2fSTaQocWj+R5e93Yz/8OT7k09OGsUYjRLQVKEXU9ZPuEMAUyibZsc29TbgOadi7JxUAfrSrpebryuea0yroHqnyVgCc1PTKM4diskFVtLaYUqaN5DNOpKx58o/Bxo4u+vp97lblsiIs0YHurwaRQW4ZD2s50iuD4Fm6nsc/nh7MiaZ9zP3qZTe4jDQhgaSD/Pvr7kgA5HoBw7HqBX/qZHXQbnRSSp7qfGpMqX/hQpy+u5VdzYn0DEbaGUam6iLWtoyq9E9kWO/yLK6i8zBtCD36O1T+qGk4iMgJb23CmpohYugo3HBaClG6EP5tDD1yp/ojRkI6s/bV1KwXqImfgvKp90PSUXupIKwPXQoqDTu9QLtyMsbkQqcpJnJIsXfmfv3ohVp13Sobaqw12P9cuu9oxsQFUPp0PeiaSouVZ+uoTGfBeGtxFpypegfYly4k/Vumep6hhQAW8UhClhs+OdmFYTe2tG+mX97Oo+6I6n0EMiEzToVdtgqfTckQ1gO4PuFG15nR69lv1WkhGXNu6nasMMk5mvXdpgjGXg0MW4ynbQa/dJpLQC2aDMvnKZIRucDK+LH5zTS/80soFRMCdthmPovnfBqFyi48SK4bXDKi02ESMfmafnVJyOCiuM4xvMdSO/8Loz+iTIG1/UU4FYsY8Ti8HsY8GUCSjPC5OKdoK7G6VkJnoBySyRslBQ4D391C9VdjoYB1gUkmj0ZeEZfwoXradgCHwONLQW72FQAY8WQlw142pjf/EW+Ii1p/JwyQnqok00536adFtk3Pfdx2+iVU9Sc4WHlJnymjGyPxWbccJNtHGGeOwm1J4ccYnK7Ec5l9D9VwZn5qAOkhXkLiDIPFp/FpWXAFCzUqOgZZGLsSdKw7H13ZCNlio3sJ5eHUZZA5T/YulLpowEN/sy/cofafdG6YbhrS+1yzu/IwDbz79uacNMNfoPcPMyciL08Twafz1KyPkTWNpI11sXUxC+7TzSbvq73+KVAAAgAElEQVTXrbQBF7UUeuxGKv6ACSPSXBvQcbvto/yqZz0q02TM3XBDRAb747RwjMi8jHz9VUYSjejrPHyts3QynSgk0aQ0KsEzc21SO0ML7K3CjtxUdHmba+h8211gWvh6y9Jt9MIfaHhfpFgekSJyUmj9y1zdj+P2mLwYTxCYw/nnvMgcRUIJoY/to9mZLoIw+tjZqVZmf+VLpycH0caX1Om90rWMBMCKVNYvsNhvlikzcWdoDdr7135mgI4Z4Ws4galSQAXEgRG8rFnehOLuXJENQNMgJwBp69vIKGEKSGcm0iPXyY3ToE1nOYEVTd5ZzCW0P49e/Qv5LkGSixEp+LtkHNWfZDdfg+sgtLFNyyQRR5Jh5SWs4FYBHjjRM+venQdQzD7EvvFPJRuxX9vxjrcijNbOJH6FOOI9wsvD2wMdf3XmOUsI7fTHGN3MwuqKorTTmHYa5nWElxpbqnlnSKKWSlr7tHr4euP2yvHtCWL05c4rf6C8VdRQLZGcM/oWFjGxPcAGwSyLyWQVHAQkJo0mXzyyJ7XU6l3r5awMGv0DyhhgIRTjInryHjq2x/PVOnOY0e+ni935o2nM1UhZ4+NoRF8/d+R/6rmj1L4t1FROImKqwOIH0P/ZiiBGmKhdszvNeA3ukChSSVIIVXdYb39LvvZnMfoqzvSQQFnpatgl7uQb9fszqfY0yLh0OKQj2pkv/vv1kw3m5Fh4xPbUSjkR+embesINGhxZIsoS5KbLrQspWMdDbvvzxc6ZKzGlDZWVJPwpNPkmKv6ADQwMGl5Q7csyVqtdXu8Z2WAVjtR2WAtU2N221H74ethXUba2r/Snqgk309IJdPgz12kEggRbAfJhnCywZdo2AXNV6JrZEB3phbfow1AdK1KlW+m5e/WwS7TvEhqRZuWm6/UvUwN0I4C9t1dYrPZsL4wJta01fDJQX2/bUnfKzeTrI/3prn8gtkx2Mv39Brl0oty/TYdaPOWrQbOGaWFtEru1dCAbRuHWTh5MbLVBC1GawSOChswkPkX5P9ZZGIaI7T3nkGwAPEy+iba8QxN/igRufOjxP5abXuZ1a2AY5XWjSK6LVVNWRDMywRdmXuJmDiB/kjv9f+jUXs08jFF1McZhFgFMM6MtWG2xXKOiKjSDAKwBZhev6eGlC4RsGALMaTawDs16jw6pG+BGH/niv2a9dfdTzB1LzJ7ODG1EMSl7vgJJ8EYRLh0JROaMFGO+I30Xi+wE7U9DMsGsZJo6RH88R5zeJ0MtykjemD/DCKAwhAPrnIqAGzK55FFCBks5EqaTpc6WZeKlP8oxl6usJJXZ3/WnIrRw4hDal+e67OL7xYHxFUlh2rmGnr2PRl5N/lSJsoOpdP/l9sgBSO6/ZT5VlFpOJMxIhMFp3AciLsrLsthhEIyHY0jriGW1RI6XqA2v0NRfkr+/zkjiVLvJ5E+0c6BMp2OFKBqN1eo4AqJYzM83mWxw6adUkI1dHtloR8ExB9ztjZ6RDSjapNYu61MVVe533xjB2Sb6cYQjtN764R+r17NU/iJVsZeamshiA3WUNsACxOI2151G4Cyvb/zDkUmQGbm+r2sRYrlhZyzdSM/f44zoI3ISKeuySG66es+QDWZpWe3cnmCUqRTYZoT4ONBcukSn99LGZ2jMD5AuLDtJZicpX6L0JTsPfV/MHk6fvylPHaDGKnIihtFjV0FD6840UnoUDbuSC3RCq2w4axkNj1XghIyTPYYuJNLP2A5qPrlGsjkPZEMTfbZYT7geZCMLlKMHZEOfKhMLx8vcAfD+919GOSn2+J/SRwvcimPC4vQ5jCUxxRyc7Olm2BWVnYAYZuz6w+YWFoW6XaRndfMCIBvor2GNorwGRFe4ynY4vmxQHZYY742oysrslCg96PgUtxh9Y4fmWbKR8L6AMoTlTs5S5hZuEK/8Voy6TPhTVG6qzk6iEX3gSv/Itfqt0bJwhVN1WIRaybUNNULed0wmvKM8UVG5JFwZibi1FVT8AS16iCb9lEalk/9iZFlAhctE8qWLl4ZTzVH2VoqJmOHc3FhF779FU36NVFG+JBdZ5FIo69/hmzt1CK19Su750Kk5Jq1muHawpAq8YKIITRw15AZXu0E3Uk9V+U5goZo/ih64mYZdiuWe3U9kJupRVzr3XyZe/QuVfEThENQLzOu7iHDsALUzTr/hZENlp9Lkn1HR+57Q2ca5nzHMr/i1R2SDs+twrkB2j5Ii4uYvFlN+DtXHsBTKSCdfqvInoQjrA9fR7JH0+WI6sIOqDlHTaQpWk9VIIkgqAtMbDG+ORj555J1XQLaOkpZyw8pukZFmK1wvmuuorgzVXJ69zfb3tUcmU2a6408gkI1Kz0YYJRtQKIFc2CxyMJ+E7HGgUrCNV5bQzAz7oR9aWf1kdgIyVfs4TWHupTTuR+rNh+n9GbTvQ6ouc1vr7EjQtcLaDZOELzuEGj6MmI5yPVIpKV0hhOtIK6xDzdRaR40VVHucKsv0qRI6slUf2C4bT0YoxPGEtkOW4HIw2N6Yu3PgSWWWAjsXaqJPF+oJ1zHZSOoZ2VDNNe6Hc1GpKfMSd0QC5aJMnJp8C62cRKWbqHI/MuaF6shulVbQCQdlJEhWWFshxwpZblhoG4pKwziwJ1FsO+RXXMSdHjtPZONMjNOZbHgCB+N0g7oNvu/U885fOhKEM847P9j5Wxdkg7Ehc1QCmWkhuyv4SlG4gbbOo2fvUrmXiYwkCSf6ZMpOkhl9nJGX0uQb7SUPWnlv09Et1HiCwiEVUXADDClqdSjURMF6aqyhk/sobyktyqUp1xsnd5k1wPWnKhjbE8k/gCbdITYsCsMUgVTTnXvb4ZvkQJi647ThVTnxRuRzBM0YILKSrNxUkZNMoy+nJ4bS4kmUtx4ZHZoqKFxBwTBFXG1jBwonqCM1VL9fHPykNW+peGOEmnQTXHRGpNHfILtYo9IiuYnkT7FeuZeK11EQ9n8TmoXZYyazQ4c6n36TyQb5krQ/hSbeQIHNTDZYfeKtwDMXbudhx/jWQ7IRaTNawO6tXNFSFd48TU68iTL7U0aqykwT8I1ORAxmdqoc833nidsjc8bYy56l91+ngrV0cCudLqGqMqo6StXHqfYY1R2j2iNUfZBOl9LRIljCij6m/Pdp83y19AX51iP04n8hgnJ4AvKP/TUNxrz1r4BBwa6AJoS3I4QKXNCWYKMZrsKugKIaDnT8ko7uojdH09irKDPZybrUykrXmZcg+/WIJPJ9i8ZerqYOdufluBumqcK1dHiHrixVtWVUfQL9xHGMKg9TeRmd2k8n99LxPXSgiPZ8jnLlny6kDa/Q8km0IJtm/oleuIcmDo5M/JW9bCqdKCEL1MvbN+fUk8pMvTHPEn32Nk34CTRUWVAq9kDagPRW+pH90m/h9jLsIj0Malj623/Q/Wny6TvF62Np9fNgFEo308Gt7uFt4UNbQwe3uAc2Usl7VPIxnSwmq57LT8Dp0KEgkkx8fZ/zRDY6DAALUTMn5FXX6bQzO/tedfhZp1OuNAzpwCyZNmJgCI+RXb74V5nGwYPhwzuBm/Xs2vATkRGWdhGgSJKay+mjuTT1V252f7iljkrVman2XxNhJB/Rj03lV9MTd9CcHFr1rP5kgS5YJQMrnYKlcssitfYVZ3a2M+VW+eAVamSik9XHGZ6oMtJpxEDbl+z4Ltb+/uqpe2jrAt1UEUJfOmvqOo0XlWLZeEKq4bD1yStyym30t3S6j0PHM9NFRoqVAfmDfANp9DV6yh1iwUj3w6etgoX2ruVOYKm7fYF8/xVaPpFmDqfHhlDO92nEVXRvPzGsjzUqwRmVyPkBE/XIgfqJm2nXBoo0Ak0ALtAf254G1wvo7Nw1/vbNJhvJKAwz4adUsEFgGs4P2YCEqqTxXudoOQvSa32Ffu/Flid/FBndh/yJlJkmfWmN/mQb+RwvsrP+F2VcDONHdn8a9R3ngWsi435mTxqsnvg1PfN79fxd4rnb5TND1FO36ik36YnX0UM/VKOukv7LKfc7NLy/MyxRDruEhvWlzHSR8x2dMRAJhtdPQxZRrEZWoGNlstc5c/EqGuENLkdbrjJOTeykeChACx6isT+BGO1PolEpMicllN2/NSPRykiRoHwDacQV5Psujb2OnhhEL9+Fwms4htLTQ+jJW9WUm8TkG5yJ14tHr6WHrqYHrlKjr1Ajv61zL1fZA4VvgJORroYn0/Bv0V//txh7Da2ZTqdPqwiEK+J8s+j0uZE2mKDy21hD8SmbxLO8PPA9IRtKUe1xsenl1oeugZP98AHSfyWN+rYe3k8O/3flv0jlJsnRl4n7r3ZHf0+P+gGN/iHdfy09/EMx+gfuqJ+pF/8q8t4RnEeSS2F3sUf/kUsXANlgdN0mIZwxmK9GNrwftT3cqZG2ps844ffiyU50Cl+hwoEJFt61qCFrQ8znMkpE4RYq3iRmZFDuFfS3PjSsr8hKRVnKjASg2uxE7U+UviSRnY60Hw9/jx75IT30Axr9bRo1kEZdoXMGKlQWSiR/X/zNYb+sDPBf9Nr/hLYtjUROW9QcoQgmO7awAS9UYwPTSrWeooJl1nN/tIcPAHs4YgAirTL7ci6Qvio7SWf3R9yJfwDd/1168Bp68Fq6/wfAFNkDkE8+tw9l/xsNS9RZKZSTQtmX6Kz/qzMuolE/pDkP04kCxWpozpVlzDPaZFskN9QJzh2/fLPJRhIsz49eT/nvsTXcxZrAIunAWXQc7Jee90jaQGQTFgCKw4OJhb6GVZ41B2nrfPXCn4T/CljaxvQTGYn0l/4QVTMuUpkXuf5LRE6izE1Ruek6Ox01GzLTKWsA+S4j36XkG6B96Qhf9aVCXEYJg0QcyBLdl7ITdE6yzE23c9OsjD6u79/k+pdlfYUX6eRxMijZ7LERnJOYtWgsH2sXfYZWxIpo6dYc1x/Mpan3qMzL1F84CaP/W0ZUYjarD2fATaCsZJ2V7mb1V9n9dc4A0Kqc/tqPDAgqK1llJcLyl50mfCluVrLAw0jagSMrRfmSmnP76FH/x85KoPlj6XSpi5heeNxxiMM5IhusuTUyOMLm6ZM32QEXJSF6KG1AMe5Qeam7bDL2bGZS8L6LkPbbNwD6gOFGSzmA/JeCRfClcCrxPuyRn0B/S6KRV9CsYXRiV4SDrBHIGxuZfOn6/eID54dssIThdcbsRajZ2fvoDNze8esXe992pe0x9l/CWmFx0dvobXc7npg3dhQyOnZISOU6HI+hybI5IF26KOmnSYbtyLGS8LvPiSdugd0v83I3a4DKulj5+qrsZO1PgsUSgYHJ2t9fZF9uZ1/pZqXiSmY/Gt4HG8afLvzpbkYioebMADnpJr3kQX3gA8tq5Ey3Ic4SwjuzbYRnnHDBZETIwzgoZbCWSj+iReOtiTdQbppGKcpE9v9LgGYAlaxSdUa6C51GKvCL71LkShmeBk4QboLJbu5/uL4UkTUAYvWoS2nq3e7GOW7FMRVB+KFJ88MSFzLZez5auBPj840nG0n0yI9pxzoBFyUE8vNKMssnxpC7udwjsgHsA1oFGUNzVA3cpIALHWoN0t4ALXuGnrhDjP627Uujv6bTX2BC0OASEjmWJdH1Jbj+vsLfR2ZfrHIuhlPTiDREfoxIlhlJEtnmo0dGqspI9WhJZjIWT0ZfnXEx5fSlzdNVY7Uw5sZolzxHHR4y7yN46rA4wiZJdNpu1nYLCRFqoD1baPHj9Pdf0cir1PAEGnY5jbhU+FPsnAQnp4/r/5b09YE4kpOmMpI1ViPogXeAPKAUB9eyZF8AU6EHlTmStQ/r2fUjWzv5vk0LJuqTe22NpERsTQQIz4200YlsSE0fvUHjf4SkEj0lG8bWTZFWOl5EK6bIv/88nJMmc1Dsj3zpKnug9PUXWaluVrJE6vgEyoYXvvT3c3L7q5x0cANThtLujywVEhTsYfKA2Ev6/JANZqSZf0NghHZcFbFlKOIGw24w4raGndaw3Rq2gxEn4ri2kA48R88QCtrHJBVFHB22VCgig2HRGnJbQ24wLHBERGuMIxgWobAbsaTjorBrlH6wtAlPWVcoV8N2iJh1lBlEbSfmpbRGvoSaY1S0Vr09kh67jkYO0JmpXKAwQXMtZe1P0X4wSlyHqp/29VX+JOVL0xmcpASFHvvZuQP1xJ/RG5lweK0o02FOWcNWLPC3sceLkRsvG0RaccYqoak1Qid2h3e8TrPucydeb40cIOGWmoxSxjCfpoGY+RB8pLMSkBnNlLhBsSxsVDWc2beRl9KUW2nReB14Tzac0MomV2rpQF3CXYI20aR6Z2Nt+xyccfZNJxtZSTTuWtq+1kUuTTcaiGrcRc8Y6lf42jOyAc0ryxrAyMgYyJsf/kpYGlYEBoDdm2n9czTnf+jvP9WjL0c5MiRP6wfZd0QSh4klE3BrEsrMsWChfSAqyp+o/clYA6h6maAzkxUQHKtbodscQLlXyod/Qk/+kra+pVvr2G80mhMIzjvAx+z7wTKR8cpjqmrSPYDYGVwlhYo0qaoyvetdWjWFXv49PfSf7ujL7OxU1xRq4/qeOjMJNZcQF8WiHp9jKwFLcs/hyWp0PolAx2CMEnDiS6acy8H9PH03FaxVrc2otmlq/DHff87JBmdk/WCOHvdDndGvx2SDXaLgsUKO7dYcp/xl9OYoemqIeuBKlc0SWGY/BdLejzFMsvalQu0BmKTKrBTpTxHP/5aO7YGNHmq7bnnQr7CEz3jkfJENDMRSVN0qD1YF95xs3n28edfRpsCRpqKjLYWH64uO4Agcqdt1vG5fecOpxnAIwjp8VwViD8DaGCQedvTpemvPyeDuY81FRxrNsetI467oedHRxi4PPHO4ofho0/7ycHmjDMPnm4ELzgmO39ifcD1hgwm8BTED+L8tsMcK6lMB2vY6LX5YvThMjb9RjRyo/Ok6E9UreRN6pagga2emoj4gvFrTUanm2V+5i8arT9+iIzspWOMFlJnZ5e3JqrKYlBJEhaUz43iCPsFpy5ahSirbqT9eIN56gJ65A6VNsgdwNq1kZOL09dcIV0xGUrwRfSmjn0a+0nQEnD/8C3rxd/TOg7RtEZ3cq8IhJlvsUwlHFP5m4M6pvhCFfcZS6vBVo/yhpd/IRWFElOJJETkD7Vf+oA981s2vOjTQxakJ3ADyNHNgh53P5okJP6bMi92R6TTiEpSX37ZEtTZFJwkPxvx4caM20lwT6VA9LZ9MD/wAmMh/MfkuFhNupoL3yLW5LDEWhjGOxWywmxuKqOQTmnoXtJr+S1zfJe7oK+iDmdRUH3OCDWfAehZ+Bnibx23WKE5Bwt0w/C8Of663v2m/OzWy+BH14r00ZaiacLMaey2Nuppyv03Zl5KffZn8aYQjVftTobzKvQzVbsZcTWO/T+OvQ6GLp26nl35Pc/y0eAKte0l88rYqWE+VZeQiPxlA4Ilb2ChcmMUIGd6ywF1+CJJHW/wIdGsC1entZqo+RGVb6cNXaMVEd/Zwd+qdevwNiCrPHUi+NMgZ/hT00JeGjBp8aF+azumvcy+FonXU5fTA1fTwNTT+eiQHfOp22MOn/1ksmaiWP075K6npFEQf3qHojPEzR1Q1OsxpDsEOUu1pd8N0yk2jDEQjymH91N8HUWAd2fAJNqPoZjK7vMXYwVYUhtJOuOqj+fa4a1VGH5mTBO7t0R/TpwsUWBCsYlMUEacMsa4bNPILW2uhcws30oldlLfa2vCqnJdLz/9GTxmkx19HY79Ho69QOZfLnCvV6O/R6KtozNXOIzc4L/4/lHVqrOBF42GXLl/Us4vniWywA0Z1UBcea95cUrUuULkuUPNuUc26QN2awoY1+TXrA7XvBerWBWrfDdRsLq7ecbDxdL1jau6hnhm7bkitHUWVTe7Ogw3vFtevLapbU1izurBmTaA2etSsCXT82nYdJ+sKa94tqFpXUL2puH57WfOpBgl3Qsxl96Q5ukk83kuRXU/lpbTrQ9o4HZmCZmWoZ/+LHruNHv0pjfsRjbuGxl+jH72BJt9KT99Br/2B3hql1r8gC9/Vp/dTSxP7vvds7mL8SkpqracTxVS4kjY8R2+Nomn30pN3qMm36Uevo/HX0iPX0rgf06M3qCmD1Qu/pbmZtGgsbZoN03flXm01galmJpLzBcEd42w/IBuORSue0GOvoBH/Ac+c0d91X8+i49t67s8BvZxQyEfp0UgnsCLy7C8pKwHK/RF9xIM/puL1bthyeENqLbyo3K56zyoVVB5GrjMi4QTVx3MwayNgYtU56eGX76MjO0i5pjV2D+Ioqq5a6/4acPzpA3rx3+mBa8if4PhTLNRk3KgtTqLT/Y+7vosmPSdqoGoBn4X647q8lPZ8SDtXqk/my/deUiv+TosfprdG0xvZNDdTz/Xrudl6jl/N9et5I+mtsbR0Iq16itY9R5vnItVx3hra8zEdCVDlIdVUKa0Wheic2Lit6751e1VreBVWH1MHt+u8laCdq59ESNAbo9Qsv5o7nOZm0JwMmp2FY46P3sgBl73wAbVoHC2djJI8772sN89Rny1UeaupZDOVbdGnS6nuOCDAiYjayQb7uSjH8INIkYsEQ8qmxmrnk8V6zBWQUVAQIcF96V61/yPiIHZDdLodQxc3ecUpU08Q67Ngk/v0XZSdpDP7ujnp6vm7qXizycHCiU8RghfFI120hksen4rGDFrCLFutor5SHt2ld2+S25agZNy6Z2j5JLn4EbHkUVrxOK1+gtZOtTfNdAKbqPooan52S5xivPvLL58XsgE5wdV0uDq0edfpVfmnVxZUr8ivWZVfs7qwbll+7Yq8mrUFdavy61fmN67Kb1qbV78p0LD3eAj72+N72UKokEL9YHlo867K5QV1KwrqluOobTtWtF80tzr9XVlQu8oceVXr80+VHmsMmj0CfVg3fCrKhnB5HDxlswcJ3EncVgrWUs1RdaTQ3bVRbF0o35+uNzxP65+hDU/T5hfp07lUuFodzpM1x0WwRbmcHxiBgV/rtsSMO6bmgCttEW5U1Ueo7HPauZw+nkObXqANz9L659TGl90PZjvblrolH6rju6j6qAi1upLNGEYdjDgxsG6u8SP68oV0xhMaZtHAWjntXv3Q1TT6O/T0r+nDmdR4hKntGQ9/ha+M5gWCAtjD0qjMThfZqx63Jt6ms6+kiT9RC7KovNjhSiHMajoCfsxdfwSXNgFJZCEC9twjW9TCsTThFzTmejH199bmGRSu8Iz/eLuXs6Lr5rq9KkhIq4H2b6clj9Mzv9Yv3ut+9CY1VggNa0WPPixtMIaLYkkJ/yFpIeGEcrUTREWyplNUf0RVH5Tl++yTe9wTJeJEiTy5W50q0RX74IbbcIJaqihYi1B01wUHw6K2RiyyCaLoZiP0qOPsoYtRKwGXinADNVdS7XG3/JB1Yr84WaROFsN59EQJndhDp0qpfD9VHaCaw7q+HH7AzbXU2qjDrcqOSOma2C60g0KHHRISAe2C8QEDyNKGySyP1aAlDAb7tqnpf0UJk9FJNOlGue4lp+oQqnVqgbpYZ//BHjZkHLlviCqP09qn6enb6cEf09S7xPrndXkZ1iyeQcAvx7sYihDrZZ65BBuRBU1+gYtsdcrBinKDOlxHrZWY5YbjquGEbq5A4dGWOhlqES78eWCINQyGdPndsd511tfPF9mQrqb9FcF3C04uz69aGWhcll+3bEf1ioLqZYGK5QWnVxZUvLOj/J2d1cvz61bm175bWFN0uMWKMD4H/YScpzUiIkqOt7yXd3JVXvnq/Io1BZWr8ytX51fwUbmmAAdf6eLvyoLq5YX1KwONK/Nr1m4/Xny4LmihYRRcir2dXfg32EA2nLjKpPQ0cX1GnYs8IvAncbSytbClcIQQSka0DGmOpPXcAXgUSjvekjjriYv5A66BIFzSJoUJ+8pKztLbKoQUrlRCkEB2EC1didFy2hq2sXsZ8aDP95gcdkqJ+a7ubghBzXWi4F177VPWOxPEpwsRPWBsMd39LMY9nnEJMsYqEAmDA+S8I/lqw1xaOJE2PyfL3lVOA6MGUw2SU9nFaM9sc3ircf0vRWRbte7BT5GQfM0rtHUVVRzgPMBGk6Cx06G2jN1cN3ekTTJCTpAqDtGej6hsmxush8uRsE3qh25+2vUtD6WA4wDugfkFf01wKef1a2NmgTmVNmW1FZA14uDMwXHjHroDK8zhxsabRGrsL86J03UP/oGrrAE2cj3UzvwBPueeAP8aBpnlXROm2oH4m3vmWbA1HC6Ogbcdni4bIY2CTfcmAwVQB2uh2X84WOeWbVPLJ+l5I9TGGXT6iOC0XgrF2XvCxgHKmAyQ3jAUYlpX7tbbF9OG2bR9JVWUKpt1oS6KD3mJgz37T9eQ5Eh+SLc4TGY7AMbkmIIuAN+wKfivh1OiUOBrQhPIC5aFxDL7WtnT80E2tCJYWelQdWRTceWqwppVgcYV+XUrdlavyq9aUVixsrB8TaByZUHl8oLqFQU1q/Ir3g2UFx1tiFjRpKbYw0BoQZf2ng5uKqpYnVexminHqrxyc+BKPi62XTnjZGVB1fJAPcSUvIp3dx7fc6w+aBs7tFmaXU8nyxqMPTwdAc8csm6y+RIzzMsTRB6ziJ628amYZheIChsyKqT2ZJV23bcOV00yRvhAsZ2Gk0ggHotVGxif5AgyxxQ8ARWxLIi00uIwQ+ZNokPo0OxXPkUxU4Smu7ZLdiOF67RjGz80rr3+ldtpfxDV2kELDVZBgi1HKAvlHVuaqLlRWvUS28QwdBbMgEB97b8/8ww5/WHaha+UcMh1gKEUodJquIbcFkDKoGGQCnhzYt/1bLLwKzAYSEnGyN3iQAyej560yKHTQLdmUIZ4ODxzvOoMmmlfh2ateYjZCCrGCGBEFSxUrl+DECUPIxmkFH3DmcD7h757ZMPrDkaBK0g52iyrT8kAABItSURBVN5j3h5wvkByFfAw0Z6ahc0cmgYxVhLryrA7DA6zaj3Dp0dvDMVgqgjum9dFCwwGddRaTpaXYZrJK97Vgw93SJFuId0YIauVlRC2E4bvvsD+N4GQyo1w0VIMh0HdgSB2fqsBCjobpaOwEQEacIYB+efcXh7hMJsCLbomvYpilQODzbvXufl/9Nv5IBsABYh6ZYvMO9y4vqhydX75mryKtTvK12wvX7WjdtW2qrU7qtdur1m1o2ZNXs2Gwpqt+xqP1tomi5cnrEGWlBFJJxrszw81rd7VtDLQsCy/dml+zbL8WmirCqGwWhb7WJ5fuXznqRU7T60vqth+oPZ0veWwDe1LkEPbusVCNmKmETZY8mZKwXY3IVjgMPG9zDNg/gybxBIA8wrw4OoJ4uhu2nkAIM18RO38DDazm9gdqu0uZ3FgxAidibJQUUuxFYHzacmgWbrdvbGLe0gihK0CwQXFfFyXLEECEOuJsYT7wEYIw9ZBFWMJZG0BvxUhamUBCQwc8J5tkxVmbNJF18wl0HP0EPllKURWCNovWE7QGnte8+8xORKKBZQbZXYhZosxbwiuhix0RFPEwENpS0oLkRk9mnzDhOKnoG0CSIQ5aY+TYWChLiCyiEB2No5wUKhq7TAiFmC+PSOeWfCGYUV/2NXEG23PpKuYkMD6t7DGAGTDobAaUEv2WTRrtPPfKIA6SBPebjKbj9Mu8UOGR+OC4tyEkf4hzZsUojxg+B2a4gnG8cRYKAGMCFHQhjNmT9Ynl9ZEFXHSIRbl0QOlvTGamE2uPBRhJgWiIRZTbGW4ESIYR0ThYRjUjnKZmW+PoiKxBVYaL1tvH+AdiGUWnBUm9rSc9Z3zRTYAMJuoOkSlp4OFhxsDR5oDhxsLDjUGjkQKDrYUljXt3F+/40BD/qGGPadaylsFV24yErTB3FCjCNKtQh1rsHccafm8rPGz/fWf7qv7bH/9lgP1Ww40fLa//jP+ipMvHNsO1O0oq8k7VLevPFzdCuoMro1VVOzhGAOUwLJYwoLLl4fA7sJuyMp2sxQ82mA4BSwPzk1isBjbMU0uOFvD7yJkkkXFeFlPLnscisd1ActKkmFyWshywU9Dro/KRB4V08oV4OyAhg1zx5QQpT7YBBDdul+9O1orIUwVPoAHmiCXJS/FxTK+ekPtTxqeGjvF4dR85CjtCFT+0RJF6vltvF1cCE2WrWz4J8f8GHkLjCrM4ryzWaawNarTA7u4SnIaShsyolfSOGZz3dxgzSfHW2DJczia4bijSutuftvlrTPJBhJ7wCVMw1Mdyf04gbaL2iR4ozkAIi+RLfCuQaoeMu7MKhkhy1TORH3uLvvQ04uoG4l6mxr1aWB9MO82y7WdlzECU/QviJxR1IOzYVWDqQTATAKGyUI8EjM7SsJpxoyQ94JRdHkvgpAJ2ihJh12SwuKCJexm5UImMGA5+8HxTlIm0BBOokYC0lJFhHQ1KIYUkIZtQ+RNF74EtGiTIWC2aXSSJMPOSN7GT5ftKQ7QjGBzK8MDQwFWwn73jOpnP6xYvzgPZAPUD6pEKBFdTWFHB20ddKjFpiaLgq4OuSrsyKCjWhzd5Khm27EkV47VEmnNPO7XY61A5yUaCds6ZKugJUOWCtl8WKr93Fzp8DdoqxZLNYZ1q82MMWZFQx/aLf8vUbvcYgsHbFuMprhDrHxgZTBkSIktYZagDdYKOpMIl6oMa4oIbsFs6693UzJvbBaMVAh6ioCN0g6TOcPps65II/zZQJB7CddmTy1jmBc2uZjTWEunu+vs8BiW2mKHaRekgz3g2A+gux/GuAcnFcOaQVnFCcKNlITJghUFO5WzK4LEmf0GO0hMJQDzCEzLgFaZmjN+1RQGw8iKRQH0RpZR9DGw8NzZf1gFzzGDUA1FKTMWjKmHfNYtsu8tL1ODSoyeh1GeGbp3OarfMEwnq7bwfo9xYNnXw9qAGVC4wbZs7gG1YV7trLv3JT9wUZvDkxiizA1UeAKkmbFqp7+sWGVeDQsgyvEYi4gnIkWRJ756mzH6L8bFdp8offIegVo5xKYVqcB8mILnbFU/eyYJcBakwpKdMT0jNr+IETokGvBR7HXA/Yh2sptXdRgAx0pF1RI8HqMLx7R2pChoGrwflrXBAcjZZHIGe8zkl0zNV759PsiGJ1FHrT5Qa0aV0li8BveCSfaEC+xY72HDOXiUg82kvNq7xfQxYYE2oSHEdjHrErg+Spa6/hlL8JzswewwQ9KhwYBpGayZmcgoQ8j40yiMvTtmAj3sZpQCXb+qp1eN+sHbUVhYRgHazn+ZHpody2yPxp7ltc0qZg0NKTSyjG561A2ENYfDjIiBIMCGcbp4Xtk9aBFkgyvJQSpkBxovXzSPBTYKTCBs/VwPnblJFrO6exfvTPxEsmKBNxzmhWM7seujIHNA+YWGOqiHdMPscNj0TA+ZIJsZ6K6Hse5BWGGNKqvsvJSx2C7cLk+9mX+vAQ8HmcWLBcGLonPrWCWsx/FWjqcm6fzQ1/DN7BhuiGeVZQWF9dZBR9yGNNsoH2PYtsvR7cPLm3U9hqRgOXs/MYP1FHlsmjIKKTMEiNxIqYZ/GSObRWV+ax45u78ocoGJMPuIbNgYQEuwiZAsjyMwsHqgKwGK6wCHrt5kNql5nKkpKwkMAHiivTVgPAAQy8av9ras4U/wNACCUIVuFGJdvf5Lrp0HstHeI4PgvPGaleChZQ/VdVwmDIM2jOc14q1/s1jaG/5qZ6Yx/i3aMXvGswV8SQvmp4Y2gA4YSyfrqr2ZjTIULCkaBNGZYJgHetbzbnvnbXtunx80UkWUkPGldsDywBkdcvfMemNtjSGBPewgquSadcwMYEfy2I3iKOa4GN6MyGAQYAJsMB8PxLQelZjMhBoi3V3vzT1sauQVB9owE8T0AlYgbEFmIlhrY/iL7hrsrvemn7z/gR29r/i3Rx8zf/gpIBOl7167hkZ10bb5VZd/o6uxE83ogrj0qLedfmT2Ag/cwNdw52CgDVi6/ms6GP3bscUzxtPhFsMDqCS6JdrBhoY6bXVeQ9yDDg2czWlbN7iPXHfPsIv8IhAnvsETBlTzJUxDtKtm5XfALOZGG0Yx2IcFsShw8IQZs9d/5rm7WA9nM7zOz55XstG5K/FvcQjEIRCHQBwCFz4E4mTjwp+jeA/jEIhDIA6BCwgCcbJxAU1GvCtxCMQhEIfAhQ+BONm48Oco3sM4BOIQiEPgAoJAnGxcQJMR70ocAnEIxCFw4UMgTjYu/DmK9zAOgTgE4hC4gCAQJxsX0GTEuxKHQBwCcQhc+BCIk40Lf47iPYxDIA6BOAQuIAj0BrJhIp4AVETdeUFDHRPRdoiNiQb1cWA6EoohYhP5qLyc4YiV9UI5TaZMZMQ00bMIR0LjHVozgVWcl8M0zBfMAyZ2FyE4uNXTuK4LaKnEuxKHQBwCcQgAAr2BbHDgJcdimpBKrjGDrCEGV3vhmRxd2R4xyiHBIBtIrGaSI3K0sMuEATcIyQGQ4QWxvQKZ1AAwE6TZqU1TPhmpjJlIcOlaJmGciaItmjm+4OIQiEMgDoHeAIHeQTYUly5ATsNWQTVBp7IlXBOK1ATDNS3hhha7/Wh1GludppBoCcumiNtsWSHbbrFkk4XfkkDOQZcT2Jnyu5yQAxkktZKtStdbui4o6luc+hanocVu5Naag25ryA2GRatNEU57A+nEFNkwpKo3rJP4GOIQiEMgDgEPAr2DbKDsW9ilfbXOR0dbV+ypXrKrfElx+cKiE28XnlwSqFocqFpcWLk4ULWkqGrprprlJfWrShtX7a1du69y/YG6dfua1+8P7ToVCUYcpSwb1AO5Ezl1EIsdQrZKCtSGNh2oW76relGgalGgakmg6p2i6mXFtStK6tbsbVy3v+n9Qy3FVXZNBHoyTj7kkgL18TIdxZdcHAJxCMQh0Csg0EvIhpBOWYM97ZODGYsC974Z+O/5gXteL7jnjcA983fdxced84vunIfjrgW77nlr928W7vntWyW/X7Dr3vmB38/f9Yc394xbtXfbiZYmG/mbOT0YZ1WGPUNqR5fWWS9sOTBySeDe+UV3zi++c37xXfOL755f/OsFu3/zVsl/Lyz93aJ9w5aUPLWp7IODjfUo9KJhPUFmXWRMi1s2esVmiQ8iDoE4BACB3kA2JOka21l3oObP87bdOG37jbNKbp6156aZJb+YvX/Q7N2Dp38+ZMY2cwye8fngGfg6dOb2QbN33zL7wC0zAjdOL7h2euCWWfnPfHK0rN5BcW3OKYpyN5ykW7i0JHDyj4t23jIt79ZX84fM2jlk5s4hM3cMmbHdNDt0xrahM7b9/NWdd8/Je/bDg3tqLa5dakiGSWcdJxzx/RaHQBwCvQQCvYFsuETHwmpO3olfTv/s1jdKhyw4MHRO8dDp+UOm7Rz0asFtM4oHzdw9eFbJ4Fklg2bu9o5ZJYNmlNz+WuDOmTuGzs27aX7JzXOLMhflBSpsFzVOULOIy6qgyoNW9OS6wjsW7Lxlbtmts8pum7ln0Mw9g2eVDppVipZn4Bg0o/jm1w8Oer3kgZW7thyts4hcKSTSIxtze4/qNPSSNRYfRhwCcQj0Kgj0BrIhicpb3TfzT9457eNfzCi4dWb+7TO33TVz292zdt4xs2Do9MLbZwRun4lj6IzA0BmF5vjljII7Z+64a+bng2ds//mswl/O2D5hRd7+Gita5heuVC65XLKIXv6g5O43t906s3jQa7uHvBYYMj0wdDpau31m4JczAnfMLLpjZtHPZ5YMmZk/cVVR4Yl6OF0ZV16UZeRyDr1q2cQHE4dAHAL/uhDoDWSDtI7YassJa9ibgVtnFNw6p2jo3MJBs/J/MStwy+yi22YXDOLjttkFt83Kv5UPnMw254Gfz9ozaM6++94oWLOroiaMcsCmVBZXGZYoGCvoo1OhzHXFd80uGDojMGh2YNDswttmobXBswr4yB88K2/w7MB9C3fP236iosWBmsuNVitDueu4tPGvu8fiI49DoJdBoFeQDSJX0akgrSmtfe6jQ5M3HHhs06HHNh+dtPHoxA1HJm08PGkTjokbD0/ceCh6HH5009Fxm449suHwYxsPv/LZiTW7K4822hEUe5MKQR8cDcIV60lTpUvrD1VN/7T0iY37Jm1Em9zaYTSO49CkjYemfXTw3V0nD1SHLJSEQ8F0Ywr3Yjx62cKJDycOgTgE/lUh0CvIBrxcpZCqLuyUVbfsKm8qrgztqY7sqQzvqQiWVnZ9lFRFiqvs3eWhveWtR2tCDUHXQUVzjglXkumGqa4MtG8T1diqrCFYWtUSq8FD1a1VzVZIcCFRrTXkFggZJkDwX3WBxccdh0AcAr0NAr2DbAiSYVI2aSlhytZcARoVdLX2CgZ7wd1RJM6OTVxiVwmSfCjJYXqwSCilJJA/H1poJUwFeeivOrRwRpuOIkuTIT3QSilTSzsubPS2PRMfTxwC/+IQ6A1kQ5F2SbpaSdYsgSRAxyRw2Yvb81j+joieSYDFgoRDJLR2pZYyGt4N2kFCk6u1o5SjlQtzBROCjo10PDd0hsmUyUoFHyzdVnr+X3yhxYcfh0AcAr0FAr2BbAiiCJHF+aOA2Fm3xK6v4PS7oBiM7CVTDJcIDreeZAGlErvMgv4oLaUWMHYYsUNJWLmjqRK/2CxohFIaaUUMeYmTjd6yS+LjiEMgDoEOEOgNZEORFNpB4kGF/INeNg+QDJOzNtZfEASEcEdlA6YOnEPXqJeYgER1VWym8OSYWA22NeQ9YJIpGomkA8zjp3EIxCEQh8A3GAK9gWxAVNA2VFI42NuVbRdKa6mhaerygNVDukxpGMuzrAAZwggoXjZbCCKuJlsjs7qRS7psTXgZRKK0CoYN7yOljCbjjV6K/xuHQBwCcQh8YyHQG8gGHKlMQhANT1yH7dJGSmAq0NEA0fHcpEWHmkrDLC5s7TqgJBxkYR6MpiFUrMUSbDOJpfaC+T366bgehBBKxeM2OoIkfh6HQBwC32AI9AayARGB8XtUScRpZ3XUvB17doyTk+fqFHW9NR5QUQsHq7xgKWeJxNN/dd1iR4qExkDMmFqYOhxd/yh+NQ6BOATiEPiGQaBXkA2jVuoEecbhpihTp+tdfTGKKXPH+4mJ9uNLaKknpZb4dx2b7urV8WtxCMQhEIfANw0CvYVsfNPgHu9vHAJxCMQh8A2FwP8H737hD/F5F7gAAAAASUVORK5CYII=;" parent="C0WDaNFQtQ9nxweYVRwT-12" vertex="1">
          <mxGeometry x="29.52" y="120" width="169.83" height="44.86" as="geometry" />
        </mxCell>
        <mxCell id="TvYVOuvGwIo_3C9jy05R-11" value="&lt;b&gt;&lt;font size=&quot;1&quot; style=&quot;&quot;&gt;&lt;u style=&quot;font-size: 26px;&quot;&gt;Connector&lt;/u&gt;&lt;/font&gt;&lt;/b&gt;" style="text;html=1;align=center;verticalAlign=middle;whiteSpace=wrap;rounded=0;" parent="C0WDaNFQtQ9nxweYVRwT-12" vertex="1">
          <mxGeometry x="199.35" y="79.57" width="60" height="30" as="geometry" />
        </mxCell>
        <mxCell id="C0WDaNFQtQ9nxweYVRwT-13" value="" style="group;fillColor=#dae8fc;strokeColor=#6c8ebf;" parent="1" vertex="1" connectable="0">
          <mxGeometry x="786.24" y="-55" width="440" height="185" as="geometry" />
        </mxCell>
        <mxCell id="C0WDaNFQtQ9nxweYVRwT-14" value="" style="rounded=1;whiteSpace=wrap;html=1;fillColor=#d5e8d4;strokeColor=#82b366;" parent="C0WDaNFQtQ9nxweYVRwT-13" vertex="1">
          <mxGeometry width="440.0000000000001" height="185" as="geometry" />
        </mxCell>
        <mxCell id="C0WDaNFQtQ9nxweYVRwT-15" value="&lt;font style=&quot;font-size: 20px;&quot;&gt;metadata&lt;/font&gt;" style="text;html=1;align=center;verticalAlign=middle;whiteSpace=wrap;rounded=0;" parent="C0WDaNFQtQ9nxweYVRwT-13" vertex="1">
          <mxGeometry x="72.5122196469958" y="130.18518518518522" width="75.746835443038" height="20.555555555555557" as="geometry" />
        </mxCell>
        <mxCell id="C0WDaNFQtQ9nxweYVRwT-16" value="" style="sketch=0;pointerEvents=1;shadow=0;dashed=0;html=1;strokeColor=none;fillColor=#005F4B;labelPosition=center;verticalLabelPosition=bottom;verticalAlign=top;align=center;outlineConnect=0;shape=mxgraph.veeam2.metadata_file;" parent="C0WDaNFQtQ9nxweYVRwT-13" vertex="1">
          <mxGeometry x="59.423612052059084" y="89.0740740740741" width="15.594936708860764" height="26.722222222222225" as="geometry" />
        </mxCell>
        <mxCell id="C0WDaNFQtQ9nxweYVRwT-17" value="" style="sketch=0;pointerEvents=1;shadow=0;dashed=0;html=1;strokeColor=none;fillColor=#005F4B;labelPosition=center;verticalLabelPosition=bottom;verticalAlign=top;align=center;outlineConnect=0;shape=mxgraph.veeam2.metadata_file;" parent="C0WDaNFQtQ9nxweYVRwT-13" vertex="1">
          <mxGeometry x="97.29702977357809" y="89.0740740740741" width="15.594936708860764" height="26.722222222222225" as="geometry" />
        </mxCell>
        <mxCell id="C0WDaNFQtQ9nxweYVRwT-18" value="" style="sketch=0;pointerEvents=1;shadow=0;dashed=0;html=1;strokeColor=none;fillColor=#005F4B;labelPosition=center;verticalLabelPosition=bottom;verticalAlign=top;align=center;outlineConnect=0;shape=mxgraph.veeam2.metadata_file;" parent="C0WDaNFQtQ9nxweYVRwT-13" vertex="1">
          <mxGeometry x="141.85399179889453" y="89.0740740740741" width="15.594936708860764" height="26.722222222222225" as="geometry" />
        </mxCell>
        <mxCell id="C0WDaNFQtQ9nxweYVRwT-19" value="" style="shape=cylinder3;whiteSpace=wrap;html=1;boundedLbl=1;backgroundOutline=1;size=15;fillColor=#0050ef;fontColor=#ffffff;strokeColor=#001DBC;" parent="C0WDaNFQtQ9nxweYVRwT-13" vertex="1">
          <mxGeometry x="203.291688357996" y="71.94444444444449" width="33.41772151898735" height="54.81481481481481" as="geometry" />
        </mxCell>
        <mxCell id="C0WDaNFQtQ9nxweYVRwT-20" value="&lt;font style=&quot;font-size: 20px;&quot;&gt;Information Broker&lt;/font&gt;" style="text;html=1;align=center;verticalAlign=middle;whiteSpace=wrap;rounded=0;" parent="C0WDaNFQtQ9nxweYVRwT-13" vertex="1">
          <mxGeometry x="191.98057407737554" y="143.88888888888894" width="66.8354430379747" height="20.555555555555557" as="geometry" />
        </mxCell>
        <mxCell id="C0WDaNFQtQ9nxweYVRwT-21" value="" style="outlineConnect=0;dashed=0;verticalLabelPosition=bottom;verticalAlign=top;align=center;html=1;shape=mxgraph.aws3.config_rule;fillColor=#759C3E;gradientColor=none;" parent="C0WDaNFQtQ9nxweYVRwT-13" vertex="1">
          <mxGeometry x="323.98057407737565" y="74.68518518518522" width="30.911392405063303" height="49.33333333333333" as="geometry" />
        </mxCell>
        <mxCell id="C0WDaNFQtQ9nxweYVRwT-22" value="&lt;font style=&quot;font-size: 20px;&quot;&gt;topic config&lt;/font&gt;" style="text;html=1;align=center;verticalAlign=middle;whiteSpace=wrap;rounded=0;" parent="C0WDaNFQtQ9nxweYVRwT-13" vertex="1">
          <mxGeometry x="314.0944981280084" y="137.03703703703707" width="50.683544303797476" height="20.555555555555557" as="geometry" />
        </mxCell>
        <mxCell id="C0WDaNFQtQ9nxweYVRwT-23" value="&lt;b&gt;&lt;u&gt;&lt;font style=&quot;font-size: 26px;&quot;&gt;Zookeeper&lt;/font&gt;&lt;/u&gt;&lt;/b&gt;" style="text;html=1;align=center;verticalAlign=middle;whiteSpace=wrap;rounded=0;" parent="C0WDaNFQtQ9nxweYVRwT-13" vertex="1">
          <mxGeometry x="195.87930825459068" y="34.259259259259295" width="33.41772151898735" height="20.555555555555557" as="geometry" />
        </mxCell>
        <mxCell id="C0WDaNFQtQ9nxweYVRwT-56" value="&lt;font size=&quot;1&quot; style=&quot;&quot;&gt;&lt;b style=&quot;font-size: 18px;&quot;&gt;manage&lt;/b&gt;&lt;/font&gt;" style="text;html=1;align=center;verticalAlign=middle;whiteSpace=wrap;rounded=0;" parent="1" vertex="1">
          <mxGeometry x="940" y="180" width="60" height="30" as="geometry" />
        </mxCell>
        <mxCell id="C0WDaNFQtQ9nxweYVRwT-58" value="&lt;font style=&quot;font-size: 18px;&quot;&gt;&lt;b&gt;create topics type schema và payload&lt;/b&gt;&lt;/font&gt;" style="text;html=1;align=center;verticalAlign=middle;whiteSpace=wrap;rounded=0;" parent="1" vertex="1">
          <mxGeometry x="670" y="400" width="100" height="30" as="geometry" />
        </mxCell>
        <mxCell id="C0WDaNFQtQ9nxweYVRwT-59" value="&lt;font size=&quot;1&quot; style=&quot;&quot;&gt;&lt;b style=&quot;font-size: 18px;&quot;&gt;take topic&lt;/b&gt;&lt;/font&gt;" style="text;html=1;align=center;verticalAlign=middle;whiteSpace=wrap;rounded=0;" parent="1" vertex="1">
          <mxGeometry x="590" y="490" width="120" height="30" as="geometry" />
        </mxCell>
        <mxCell id="TvYVOuvGwIo_3C9jy05R-4" value="" style="group" parent="1" vertex="1" connectable="0">
          <mxGeometry x="802.47" y="280" width="407.53" height="326" as="geometry" />
        </mxCell>
        <mxCell id="C0WDaNFQtQ9nxweYVRwT-24" value="" style="rounded=1;whiteSpace=wrap;html=1;fillColor=#cdeb8b;strokeColor=#36393d;movable=1;resizable=1;rotatable=1;deletable=1;editable=1;locked=0;connectable=1;container=0;" parent="TvYVOuvGwIo_3C9jy05R-4" vertex="1">
          <mxGeometry width="407.53" height="326" as="geometry" />
        </mxCell>
        <mxCell id="TvYVOuvGwIo_3C9jy05R-2" value="" style="group" parent="TvYVOuvGwIo_3C9jy05R-4" vertex="1" connectable="0">
          <mxGeometry x="38.75999999999999" y="59" width="330" height="250" as="geometry" />
        </mxCell>
        <mxCell id="TvYVOuvGwIo_3C9jy05R-1" value="" style="rounded=1;whiteSpace=wrap;html=1;fillColor=#d5e8d4;strokeColor=#82b366;" parent="TvYVOuvGwIo_3C9jy05R-2" vertex="1">
          <mxGeometry width="330" height="250" as="geometry" />
        </mxCell>
        <mxCell id="C0WDaNFQtQ9nxweYVRwT-37" value="" style="outlineConnect=0;dashed=0;verticalLabelPosition=bottom;verticalAlign=top;align=center;html=1;shape=mxgraph.aws3.topic;fillColor=#5294CF;gradientColor=none;container=0;movable=1;resizable=1;rotatable=1;deletable=1;editable=1;locked=0;connectable=1;" parent="TvYVOuvGwIo_3C9jy05R-2" vertex="1">
          <mxGeometry x="59.99774193548387" y="106.00414634146364" width="29.677419354838708" height="70.02439024390245" as="geometry" />
        </mxCell>
        <mxCell id="C0WDaNFQtQ9nxweYVRwT-35" value="" style="outlineConnect=0;dashed=0;verticalLabelPosition=bottom;verticalAlign=top;align=center;html=1;shape=mxgraph.aws3.topic;fillColor=#5294CF;gradientColor=none;container=0;movable=1;resizable=1;rotatable=1;deletable=1;editable=1;locked=0;connectable=1;" parent="TvYVOuvGwIo_3C9jy05R-2" vertex="1">
          <mxGeometry x="149.9967741935484" y="110.00414634146364" width="29.677419354838708" height="70.02439024390245" as="geometry" />
        </mxCell>
        <mxCell id="C0WDaNFQtQ9nxweYVRwT-36" value="" style="outlineConnect=0;dashed=0;verticalLabelPosition=bottom;verticalAlign=top;align=center;html=1;shape=mxgraph.aws3.topic;fillColor=#5294CF;gradientColor=none;container=0;movable=1;resizable=1;rotatable=1;deletable=1;editable=1;locked=0;connectable=1;" parent="TvYVOuvGwIo_3C9jy05R-2" vertex="1">
          <mxGeometry x="249.99870967741936" y="110.00414634146364" width="29.677419354838708" height="70.02439024390245" as="geometry" />
        </mxCell>
        <mxCell id="C0WDaNFQtQ9nxweYVRwT-39" value="topic:&amp;nbsp;fullfillment.test.postgres_streaming_elasticsearch" style="text;html=1;align=center;verticalAlign=middle;whiteSpace=wrap;rounded=0;container=0;movable=1;resizable=1;rotatable=1;deletable=1;editable=1;locked=0;connectable=1;" parent="TvYVOuvGwIo_3C9jy05R-2" vertex="1">
          <mxGeometry x="149.99709677419355" y="199" width="34.83870967741936" height="30" as="geometry" />
        </mxCell>
        <mxCell id="C0WDaNFQtQ9nxweYVRwT-38" value="&lt;b&gt;&lt;font size=&quot;1&quot; style=&quot;&quot;&gt;&lt;u style=&quot;font-size: 24px;&quot;&gt;Kafka Broker 1&lt;/u&gt;&lt;/font&gt;&lt;/b&gt;" style="text;html=1;align=center;verticalAlign=middle;whiteSpace=wrap;rounded=0;container=0;movable=1;resizable=1;rotatable=1;deletable=1;editable=1;locked=0;connectable=1;" parent="TvYVOuvGwIo_3C9jy05R-2" vertex="1">
          <mxGeometry x="71.18" y="21" width="187.31" height="31.83" as="geometry" />
        </mxCell>
        <mxCell id="TvYVOuvGwIo_3C9jy05R-3" value="&lt;b&gt;&lt;font size=&quot;1&quot; style=&quot;&quot;&gt;&lt;u style=&quot;font-size: 26px;&quot;&gt;Kakfa Cluster&lt;/u&gt;&lt;/font&gt;&lt;/b&gt;" style="text;html=1;align=center;verticalAlign=middle;whiteSpace=wrap;rounded=0;" parent="TvYVOuvGwIo_3C9jy05R-4" vertex="1">
          <mxGeometry x="104.08999999999999" y="20" width="199.36" height="30" as="geometry" />
        </mxCell>
        <mxCell id="TvYVOuvGwIo_3C9jy05R-5" style="edgeStyle=orthogonalEdgeStyle;rounded=0;orthogonalLoop=1;jettySize=auto;html=1;entryX=0.5;entryY=0;entryDx=0;entryDy=0;fillColor=#0050ef;strokeColor=#001DBC;strokeWidth=2;" parent="1" source="C0WDaNFQtQ9nxweYVRwT-14" target="C0WDaNFQtQ9nxweYVRwT-24" edge="1">
          <mxGeometry relative="1" as="geometry" />
        </mxCell>
        <mxCell id="TvYVOuvGwIo_3C9jy05R-9" style="edgeStyle=orthogonalEdgeStyle;rounded=0;orthogonalLoop=1;jettySize=auto;html=1;exitX=0;exitY=0.75;exitDx=0;exitDy=0;entryX=0.75;entryY=1;entryDx=0;entryDy=0;fillColor=#0050ef;strokeColor=#001DBC;strokeWidth=2;" parent="1" source="TvYVOuvGwIo_3C9jy05R-1" target="TvYVOuvGwIo_3C9jy05R-7" edge="1">
          <mxGeometry relative="1" as="geometry" />
        </mxCell>
        <mxCell id="TvYVOuvGwIo_3C9jy05R-10" style="edgeStyle=orthogonalEdgeStyle;rounded=0;orthogonalLoop=1;jettySize=auto;html=1;entryX=0;entryY=0.5;entryDx=0;entryDy=0;fillColor=#0050ef;strokeColor=#001DBC;strokeWidth=2;" parent="1" source="C0WDaNFQtQ9nxweYVRwT-5" target="TvYVOuvGwIo_3C9jy05R-1" edge="1">
          <mxGeometry relative="1" as="geometry">
            <Array as="points">
              <mxPoint x="660" y="267" />
              <mxPoint x="660" y="464" />
            </Array>
          </mxGeometry>
        </mxCell>
        <mxCell id="TvYVOuvGwIo_3C9jy05R-13" value="" style="group" parent="1" vertex="1" connectable="0">
          <mxGeometry x="-230" y="200" width="280" height="320" as="geometry" />
        </mxCell>
        <mxCell id="MMB2D70Bj3hJrAFttmzr-19" value="" style="group" vertex="1" connectable="0" parent="TvYVOuvGwIo_3C9jy05R-13">
          <mxGeometry x="100" y="9.5" width="280" height="320" as="geometry" />
        </mxCell>
        <mxCell id="C0WDaNFQtQ9nxweYVRwT-7" value="" style="rounded=1;whiteSpace=wrap;html=1;fillColor=#fff2cc;strokeColor=#d6b656;" parent="MMB2D70Bj3hJrAFttmzr-19" vertex="1">
          <mxGeometry width="280" height="320" as="geometry" />
        </mxCell>
        <mxCell id="C0WDaNFQtQ9nxweYVRwT-42" value="&lt;font style=&quot;font-size: 25px;&quot;&gt;&lt;b&gt;172.30.2.76&lt;/b&gt;&lt;/font&gt;" style="text;html=1;align=center;verticalAlign=middle;whiteSpace=wrap;rounded=0;" parent="MMB2D70Bj3hJrAFttmzr-19" vertex="1">
          <mxGeometry x="110" y="50.5" width="60" height="30" as="geometry" />
        </mxCell>
        <mxCell id="TZkRVpZgQpIInud-tQH3-7" value="" style="shape=image;verticalLabelPosition=bottom;labelBackgroundColor=default;verticalAlign=top;aspect=fixed;imageAspect=0;image=data:image/png,iVBORw0KGgoAAAANSUhEUgAAAWoAAAE1CAIAAABBYj2WAAAgAElEQVR4Aey9d5gkZ3kv6j/ueR4bG4UNM9PTeXLe1a4SQggUSQZMsI8DNsbGGAfMtTEG2wffe3x8MRgQYAM2GO10mLDSroBFQtLudHdVdffMxpnZSZ0m59RdsXOF9z7vV909s0HSLto0q+7n3drqmuqq7q/q+9Ubf+8vQfl1m4yABqBuEw002BL9LwrA68r2Y+C6BqoK5GC4WhRFBZTi29L2woqqqRe8FFVVVE3WP0SWqgIFUQE0rSjbvnLx62vkJIoGMhGFfJfb5Jrt9J/xSzv9B5S/f3EEitNtCzMuhyAXo8M2wNH/dLnDkAmuagQxChCgyYomq5qCQIGilUTD14WHRXgo/F3VdITRVCjIZU9I8ETfU9EQpmQN8kRkcujijy7/f1NHoAwfN3X4r+PJt81KfTbjbC0+5ckUVC6c468BLBrkAEQAoSQa8Brw5K1I/iQBlCSNCst2NeeiQ+tfbeu3qwD5ouQAz5UDyBZXSltKK+rWR8trN3UEyvBxU4f/+p68pAMoAHJxfuYBchrkFZCJKAooCqgyaDLZ6bJLDcEguQ0gJIQMbTtwJMkOZKllEKcuCxmljdvAjYCYjhfZC1EjfzlbC22d6zts5aNf8QiU4eOKh+rW37E0J7e+qlbU/HMaZDXIEElrkFRBLEpShZQKGQUxRS0pDdtxhNhDup9DRc0ClQuVwI7+9iIXyDa7pKTv6CsF18iFHg4EG7RQCFjoAEMAovRz9JXt0LP1A8trN3MEyvBxM0f/ep+bzDuNzHVZhbwKORWyKgERgDRApii6pZAn+gfaNMTIKSgQhWd9SZUh01hTQHs14wddH3g63VVRcHlqioaf0ZHlQqcMUT8uwgo8aWlTCTi2Ycv1Hrry8a9kBMrwcSWjtCP3uWj2kYe7RvQLBX+PbtBsPfI11Dy0PGhZgixJ4tHgAR0cPCDoXODNkDVNJnhAYEQ/bCmYouQhl4dMHrIySk5GvaZgLulhFx2e9G94EThsf3uR7qK/3ZEX4zb90mX4uG0ubGnebakLF83PkmGCD3bdOCltKqgSGnGD5EHLEcUkDZAiklfQObIleVDzmiLj3qoMigxySfKQz0ImA+ksZIjkcpDPgZzHfdDJsv2cV7Ku/7DSnoWfd9tct538Q8rwsZOv3tZ31/FAtz6KgYlimEVPnEC3Q9FrgXqGjheXqihy0QVRmq8KfjCvqQgZiBooOU3Oafm8JqNAnqgbOX2Zg1wGMmkiGchlQc6BkgM1R5y3ugs3pxH/rYYRF3JC3RgqKEdKAY8KhyX6S06GbI7gEQnqbP3y8tpNHIEyfNzEwb+Gp9bIfMySGaqg26CIC1v5FUXtRFPRt7ENHHAd/3iRRaHgwdCayQHiBzpKUBnRtJSmJTVN0jDyQkIw2wK6AIKGb0UNRdIgqaFfNqVCWoWsomZVTSaOVgwm67iGa1tuloJzteibxcAQ0W5QwcmjKJjEVn7dGiNQho9b4zq80W+hEp9omoRX8iSHq+imLOFEyVoh8y8LcgZF0SVLtIOS5oET9ALLJw3qBihrIK+CsgrqGmhroK2CvAjyAsjzIM9dIOoiqEugLoO6QvZfB3UTlDjk46BwoIqgpkBJo8gpkLMYxFEIqumgop+afAVVN7OIG1bXWYrK1RsdsvLn3/gIlOHjjY/hrXAErRhVyWGkA1M8i0/0otJBTBcZUULNgJaRQZe0CikNlQgOIA6wCrAIMAvaFKgRUMZBHoX8MGQHIO2F5AkQXwL+ReBeBP4FEF4A4RgIPwXhJ9vkxyD8VI3/VNt8QYv/HNhXgD8Bog9EBqQgpE9B5hzkzkN+FOQJUMJ4FnUelA0EFyUBKgcqD4qE+KJmiWuFoB0BFHSdEkzZPuIkyVVPdN2+ubx+I0agDB83YpSv9zkwJ5zESslS0fQEU93bgZ6HDChJUAVQE6Csg7wC+Q2QJZBFkDmQ1yA3B9kJyJzRUj5VOqYIPXnuv7Pxb6XW/kVc/rKw8CVp5m/Tsb+WIp/lxv8sPvLpjeFPrQ//0frwJ9cG/2B18OOrQ7+3OvS7RfmdtcHf3zj3p5tnPxs/97nE0F8nzv8tO/JFdvQfuPF/Ssa+kpz8Wmr66dz8d5XlH8DGIUi4EY+EkyCeBWkI0uOQjUJuFvIrkN+EHAf5JKonWC5TjP1g9uzFLxXNq/LrRo9AGT5u9Ii/wfNdPG+K77cq0EgFioZuUhnUrJrlQWbR9EDNYgG0aVAiqFBk+iHpA+4lZf1oZtEhzXxXmPwaG/ry5uhfb57/zMbQJ9bO/tbKqQ8uD7x3KfjEEvOuFeody9Tbl3xvW/Q+uOQjQj2wTN2/TN+3TN+7TB8kcmCZPrBCH1zx3rvqvW/Fe/+K94El3P+hRd87FnzvXGSeXPC/eyHw/qX+D62c+uj62f+5OfR7GyN/sTHxT/HIV4Tpb6YXf5Bfd2vsT0E4AekByI1APgLKHCgroGyieiLzmpJRyOuCojwsu7k2rzd4gd5UHy/Dxw673K82RfREDMzFINWuGsEOUCWQ4+iqUOdBjkB2OCcGpPiJ1OqhzNyX0pN/KYx/Kj748bVTv7nW/6H14PtX6SdWPO9Y63to48T9myfujZ84kDi+P3F8X+JES8LTwHobOG8956vnqXqBrheYOo6yc5SNo6wcZeEosy48bUj6dyeZu5LMXSJ9F0fdnaB2xak9G1TFBl29zpjX/LY1f+1qoH410LAabJwPHpjsf2Tq5JOzZ399Yfh/Lo99ciX02dXw3ydm/01a+WF6szcv/FxL+yE3CMoYKDFVTuTzeZm8FEUpgcirjczVbt9hN8RN/bpl+LhBw098EZpesHGJY7Lopyz8j7GRQtmIbutjTISEKgoOjWI4pZhHTtK+c8QNKRAPwiqocyCPQ+40CK8A97yy7kjPf4eL/sva6JcWz31u+dTvbvS/ayPw4Cp174r3npW+fWuejk1vx6anbbOvOdHXxPY18n2NgqdBRKkXvDW8z8b7rEQsvM/MeU2c18hTJiJGnjLyVLUuAlUpUrtE6i6Rukug7uJ8d7Mou+K+3QmqIsEYEn4j6zcn/JaE37Lpt6z761b8rcv+9mX/viX/gQX/ffPMQ7PMu2b8757r/42lMx/fGPlzIfr3mbmvqCvfgvX/Rn+KMATJEGRnIL8M8ibIAshp4tbJqyqmqMkklpwjsV5Zw5R8EpkiQR89nr3lErrASaR7anU7iexSuGSFu2TL9aIVTak3dRioDB83DD4wtUFPmirAh57IuS0gUqDVQKsjj55OuXRnE/oMkqtRKkUpRVvR6se7PgXZDUjNgjSKTkr+BVj/kbL0NSH0V/zoJ+JnPrQWeHSFetsadf8GfS/HtEm0PUlbJMos+Uyi1yjo4qkWCmIQPNvEV4CGEka89grnq+KpKp4y6CLQ1bpwPsOlwvuMEkW+CWUWaZNAG3nGzDKWBG3dpOzrVP061brBHGCDD4mnHk2e/UB65P/Ohr+pzfwIVp6HOAXCeUjNQTaO3hwlrSjpnJZOQyoJkgRCEtgcJBSsD5YweKzmCbmAPmLF3Dk94EQwQyYBar10j+SkYIpMoUqvCOUkcKwUy4JJCu8NuoluudOU4ePGXZLS7Vc4pf5++2OQbMFsCFQ+FL38VMNClbyiySR7S8MyWS2naWnQinnlWhyUJUgPg0jJ6z9Ozj/Dxf5tY/yLy+c+uXDyN+b971pkHliiO1ao5nWqMcE08v5GKVCXpM1JyiihVIu+atFrEF5DfIbXxotL/nrB/gJtJFJ9KXZwPoOA8GEmYpIoo0hXC0w1z1TzfjMfsLFMzSZdv0E1bfjaNqn9G/R9K8wjS8H3rJz62MbgH3PjX8jMfF1dcwP3EqQGIDsGyizAmgpxGbg8CHmQZMiSQZNlVckpSl5FOEDR80+2jz/6TwouWlKcg/kx+l54yUrXrwD/egbcm9plW4aPGwcfxaijniGql6jrRWt6uheJUBZVEhU18LgMLJkDyTzOgTzye2lZkjTBYj6FPAvZCU04ld94iZ/+TiL8v1bO/9X8mU/ODHx0OvjUJP3glK9t0d+07K9Z81s2/MYEY+AYA08bRLpaonXsMIoEPgRftYAz+VWkaJhcAhNXpJUUtA/qNeDjAu2DwIeB95v4gIXz17BMPcs0sUxrgumIM+1LjHkusHc2YJoN1s8NHFg8+/jqyO+sh/4qMfkv0tIzKn8CsiOQnyNGjQiyjAnzcqGkF9kKCtlwCkmixzJCDblFMoCInEYFsUB/VmI50JWTYtB4y1jRY+Nb72/gnXSrnKoMHzfqSmxPxCg8vvSsS71WfZtRosmg5BUtm4FUFiVJHqGiqiUwWQujJxHInQLpFS3em1787mbofy8NfnY2+NHZwBMz9CMz9ANzzIEFf9sS+hQsm/2mRL+BDVZwgb08s0eg9wjUHoGqEOlqkUbsEC4Qw4Vvt/76iwHHJZ8qmDMlu4asmATKJlBWgTYLtElgjKh6MAbeX837jbzfyvtreH8972/kmWbO37QZMK7171rt37vcX7kQqJ4L2GaDrTMDD86cfPfiud/fmPiiMPWt9EK3uv4KCGfQPyJzoKYBsoqWzamZjJpNa9k0ZtPnc1jOl1OLCbVIWaLlifpBCgixQEdPvCVGJ0mP1W+XkiJyo+6eW/Q8Zfi4URdG97Vty+vU8aTopVPIMzBF+Ls40OKylk5qkNbUHKohSQXiGnpDRyFNq9xzmeXv8LEvbYz+0crZ35gLPjrtO7DINK347St+y1rAtBE0bAb3bgbuTgTu4AJv5QO/xjG/ytO/JlJ3SNSdSfpuid4r0AZdKbhkhl+RQvHanyo5O157t+JfzTxt52kbT1t4xsxvwYdB8FcLfpPgtwiMTaDtPFWDsR5/JRu8k+1/a7z/Lev9v7za/8urp+5YPV2xEDTPB1rn/A/P+T+w1P/H7NA/yrH/0JZ/rInDSnpKkxc1bUPW2ByIaUilsCQnl4FcDtW6jIaVgYQPCccbCK2qiunyeqEPgsgFbiuEDz3H/0bdPrfmecrwcaOuS8lVT3ye+jtdl86hCw/zvoizIw2aRDIvs6Q0NUOSHabVzNm8+GI2foid+X/Xxv90efBj8/2PzjH3LdAdy3TrGtO4QVs36eoEU836Day/gvXvZpm7WeYuwX+34N8l0Lt4arfgqxB9lZLPIOq+DLqav0K5SuOl6OzYCscQpLjAIVLEjmqeMnO0nYiVY8wcYypoH0yVwFQJ/mrRb5T8JslvkfzWpN8u0DUCXcszVo4xxP174oG7EgN3s6f3rgX3rgXMq/7GZfrAMvXIGvPrif7f3jjzmY3wP3Pz389zz0GeAhgGmNRgRYZEHtW6rIysa+jgwEgK6n3Fwr4toCdJeSWXCHGcbvlBbtTtc2uepwwfN+q6lOCD+PF1x32JrieHN69+B+cxWVtOYdV7Ng/pdZDCcqJPWn5mI/qPi+c/Pnv6ifmTB5cGmlcCtjXGuMkYErqvkaoQqD0ivVek94j0boFCEUumCmUQfSbRZxW9VtFjE7wWjjJydPWlwlKGS4W7BvCBMZdtkLGl43A0wgdL21nGxjIWFhHEyDMG0W+QAgbJb5D8VRJTlUQxJBmL6G0RPfdKvv0S3SIydt5v4P27+OCdRHZxwQoOA8O1LN2c8LWv+A7OBR+ZP/uhtYlP8XP/lNr4gZx8UZOHAOZUYFUtrWCWXSnCRaKxpVhYqSgZ75FtHAfb939Tuz6gDB/XHj4um6dE8jhUnexCxRp21JxJ0RqWruUxK5vwaSgyGiuZHKRnsU5k5Tkx9p2N0S8un/vE/MB7Z/33LgZbV/trN4K2TcYUp8ysz8L77KLPLvlMks8g+apFolzgkjKIVDXvNfA+I4+72QRfDe+r5b21nM/G0VcKHxxluHr4KERqt+GF7vXYQo3SnzjanKDtCdrG0laWNrOMiWOqOaaKwEcVwY5KialM0igSXS3gT2gRqSaRqRcYu4DaShXPVIjBKjFgQLcrbeIpK+erYT11m566Dbpxzd+xHHhgof/JxbO/sxH+O3HleznhmJY7A3IM83G1FIZhZOJW3QqWkytWUEuIOxWVFB1ailtJbfO1v4F2zhHL8HHtr9WrwAdyeWlaRtHSMqRzkMqAlARRAiENUg6SKt7EaazvSKdgk4XFF7TYl8ThP1nr//AS885l5sAK07jKmBNBIxes4phK1lfJekx8n13yNKS8TUmPPek1S1tiEb0WARO9bLzPzvlqOF8t56tlfXWsr56l7K8GH5fqIxx9mTlfmvxvfIWlzXHalqCtCdrM0iaWNrKoFlXxTKXorxCZCompSNIlqRRoM3GU2Hjaiu4S2kJ8rmaJsaBgColF9JkFr0nwmIS+Ksm7W6IreNq0TtUtUB3zwUeXBn93LfwFfum7OfYFEqZZgqwI6Ty6UGXi9yAZIbppiVEZFf0hSgFjyGopwFvWPq79BHpzH/Gy8IFlbCArak7GtEh0a2CGkpxL50RZ4UhIZQbUUcj48+s/3ox8f+30p+PMwxvU/Ru+ezZ9bQmqkaVqWMosMCaRqRZoA09VYXYWBlxNIsn+wgQwn0koCu8z85SZx3RyC0tZWNqSwOc8CkubrjcoXDmscLQpUfhuOnYYOdrA01U8XSmgVIh0hURtCc/sZQN7OX8F56/i/Aa0dDBkYxFoi4hiFiijQFVh8quvQvJUJl8xpPtMaZ9FoKyblHWZrpv3t88NPLI49JvLY59jp7+V2zgGyfOQXYAMC/lEXo3nVCmHNEiIGjlAqhLin1KKUd4cXsCi0/uyl/tNMgPK2se1v9CXvZ9I9hFyWuh1sMiBozPx5DJYWipHIO2T48/ws/+wNPoHsZNPLtDtnLea91YLXqPoNUkec9JnTdO2FGVBO4WqFukqgd7LM7t5ZhfP7BaoShJz1fPHcUm8G0YOH+b4PE8whjhTFfdXxv0VLFNJIqbXV624QgTh6GryDQvfE3GNgCPJWyUogFnwlRI6fStFai/nvzMR/LVE4A42cDfr38syVahJIVCaBcpEgj6VAjqA7haZO1O+itzxmvzx2lyfJeM1SPRujrl7I3D3SqB6PtgwE3xo9uTHls9/gZ/+obLxMojDIIc1mFS0pbyayCkZzNgrpIoAyRPJqoCkKsX4LjpNLnu5r/1ddUsesQwf1/6yXPZ+wo16tE9XPDBZKQtZATLzIJxR1nr52P+zNPTbMycfmBmoXzxr2BwwipSJJJWbhT4Tf9wknrCkfLak1yJ5TRJlEJkKwb+Lx1n0qyyGZnfzdCVPV3G0gcgFblGWrmKZSpbZy/r3sP7dHFMhUK+a4nHZ1I8rxIJfbLfid8ZvTrCjmB7iqyplsuk+HcFXxTF7E/7dCf8elkEcZPH3VhdtsSqOrkAwZe4S/XeI/rdKdEXSUyedqBOPm0VPZZLalfTfJQXu4IO72QHTen/Tov++aeqJaf/vrg1/PjXztMb1gHwC1DOgxUBZ0/JJVc5jUwpSSUBIUtIKSWNFcjZSmXTZy33t76pb8ohl+Lj2l+Wy95NOdaMqqprLo+cUS1TWgB+DlZdT0e9tnPvsvP/d80zb8kDl+plf2Tz7S4ngW3hvtUSZU7Q16bWKfRaxzyJ5LKLHLHqNIlUlMnsF/91c8K1s/1sSwbew/rs4Zi/HVHB0JVcAER1BdBcpziuO2cMxuzlmF0/vRccq+lmvSISrjLxcJYigIUasFb1SRi+WIRlraJoZi6LbZfhzWMaAshU50hGzkowA6hc8cyfvv0MI3MEzFXFvTcJbx3otImVI0bszzJ0Z+i0Z/1uz/XsEf9UGbVmmmhaY+xeDjy6cfN/ayJ9I8/8fspDkaFCjyBKAxCg5VUOy1Tw6SNI55JFXCryyejXjJZf82t9Vt+QRy/Bx7S/LJfeSvoHE/pQ85FnIz0DmNCSeT89+nR397MrAhxaph1aodra/RTrZwPvNG3271k/s2fShYS/4zZj1wKC1IqKFUino1Wg4eUwso5eumlGHR+yoIk/vaiyE9ZkFH3pPydKEaemoceAREH1ImEbyVb+uiPjB62jmED9FhUATIb+uoBn5jEVXjlko/BaL4LNgnghl0gPP+GPxJxPB+EtR88IdLDxlTTCW1UD1Wr8h3l/NBw1Jf1WGqsx6K9In9kgv78pQ1ZmgjQ/YVmnLEmNdGqibDz600P+xxOgXlPkfAOuFVIxQK6VASyuIHZgHnIEc4VkknlYsULrM69rfVbfkEcvwcY0vC7FQtFLHaKLg6uVXCsZnVQHkGZXv42e/tTz86fmBpxYDB1aZ2g3awqFPtEbw1nPHm8TjHbyvPu43xpnqBFPFMhWoNdC7eJQ9PF3BUQbWZ2YxktKYoFpZuoWlLRwaL3puhakAHF6b4LWLKFYMymBw1/i6eHHpDtcfPvYKlC4IjiX4IKhBHMAYeL5QkCvAiB4c4mRFPytjwGpd2oIUJL46ztvIeVs2aPvSyd3Lp+9eHdi94d/D+SqTHmPOY1U8NqXPmu0zprxVIr2XC+xO9N+9efKt68HaFeZty8wH10/+mTT+LW3xJeBHIbuCXIrAySBkQcpANgVqUm9ggfCxxTlC2oUj4cpFBXbX+Ca7ZQ5Xho/XvhSl4gayUiLbLGzWzd/CraLoTIFYXJHLa9jMTVXT2HVJI51PUhuQnQQ+yEcORb2fm3jhw3Mnnlj33bvhaeB8GCwQGZPA2FhfbdzbFPd1sHQdSxvQZ4HGSCXxa5BloRC+Gh+/+By2Fjl7jEWvQTWZV0b0I+JDWxdTwQS4oMJlq6Tlsv6O7Ruv0h65Km3FQCCjqrg0bPPLGAXECF10bpFLGUaKjpICdBr1eBOhJrGxtGkzsGczuCuOabh7eapC9BmSPlPKZ075LJLXLHpxlHgas11ZpnrTb1oPWtcC+1b8jyz7f3PjzN+kY9+FjRchcwbd2+qCBps5LZnWFKSQ1wCJzzBnB5PP1K2cEY3E1vTQDW7VE82uJsir32GvfXPe/L+W4ePVr0GhsK1Y0a0XOWzHk0JTAZKzSLpOY2U4QDKflvUiTlWEPIfWisxBZjI707t2+p/DL/7R+WffM9p1b7S3aekndu5la9prSmHRejVHmeOUfYNuWPO3xZkaPfSwjThDn5P6XLqq+fkm3hl1kz1F2ctjAojuWyEoU8iLqeG9dbpwTDU7sCvRb9oINCxTB5eoJ1b6f2998G9Ts9/VEscgfw5gDoDNK5msjG04cyr2ptHL/wutczB5mPTrw2gv1lITAgZMPLua2v7Sffbq9+ct8JcyfLzuRSAX8mK9g2gc+h1BUEbV5JySzSl5THTWtyt5UERQVyETzq5TbMwZ8/3NmWc/EnQ8NtT9yGjXwZHO2qjbtPITK/+KTehDDwVHWRK0ZZOxrftrEoy5qHFsp955EwPBL+h/qSKQoQNHBQ5pQX3T4QOTcXmfnffV8F7Mx8XiPUyctyeY+g2mbZU+uEg/PEM/OXcK01Wz6/8NGS/IYcivkwZY6EEl5CwYkCcULRhXU5UsyX4vmDC6jlrsQ/G691tph6tRVkofurErZfi4svEuPQy2rxQfKBqWXaVlLamgqUISivDBlMWEjtRocv5oOPjlgR//zunn3num+51nXA8Oue8b6z4Q7m6LuGpjbtPiUfP6C1bOUyMwNXzAkvCbNvyGBBaMVQolv+A28q5bJ2Xjelo01wooDUUUvsD0IwaRmfhTdAbGAoiIVL3oa+C8tehXYurZ/sb4ydbVkx3TzIHJ4KMLQ5/kp/9VjR+D9CgGzrJZPZ8Mr7msqNhQC3vRIJ8TprwXNA5yyyg6W+KV3W07Zq8yfFzRpdoOGqV13XYhyYd5kk2URL4ZNQuZFGQlSK/C+un1kR+MHv+L4HPv8Xfdf9LVPvrswbHDB4ddbaOu9kjP/rCrZfRH1rDTMnvEtvbzWtZbwzNmzm9I+DEEi/Wm6A40FEDkMghS8gtcVNt6rebebXCcomekyJxIIK/kTNERRHfKIo5IvrqUr1n01gleG+urTjAV8UDFRn/lctA866+bYh5YOPUxPvS/YKULxCCSiSgpHSQ0JG2W1UKfcXSDFCkQC139SL3M7cZsWIaP14ePUo9YJPbZJvlii1ZiBWfQE6+KkEuAnABxOjN1fM7/jbNH/4BxPtLf1TH0bMugyz7eUx/qbZ7obhlztY072yac7ROO5glHXaTLPnPEunjMuPZyZcJbKQQqpIBBZIwkP72Qok60bl33LmRGkEdoyZV4G0z1G/MTtmOuifhZ9ex+krfqtUmeuhRVk6KsIlXBUnfE6V/dYH5ls/+u9YGqJX/9HHVwjnrf5pm/UKe+CfFjkIuAxiFxpJZTVVUv988Qn0cWO/vmZcgRmjjs3UU0kte/33bQHmX42H6xSopFYaP+vqBlFFkw9VoHrM8swIemqLKGrZgkyK6DFAPhnBDuDr38t6e7P3La9chZ1z1D7sbRrppwjz3ktoa76qK9reGu9jFH67hrX7h7/4SrNeSuD3dZY72Guecr1n5exXkNIm0SMZRr0tmDBaxbM/BUGT5+AYjZjhfb1/VDbd9i5L1VvLdCoqpSTHWSMUhMJUnP24PZ8YGqeMC2QtXPHm+f97w9cerD6YnPKRvPaCkKlCiocZAVmZCXpQl/GWkPLuVBQjoijbS5KvhOS7fZ9pXt9+GOWS/Dx/ZLdXF87TXhQ8trskwK7VUlDXkB84tSUUgEpv1fOX/sU6e63j3Y9VDo8L3Rw+2R7oaIu2ayyx5z26Ou2rCrIexunXC3j7k6Rp1t4+72CXdTqKs20m2ZPmxcfN609jMT12eVGJvIWEW9olTPcUD7pcRgrgdoS+HMX2BevUk+UmooUdLUdMjQf/4F1o3A7BX9d/P0Ls63h8cSG6NEm5KMWcT8PSPvN7N+W9xft8E0bTDtK4GH4pE/kVafhtRLkA9BTkCusjy2/yTsqbkccjULCqSxYkE3ZvB2031m25c7wEu6fZ6U1svwURoKnRJG9zTeX6oAACAASURBVJaTjTp46DEWnXK7cOVVhfR0ltUsllNpKVBYUJYhNcrGesdPfPHk4Y+e7n500H3vqLs17G6MuesnnbWTzrpJR/2kozHmbIo6m8Oulgl367i7daKrLdzTEepumXA3hNGTWjPTXbtwuG7tWA3vrUn565P+OoG28lgMZizqICXene0To+z+eDU03D5KerJZaU8dO0rJ8lWYnhd4K8fswlwbyiz4akVfveirF6haAVkOzCxtjNOGTcawThuWGWuY3jc1+GF+4f9A6uegTENe0ntsECtGzmhCDkSs1y1SVWI+YYESoFixu93Buv1m3AnrZfjYfpUu1D6KqmXJ96FiDzdZVrJ5OZWXk6BlMDQrr4EyA0Jwbfy/hn7+Gcb9nrO97xzqOjjqag05G2LOumlX7bTDPu2om+psmexsizlao86WsKsl5G4edzePdzVPdLXgirNxwtEYdTZPuVpn3R3zz9atvWjhvfUS3SBQNZgERZn5i/utbJ8YZfgogcJFKxeaJ6jH6TsQ7CjFtsgKx+xJBO5K+CsSWMVrF3yNgq+JCF4FAYnRDCy9N8Hs3qR3rzIVK2eaYv0HIsH3roe/BPzP9DIZLSvKubSqyTpSYOcq5HrHB5GGG9FpVvSbFdr1kAfTztNByvBxAXyQsvrilhJ86P50kleoqVkMr+jMujkOUquQHJfXX1oa/sqpn3zM53hwwHXP+Z6DY+59IUdbtLNlytE446ybcVinHbWTne3Rzv1RR0fE2RZ2NYfcjRNdDePuhjFXw5izcdzRNOFojTg6oo57Jh0Ho87aqcOG1Rfs7IlG3luPiQmYoWDmfdufn9vh46I5U35bGoHtpkppY1HvuBA+WMaw6a+OM2ZkP/PV8ggfDQJqH3ZCKWLkSUUiS1clKMMGbVwbsM/4ayK+tsngE6tjf5Fc+h4kKdBmILuJnlNioKjoE8kgHRRkSfgWg7sahnz1srsSgpThozj1duL/JFZ/OTZ+zCPUQJU1OY3+UU1EPnQtAblF4M6Lk4fD1BcHjnxgoPeBwWf3j/S2THS3hZ1t0UMdk8+0T3e2zDoaZhy2KUdt1NEWdu4LOzvCrtYQgY+Qu2HC1TDurJ9wNoacLSFHW9ixL9x5T/jQgYlnakOOqplnLas/q0scb+C9DYKvjiRim4t9IQvJ6cWc7tLEKK9cdgQu8HEQP/SWzUI8SvgWk9wZW5y2J6gaAh91AlUjUjaRNpPWFlUCFhBgfnDCZ4v77OuMZS1oXemvmwu0RKj7pk99VJz7CqReAW0KA3C5PAKFogJmgojY6U5Lq1pG1bIagZILEaQMHzsRNorfuahtFGi0C/8VPFwacvZj7TYHagIJMjMzkDybnXRNvPJXtPOpfvd9Y88fGH+ueajTEnU3xxxtk8/sm/rRvulD7TOOlmlHbcxZN4HWSsu4u2XC3Tzhbg65msOu5rCzKeRoDDubI87WsLMt7GwP6eJoCHVaI07zzGHb6s/q2RONAiJI0YrZ0sBLIHLZOVPeWEKNS8CikL1e2gFXEBdoG0vZkc/RZxMom4itM41Y7sxUiLRe7mxG8kcsyWuS/I0sbVn3Va7QlQsB88LJ/StDH9oMfQHEFyA1hiULmHwsa2pGQSeIpGgpRBBsDYGaSBk+ipNv5/9/YZpgoRAO9U+kMc5jE2ZFxCA/bEJ+Kc8Ob4x9P3r8j0/1vPtMz8PnD9877Go432mPuOunXM1TnS1Tz7RNPdM+fah92tE25WiOuBrHuutHeupGuxvGuhoJfLRGnG0RR1sEvSFtUWdbxNUaRmRpHO9qCLsbI476UKc16rbOH61Ze7EucbyO8xATBpm1SgZ8GT5eGyK3SnK3SvtLBgvGwi/4OOEBMHFYzoulhsgCiX08DRJdIdF7JeRqNgiUlafqeV+L4G1N+hr5PlOib1eCuSs+sGt1oHo+0DodeCo+8Q/5lecgGyV9NpK5rJhTsFO3oiYVNYUgQrp2l+Fj58NG8Re8KnzkFcKLLpGHCWKHuDY8ff65M8f+4GTPgTPdB8aPPBg6fN/wj5pG/7txvnf/rLNlprNx+lDj1KGmqc7WKUdHrHN/yNV6vtc2fNhyvtc+2l0/7m4Ou9qijn3Rzn2xzn0xdHm0hV2NE1214922sR5zuKs+6miJdNbHXLXTvfa5I9blY9bEcTvvtZFMpzJ8XDDtL0KBbW8vTFovAYe+cgl8ENqR3SK1l9AjGpI+Y4qqTlGGFFWVoiqTVBXSRFJWgaoTfE2it0U6UZ86YU37KlKBuzj/L6/Rv7Lkr1zs3x+l3rt8/kvp5aOaNKJl1+VcKo/tZFQZ4SNZho/inLul/y/FTPSKN/Jdt5sohS+P9gmJzBI+wYur4UgNHNL88JBeAmE0vfjy5MC3mWf/+FTvu4Z7m4fcTSPullD3vljPPTFXe+RQ07SzecrRMNlZH3M0xJzNMSfCRMjVOtJTc77XNtJTO9bdMEHggzhK9yGIONojjpaQs3HCXTveZR/rtoTcdRFnc9SJcd9Ylz3WbZl9zrr2Yi3bV897a3ivlTAhG/Wa+kuqYF4t1nCFU+522u1C7WMra6Zks1zwY4vwsUekKiRfVdJXnaSqk5SBSFWSMhD4MKMn1Vcn+urTTH2SskpUpUTtEuk7OOoOlqnYDNTPnNg3Tb9/afDzwvwhLXUGYBlAVFVJVURFlRSSS0ayUdFExn+F8rpCpntpwy09veC27vNCSBdkBfKEkYFk/JUUDN2jUbh0sgZIz4HUPuQqakjdkM9jA1RsUqipCrZDzWDHJnXh6Bz91+cOP3mua/9od+tEd1OoCyXc1Rx2N0dQmiKuxoirQZewqzHsagq7mkKupgl3I5GmEDo+MHYbdrWiOMkS3zaHXE0hd1PI3Rh2N0ZdDWFnXchRE3LYw66aWJd9qse29rOm+MtN8VdqEyew25OIrOKVvG8vcf5tTyTbSsQuulq3KywXzJltz+rbcnsJKS5dufT3lshHttOOYFPxohhJAo6J9Iswxf2GTX8Vy6ARJHmNKY8p5TFKXgtP1a142qa9D8+d/riw8DTkjgOMgjKHfFEgqSDKkMni3YV+VcwoK3AfpjCNCNmYcdvVFPjfHJy5nQO3VwgfGvo2cqTRaRE+sNxaIfBBqLYxMYyDdCwzfWzG9/cjRz4w3HXwvMs+gZnmjZcRd0PoMtKI0RZXyxUKwpC7PuyqDzvrws66iKs+6q6LddXMH6lfOdYQf7mB99SL2CDKJCCfMFIfExTQ9Y6LSjm2Z1teOmHKW15/BAiBuw4cW0se6YUqNwKVccbIUxbJY0v3WTN9prTHyJ2oiFP2lUDHbPCxucFPJua+qqWPAYxjwA5DMIIMaR0+5FL7OtQ8MphMhI1lEE/K8HFzQFE/K+FZ0MmgkBYbN27XPnQrhvQSU0CWUUnBLgpYFIfwoeW1vKwkAURQViE5kZz72ST1zye7PzZw6O1Dzv2jrkbUEa4bfIRdTSUVRl+Juuui7ppYt23uOfv6i/VcX4PorRV9FtFnFAlt+jYlYns+SCmrvWTRvP5s2Xao8s44Aq8GH3F/1abfkKDNWK3rsaU81rTHlPQaWM/uBGNcDzbMMgdC1ONTZ/6Qnf8qiK+AvIg5yqogq0lSUKfKhCwVoUKn4CfMZCoSu2O892bOnys49+2sfRC4KJDpF+Moxf9LHhCygTRHxjbqedQnsRmcrMoKVsGRbHRxKB7rHe/70snDv3XK/cQ55wPnXfvD3e3hrpYwmi2XiBuR5WJB++UqtA+0YpyNYVdjxN0UdTdH0SZqCLtqIi7rZLd14Xn7+ou17IlapDIlwUVC6qeX1V0UTSihxkUrZVx4wyNAGxIMCosJwVbJa0t6rCmvMemrlJi9CWbPut+4HGya9d8f8z8xc/p310Nf0TYZSE+BvKnl+bySUVDtTauQBrSdCVMMMZ8JfOSJMnwFk/jm7XKbw8e2gS0CRoFzsKB76AVMevPSHF5D0rxJxTRBbBmprII4nIi5J7yfD/Z+MOh6aLj3bWM994679kW6OiJY0tJ0GSGeDpz/F8tVwQdJDHG3RNytUXdr1NUSdjaGHHURV03MbZvsNs8dMa++YEscR44sgbITB4du229PcLgUSnS7xlTWL67FCOjE7gYS5bWKXpvktSLRNFWRDO5mmTs3A7s2B8yr/U1zdMc09eBM4Pfi49+R17zY3EfhNTmLURjgVWA1SODdV3TJEV0EWQ633cC34urtDh9F0CBqoG666KVKhe7phU3EZiHwgUqjrGU01DtWQBwUp3rDni+cee43zvS8c7D7npHujvGulgni5ix4Oi/GiEtRQ9+CcHCFjo/SbmFEqNaIC4UkmDVE3fVRlz3sNEW7qgmC1CSO1yPLHnYwKGkfeu8C7Bp1mQpd3LMMH29Y9dBHm+SeEVZqi+i1il4Lts6hKgTmbj5wF9+/iw1WbPiNK5R9xdeyQD06G/gkG3oaNr2QmwFZAIVXNFYFVoW4Ckm8DQkzKhrRGA0sGy83ETQv9nQUyx7RLVXq8kMQnyQW5xH/IY9RGB6UBRDPcZPuiOfzZw5/aLD7HWOH7wv1tk50NUy4akLOWnRquhov0S9eDTt0y+Uq4IMEZdrC7rawCyWEOanNYYfuEKkNO61hpynWbZo/alt/sZ490YAVMYVcslLXpUpC86mztG/nB8ZWKdfi2XtNZuCOPkixbw62s9K76ljQiqQrOepuMbBLDN7F0Xey1G5so+ezrHpb5uiH5/s/zk18AzY9kJqH3CaJxQgqsAqICqQxSkgqr7An8q2OHrd14BZHv5Byrrs8dPjQsaNUrYRUDOggIXwueVBUjQd1UUue5qYdEd/fnOp57xnX28e67p3o6oh2N0e7GiIue9hljXTZwu766wsf7vaQqz3kakNxtoacLYggzsawsz7iqo24bFG3ZbrXtvSThvjLTby3jvOaOR/SC4kYCKjkqL08rUuJXhx7R5HCGV1V2dFT9+Z/eYEyiFQFyTGrIq1wdMOQdMygK0Rmr0jv5n27RKoiRRslj3Gzz7rCtEx73zYf/G0h8lWIvwLZEMgboAoaRltyxH8vKxrqIHj3luHjJiofrw0fWDSN3lKFxF70vB0sbQJ1VU0NJmYcE74/P3n4ybNd94523YMlcM7WmKM55qyPuWzRLmOk2xB211w/+Ai5WicQO0gJDCKInhvSGnI2hZ2NUXdD1F2HFETdNXNHGlePNbEnGtg+K+uxSIxN8ls4qpL17iYNCnSS8UqibpgIObCNWDpv2jSQa4Y7AlUlUnswYQx7XFXx2GqDtL8jaiABl6qkryrlNaQ91dk+bJq3wRiX6Lo5ev/yqY8kJ/8PsC9BehqyvM4SQpLGFAWymibjA+2Wx483ge9DvwoI5CXfB6bpaFoOwUK3YjQZy6tlER8F0jA30xMN/O3Z599zuuvekS70PsQcrZOdrVOdrcj347IT+Kgi8KF7NK5weaVJH8T30TrhapvQVY/iEkt1kWqoiSSnNYSdtRFX7VRPw/yRRizMPVGLVbleG+9DlkOBqeKoEoJUksxUE1E9yvBxbRAE+1rRe0R6l0DvEeiKYmdyIymZwY68ks+U9JpSHnPaY870YVeqBGNe95vW+i0rA/esnH4fH/4yJDyQW4aUqmZIfxh8kGFpDPKnYu7YLf16E8DHBXrgBQiCjLZahtCjp7ASX16FZCg5cyTG/P3Z5z9wtveekZ6WcFdNzNkw3dmCxW+HOqZQAakl8FFJ4OOqEOGqdi7Ax4UIQkwYV0vEjVZMyFEfctRF3Y1TPQ2zz9nXf14neJs4Ty3ntUiMRfJXs77dPK0jSEUZPq6Du6eKmIcFjCbNyQ0c8gyhlicUQrm2pMeW6rOn++yS187Rtg16d2LgLZsndy8FTEsD789MfgvYsyCkIYWJA2hEa5KisQBx4osrw8fNHIEt8CitIa+HzomtZdD7nU+AHEe9Iz2uLTy/EPjyuec+dqbrHWOH90d6W2PumklH3XRn0/Sh1ulD7ZOOlqizIeK2h7ssxPdxVYhwVTu3TqD90jrhxmVoS/AgJOEdrZiwszHiaoq5G2NdtoWjNZsvNQreZpGqE7BBtIG4P/Qea2X4uDYax4UYZODoKoIaFcRLTdpQYSymWsBsYIvotRXFKnqtAmXlaNumbw/rfws/cHc8ULHC3Lt+6g9Tk/8JiWFsHKPkVDkpK4RQBnhC2H4zJ8/rnvv21j4K+cA6h9gWfGigYkafjJkd+QTkVyG/BJlpZeXF9eAXJ45+7JzjkRHXfaGu1oizYcpRO+2on+5smO5snupsjTlaIjpRGKalN5UirNdhpYgdyA+CUjiFsxAADrtaIkSirlbMK3PVTXbZFp+v4/paJbqZ9VgSnkrCbVOGj+sBHIVjsrSRpY3EbKnk6b0CvVdAZ2qVWIzF8D4r6UNsYWlTgjYnKBtHG0T/XaL/ToG+c5OqWaUfWj/7J+n5H0HqFGiroMQ1VUI6O00ixvXrTuGbucPtDR8qIZXMkd7V6IkqZOXoFgw6TdOgsqSP5JS4dmrl3NOho+8bcb191HF/yHkw1NkWfqZhxtE462ycdtRjES1ykbaEnW0Tro4J1z4SEynO6isuZrlyoEG9o4AdhF6IMAyFSvCB6WRtUVdbxNmKtbmuhojTPt1rX/tZA3uinrhR9f5Se4kDtYIkgBjLrtML1Yc3iCzGBG1J0FaCIGjIEFfIHr3en1QhGTlEDVMcq2MMm0xVArHDnKItkscoHjeynppNunWp/7GVsT9ObXxfk4MAswBJUGU1R9ps30xweP1z3/bwkVUxjyOvkGuhwwe6UBFBZGQPU+IgL6Q3z0XO9Q7+9NPjXfvCrraIY1/MsX/KcWDGsW/e1T7rbJp21E45a2PO2oizOeTsmHDeN+58cMK5/8qx4BfYs4gdOjsZqcTFFLVC8ki4CB9hR8vEoaYomjBY2j/da1k+Rlpe0hbOp6d+lFpDG0ngtuw6fYOoUfg4R5nitH2Trk3QFpauJvCxS6TvJrEY3ZlayTJVm/6qjUDlWnDvRnBPIrCbp0zJvqb08dbsy21SXz3HmJf766fP3bM0+UlB/CFog6AKSha7FWIVzK39um3hQ8NXgcUDGa71shasIlD1Ark8pBVFAHkFuKH4uPv8sb8+5Xhqwt2OmVrOtoizPebaN+XumHK1xpxNMWcDujyw+r6ZZGHsm3DeQ5IyrqP2sQ1xmkmNfym+U3J/YDSXkKQ2R5xtUcxMrQ+7LDNHzOsv23lk9zXzjIEY55UC9qwzC5SFsP5aizlm12YiXdNH+k76SixtYmkTuktpJBYRqEoiVQIWMWLFADKzM1UJpjLur2CZCoGuFLxGsc+e9NpTPotI7+UCv7rev2e+3zR76tHNyb9T+OcxGSS3rMlJUPOYlXQLv25n+FCxgJYoGtgSjogsK5DMgZSGZJq08IHMlDj506lX/m7M9Z7RzvuJh/LGIMK1PUvrhGNfyLEfocRdF+21zv3EsnnCJvqxaS6LDMBVot8kMei9E3x2kS6lqO6kuXrrgVSJyqyU1EsyxzA3T+db0YsDCruJVFXSa5S8JtFnRpYW5k4+8D+4gV9K9P9f6/47lpj21VO/JcS+orIvgTIEMK1pbBk+bg54ou6B+IEU6YWEDxU0Rcmr2ayWzkFSgbgiT0srr0z6//fpro8MHXpownXvzoWP8c72kHN/xN0WRp+uJfascfkFa8Jbw1E21mdiKaOAqocZM1O9FhKXKQPHGx8BncpMLywqcTUR7NiCD2OB1R37ThkKhdE0qoQ8s4dndvHMXSyzJ8EY1pjWBebhhTOf5Of+HVIe0GJQho+bAx4ABD4UVcsRTlqd2FpWNDWnaFk5JysSqEvJOBU7/dVTR39rwPHIsOPgOHpDr61ScMOO1jrhaA8590Uwz71x3GkJdxtnnzevvGhlvTUJr5XDOK6F95lZr5Hz6gwgb3zylI9QKnEucTVdStSkZ/diIRJpMWXEGn//Xpap5LBvsQWpJ321PFW7TjUsMi0zwXcvnP8sv+jQMqOgJcrax80BEAIfsqplZC2ZAyEHUg6ySOeBVAp5yCVU7szS+W+d+clv93c9ONRzcLSrbdR5XQOx1xVKWsOujrCzI+RsnXA2jjtrQm5brNcyfcS88Up9oq+WwxvUTsIuJt6nE3+UJ/8bH4HLwkeJn6lE8qZXQlextCHOGLENFTIMmTjKyvtqRE+d6KsRacsmbV0J1M343xUd+ORK5HuKOAJq2Xi5Oeihax+yBpk8iGlIJIFNQgrpPLD7aAaSC/Ex99iLnzjT89Dw4abRw/Uj3bVjrvpSXGPHqSHRro6wq328s2Xc0RxyNYbd2JQ70mVZ/Gnd+ssNrLcBH3E+q0CZif58EQ/IG59Ib84jXAofOjSXgKOE1Kh9sLRhw2/c8Js2GVOCtnG+WsFbJ3lqRa9Zoqv4oHUtYJ9mHpk98xl+zont1lW+rH3cHPzQjReAvKylUiAmQUpCJgPpvCxCai43f2Ly+BfOuR4Z7d4XfrZutMs84raFuq+OjvSWgpiIu53U9beFsANmG1IZIV9ZzWRv7dKxxviJZg47XdowFkMZOB9mRpblWoyAjiClwbwUPvQ/4W4cXZ1gSKoIVcNi32K7QFWTkpk7Bf9dbH/9WuDBpZOfYKP/oXIB7J2spsrwcXPhQ5W1fBpyKcilIZcFPp+dl+OBxf5/HXv2o+d/1BZx10/2WMZdxvFue6S3kNB5S+HClX4ZbLvdFnF3RNz7ws59IWdHxNkecbaMd9bMHW3aeLmV7WvivTV6Mjvr1QtwSzd9eeUajoCOICW946IjGzEPFaGcMDwxu4TA/xCCb+GCd6zSrRsDH0tG/03dpCAzDSpmnZbh4ybCB9I15WUM2mJhnJbSYC2fHFgefXroyIdH3Q9FOpunHPVTpG51oqseWy7sVNcpOlYIw1B72NURcu4LO/ZHHPsizvbxQ/XRrrqFHzfEjzdxnjq2z8x6LnpgXnR/l99e7QhcIfWBUaSqk74qyVctIuGbMUFVxJk7E/2/Fu+vXvM3rgY/KI7/H1h/GVJzWp7NqXlFVcrwcRPgg+SMaaoKCvJYg97rRYWkkhtfm/7BuOcTg90HQ+7m6c4GbAfX2RxzlPKyrquD8wYcvC2EDtT9Ycc9EZR9IUdL2Fk/fbhu9YUGrq+B89gx8oLe06udJOX9LzsCr6ZlXLQz7ib5DGnPHunELsG7R2D2ssE964E9K/7KRaZ9/eQHUpF/hrWXIRmDrJRX5BSSSqAL7ybMnys+5W2SNnbRKJfgI5/FQhclC1ouB8qasHRsxPunZ48+MtJTH3HXzHTWzxxqmT60L9bZgY2psar1Bszw63QK3fJqJR22t+ADTRhXY7SrZu5obfzlRolqEqlaEru96P4uv/3FRuAiU0XX7EpL/ZiFfSRfVapvl+S5Q6DfygV3r/dXLfqbZ+h3zAf/QJx4GuIeyM2CHFeVTB6QfD1H8g+ueC7fhB1vH/jYjiCFnDHS2RpbtmRUSMXV+Nn5M187ffTd53rbxntMUbd52lE3fah16tCBWOc9Yec+7G6/U+Fjez57Gxovzv0RYr9EXe0RVzM2qeu2rhyrE7ytEt3EectJ678YWFz6qVJLna38jkIvbkxa354PYhK9hpRnT5rZLQ3ctdFfMeu3TAXetXjur4TYM7B+DlKLkJdAQbrTAnyUtY8bA4m6uqGfq6h6YM6ppoGSyyKphxjaHHlm/GefGu59eKSrJdRljbhtyDzoaCEtZvdFHB0RjFlcJ9Xgeh9Whw/dd4MKSBj9pu34i5wtsa6miLs27DLPPmfbfKlJ8LYiKVmZbP3amG+lLI/XhQ8z8o95TTxj2Qha5vwtkeDDc8N/Liy4QByCDAsZEZ37al7V8nlNzQHIZfi4kfChA0dR9VAVBTPW5RwLyry2+srUic8Pdb133H3/WGdT2F1HBNnSkTjD2Rp1YOX7zoePYj2uq5UU8rdMdDZE3Y3RrrqwyxLrMi8+Xxt/uYX3Npbh4xp5f0p9cy6FD70QZlsyO2XjqbplT8Ms1T576j1L4b8UVv9bTZ8FdQ1bKudJmygNFDmfy+UUVcPHX9n3cQMQRNc0LoIPWc3LkNWUVZn1rw5+Y/TIR0c63x4+dG/oR+0RR3vI1TzeVT/eXTvRVRN218cczcjlseO1j0JHiLCrOeJqjjibQg5slBvtqou4bBGXearHuvzTBmzsUNY+rpn2YSaDua22hdabY1QWm+zoBo6Zpeo26bZF6qGlUx9jJ/8xy7k1mQaIACwryC2WLxDS5AFrLRQVm6aW4ePawsc2T7TeFxTbPmnIbY9jja11SLGcoiiqmlGVBMA0O+0Y+tnvD/U8PO46EH5m32TngYjjnpCrbay7brzbPtFtCbtrYs6mKLIQ71xpCrsukAh2yW2MOBvCDmRUjrprIk5r1GlZOFIff7lB8GFHEiLVenU5Ev9eIHqL+TfbsuTdKLk/yQrW46MQYrHSUqdWLxTXClQ14V6vFCkUwr1uINzrVpayJ6jaVWrfHP2uxTO/z0/9iyYcBfUsQESFeQXWFRCwT3seiNFCiK3yeVWWy/BxLdGjQOCh8/2gZzqF1Ey4zCGIEIKVvELq9EGV03FQF4DzjPb9ef+z7zr3XPtZl32iqznsbotgVlVLxF0bcduibmvUVRdztEadSER40STcQW8JXjRFnChRlEbkKOmsizoI0ZHDFj5kiTltsz31qz+p5T12kbKKWINr4H1VElMl0hUCtUegdxPecCTdK1JXXAQrV/hWZ764yUvkDUTqwCsVnaSjWCNbRahMyZKp4vwoCaYy4a+M+yvjTMUmU7VOVcdpC8/YeMrCnTDwxytTHkOWMmboasFTxXqMLF0bZ1pWfe2L3v3T/l+fG/tHfq1Ty/aBOggwDbAOIGqQUZCGhrRnLzRp17BfFGojt/Rrh0VesBkt6hd6B4wMgE4qKwFkFU3R20/mFazUe7m7SQAAIABJREFUR5L73AYIg/zY908//5H+w/edPdpwpsdyvqc+1IPJEejvwKYttVFXTdTZGHEQR2OBhVjnIt5pS2cLYqKzJYrSTKQp0lkfczbEnPVRR134UE3UUTvT1bR0pD7xSo3grRF8dt5r5r342BSovTzChy57CXYYyBO1+uqXt5DOgl0jr1hItyddAdFVjGqOJsJUc0RYpjqxTeKMKcFYeNoiUmbJa0x6q9MeQ8ZXnaKMImXjmKYNev+C54F56vG107+5Ef5yfP2n2exZgBjAAsAGgASarKnYkFK/t7GHCDKuKzn0hZTh45qiJ9a7FTjcVMJDraseGRXUjKxmie9JUTQ5l8YYWHYlM/PS+M+/4O9+38DhB88eaRk83DDkbproPjDhvDfkvCeMvtJm0muydcK5H8kHSbo3ybzq2LnLsBOrb8MYf2kLdTYjUKIntSXc2Rh2NMVcrTOHG1d+Vhc/3sh7mzlvHeuxsV698e32dDITqfG3YvvLqxMrfvAWEZ9VQLFdofCUmRCXYrMFjjITsZDmOMXjeO2C1y76aiUUu4A9GSoFX6VEVyUZFJGqYH2VQtC+6W9e9B2c7nt02veb64Of1xb/E1J9oIYAFgFWSR8GESCnqaqiYH+GAoLgcw95NGXIlbWPawoeum1Clip20MkCpDUyyjJgd9CMjLqJqsigJLF7KDe2fPp7A92/c+rZp848e++Z3rrRI01DrsYxd8eE82AImUpbQ+7mia6GcXfzmLt93N0+4WrXmzPt6GWhr6WeBUccOtGu1oi7OeIq9HaI9dTO/9i29lId523iqQbOZ2d9Fq5Iulc0742l+cNRlqsUM5l+pltgaSYgaCFkBa+/5BA+CP8gYgf+aixT9tkEj0302CSPPempSfbVpjx1aRR72mdI0XtTTEWSqZQCBt5vjDOmNdq+7G+dpR6Yot+3eObP+OjTsHEMssMAcwQ1eNSatSQhUtcQOIrwgQiCvJqKgpnSOXx3a792mvFCVDsZzcIcEeRAzhPPR1ZDTuRcXgMlBVoCUlN87CfjL/7FgOtdIz9+6NzhhjNdlRNHbaNdtjFXHaaHuZsn3PUTXfbxbstYj220p2YMozC3h9SEunSxh9y2cJc90m2PdNkibmvYZQm7LJFuw/TRiqUXDXGPladtPGPm6Crev5f37+H8dxeE2cUxuzlmD8fsvXrZQz67+xZYXuX3pw0ENAvAx1MmwWeWvGbJY5I8ppTHlPaYMn3mrMeS81iyHmOO2pPz784GK6VAdZwyrVI1S0zrfOCBsO+dM2c+Hp/8Zzl+GHLnQF0kHYVSmNahyqqC5Sw6ZXcJPrDXMrYUwVoL0hsgj0R5t/Zrh8EHqWLJK4gdOn+6QmxF1ENyGoKKnMuAvAnqvLpGTzNfOe369UHXA+PP3nO+u2bYZQj1WsNdtSFnI8kQa8UOtV11E932sW77aE/NeHdtyF13G0jYXasL8Q3XIvGHuybaVRN126MuIm7j1OGK+R9Xrr9s5pH61CrQRoGpEpi9hD5vF1mWGlyWWm1f+coentl9Swi9p9gn/Aq/fFWRRBoDLnqfWgnr3KqSvsqUrzLtrUh7KzK+gkieuyXfHoE2bfpqlzxts94H54Lvmz/z+2vhLyVX/wsyJ0AZAXkR+5/msbMQ6hVyoRRrCz70BI9C3oGKCglSeyu6h+9WBpAdBh/Ec5rTIKsR1U6P3KL2oUEOndcaKCLkZ0E6xY7/cPDZPxx85vGo++GxQ+1hV2usqzl0qD7maJ9yHIwdui966L5o58GwY38IDZbWcezD1Ia5pztVMJkl4miPEok52reksy3W2TrZ2TbpaJ1ytE12tk466yddlplu8/LzNdwrTZKnWfLWk35oFtFnLAoy+qJ4r1LwU6ZbRCRM9CTqwxUufdUi9nnai4Je5N0ivUukd0nMLom5W2LuEpk7ReYOkXkrCn0X663Y9FjXfW2r9MOr/R/ZHP5LPvav0tIzxM1xHmBGkZcz2UQunyWaBfGPKiSlo6B8YJ4ByTkgeIHAQbwgKtE8tiUp3JogssPgg/g9dNL0PAmOFxxOCpotAHIG1E2Qx2Hl+Tn/lwYOvTvsfGSx9+3j/9U04+pY7D0Q+kHD5I/aZxz3Tj5z/+QzD8QOPRDtvDfsuAe9pK62sLM92rk/tlNlX6xzSyY79+ky1blv8lDH5DMdU890TB/qmO7ch+Jonuy0TTnNi4ftiRebpBMtyb5Gqa9G8tiSXss2sSa9RDzW5NWJJekx3xpied1vnvJYdcE9vQaJ2q2LSGLYPK2bPxWcvzIRqIoHSN8Wv2Hdb1hnrBv+A2vMo6uBD2+e/Uwy+lVYPwyZIGaCabMkKMurkCKWCAIHppXqOjI2skXLhCxIw3ZdOdEUvKFL+Uxl+LjGqInYTDzTKrkUJFRbUPRUUFObkJ0G+Qw//vTJng+N9Dwadeyf6Wwm0jJzqGXmUOsMtqrtmDq0f/LQwUmigEQc+zFC4W7CkCc+qK+XTDrar6egcrFdpjpbi9I2faiNtPjWV9qw56bDMus2zfeYVo9auJdqk311yT6b1GdO+Uxb4jWnipImbeIvWqY85suJKdlXfauIpzrlNZV+RWkl6TFJfcakp/Qni/6npLdC8t0t+naJGMOu4OiqBGPaoK1rdA2h5GhbCu6bD+yfDxxcPPng6tmn4kOfEsf/SZn7PrDHIHMalElsWqiwoEkqevOzMuRkyCuaLoqMFgy2RyVpHWiDa5DRIKO3EcEnot4CsdAP8RrPnmt+uJ2mfejRLUX3LmkYfiFCWnIpkN0AcSy/9JMY9YWA693DPW+PdLVOu+unXU3TrtYpV9uUq3XK3TzpbsG+sK6OiPNA2HUg5N4/0dU63t0Q6sL6l+snEXfrdZMWDKy4m4g0k/VmbHyLvW+bo66WmKv1QqmPuc3RrupYd9Xsc4a1Fy28p1akCReZz4hsIL5qsjSRrnRmibIkaeulIlGWy4k5E7BngrZbQdIBm0iZRcpysdAWUZfSn0pbGDPPWFlsH1e/QbWs0vuX6PsX/e+c9z81zbw/xnw4Fvjt+XOfTsT+LrP0deB+AnwAUiOQmwZlHVQBlJSqZEhjw7yCCkdeReIO9HwQ/QPpq2TIKpBRIa1CSkPJkDCifAF87ADXB+w4+CjgBUZoUYpvUQ3Jg5pQEkNzg/918sef9ne9f/DZd4z1NoZ67aGexlB360R320RPy0Rvw3hv3WhP3WhP00h3x0j3vvPdHed7m4cP157vrRvpbrx+MtrTdN2kcaS3fqS3jkj9aE/DNmkc62ka624a3y49dROHLWO91SPdFePPVky/YFz12uOBmniwJh60x4O2eNBKlvZ4sCYRrGGDNdzlJBGwJfyXkXXKuE5V3xpivOw3TATsbNCeCNjiflvcb437rYmAjQ3WbDINq76WFV/Hsu/gEv3wsv+ppcCHF/o/Pj/wmYUzX1wb/So7+cPk0nMK2wfZU6BFQN5AJsx8DiOtejAFvRdoTKsEIIqahYJqBXpO0zKkZEgpkFRRED6QDA/Tpsvwcc3Vo4sOWDIL9dgWxloIiOQUyGUgFxeWzw7T/0Ef/dzAj//o9NEPDz7/2PDRdw0fec/wcx8Yeu6DQ0feN3T0scHn3zn4/CPnjj5+7sj7zj33gXPPffDckfeeff6xc0cfHzzy5OCRp3agPHnu6BNnjz5+9ujj+LuOPjF49InBI0+Ufs7QkaeGnnt3SYaPPHn++ceGjr5z8Mjbh46+beLFd0x7H1vwP74YfHyp//Gl/seIPL7U/8RS8Mml4FPLwSeXg49fRgKPL19GHls/9dQtImsnn1oKPrYUfPxSWQ4+vhR4bNH/6KL/0aXAY8v9T6yefGr11AdXT//W2pnfWz/3R/Hzn+Um/kGMflWa/m5u5bCaOA7JMyDHMAqrrEN+E3I8USNAy2AOhyYXnBlY64aRwTSBhjRJdSSeUkQW3E6QBW0WjcQMCXAoxJdHdttq5n7R3X/Lvd1h2oduu2DSOvo+ZNQ4MBSGzik1m4WcmGanZ8ZfnBp2Lk/8cG7wa0sjX1s+/83lof9cHvwRytD3l89/Y3n0qytj/7oy+s3V899bHf7B6tCPVoe/vzLyrZXz314Z/s71k9Xz/379ZGXkO8sj39ZlZeTbKyPfWT3/HXK6/1g9/12U4e+uDX+vKN9dHfr31eHvrAw+vTL09Y2xb3KRbwmTTwuT3xAm/02Y/DpZ+YYw+U0h9i0h9m1x8mlp8ptXLN8QY1+/hWTqm+KrCf5eFGn66dTstzPz38kt/Vd+9Zn8mlPZ6NUSPwXhBKQGIHse5ElQlkCOY1v1fFbNKkoW5GwhwKp739StmIlCcCFNqrEyBB0KQViN2DLEnJEL+Y9ELdkGDCT9Q9sZzo8dBh96s1qC8jICvor0Koggit4ASgElmRVn1HQY5FG88JkzkB6B5DRI8yipGGQGUe3Mn4TcIKTDkJqC5CzZPgbpMUiPX0fJTMD1knHIjkF2lCzHCsvMOJ4uHcKfWZAIpIkkoyBEQIqCFAZxDJKj5LPDODiZs5A5R1aGIHMeRy89CulhSA9ehWSHMcnylpAh/Nr4u15TssOQOw/5EZAnQImAHCV4MQPKIrpCtU3kEMxzSl5S8hlVllUFFQx0wSGAYIUVlmGRUiw99ko26CEVTITepk/o2WFFzNCrtwo1XDqGkHItrM34/9l7D/iorivxX0iaqkJvkua1aRLNpti4A7YTxyV9kzjZZLNx+u7vt9mS3383xUk2tuNGJ7YpogjNzJsZid5BNNsxBmNMR3WaJEQxIJCmvXb/n3PvzGiEBJZiBCMxw/k8nt68ef1+3znnnnsOjAJNwkoqzvYzfJAxthHQEwUAvBLCEJGkqCREYMwcVLUV2yDqFIYVnFXQRQkFiacVpooko0syfNWM0EX4OWgxCBQZCCJuw9P2vpqCldtH0q6gNgUGELbFpT02FhkuUTguEaRgkUQ5iuP+RVkWoooYQnIIyW2KdFWRryryNUVqU6SgIoUUKQwvWTEIb93u5RrERF0nUhtKHbnu2MifyYcntyO5PX7AUUj8IEPwJ+SbkkRJEiQpKmPHZzzWOSqhiCAHI1JrFF0Q8HB7BVo7tj/IwE1MFNKLImH1g4zVAgdIAhkJqMTwQwAhkdEY+PYJqciMpGPqZ/gg2ocAyBfxDYtCzLoiyTDKNnZfZCWqyO0IXUXomgxuKjHmZsVOEgm6067JqFVG7QoMdoQYP+hsVwRFiUJN3L4SQYFd9InIoBLDM514vklEP1GScTIUkhKFZEXBpcPxOAscMQ0tRVEkWQGWyHIUT3FsNb6ssoRjmYiCft001olOutKTprAa+dUdn0qKLHYV7KggDR1P4YBFBU4fThdn6sERGBBFrgBLFElSBFGOCFJIlEMSpM+FDLoSapXQFRmyRuCmTnxzWD1G8cCwhL8uFoKewEfXmRiByGMeSWsfSaS6FbPELsSBNcnoTtCb3JDE/RIxCwRoGDER8JKIrETiX5F2Qpb3HTvu1JYF0kHVzRQSLEkA0HgnVnzmxj+5fs2uv8VLwIV43d25g3/GxsHHz+4Gx9xxasSFmXiEYoiJ/xwSkSa/YPDyuNcTP+Ex46TL096bELBkrnTZUCot6GfaB9b8evEs4ptNbvldOlVw0MHtnYqd9Z2E4nOHZgANEHnRM0nEAnSawZiIbSGJIAKON+9EBjJyJZXaeB8eywDHR/Jd79nT08OHrB+t9pnv2z5YIaba3CFeXLf3Ds3is88Uuyk6gSOxJPEsxd9JURlM0evTkabx0Ye4+tybTo7p/Ww1pDvl/LOfIfygDJDVsP2cZORjR3FfL8Sps2DwRgrIrTz3REqwmC0si2l8fO4WfVs30Ft8pMYL8Lr34W38M5XcEJ+N+35xtAnTTIb7mNY+bmv7/5w76yU+UuIFeCdfwneoQSY7/+74/C3GFuggsRcA7paBeI+OT9p46bgWqTfXO3zcocZzi5/X/nYWnZrTnX6EEp1xt/KmpPFBbusAd532t4Z3Kx/xO3fuAx8fOFKIKJWgbSQj8ro/k78aePNpfAyMFptSZ9GpOd3pNtMn2kcczWTjd/oU79z+Bzw+7rjhfRcewJ17nLvfc5/egu53eZcsHdj4SKnX4F3yRKVP8y66Aml83EU3O32q6Stwa69AGh+39nqmt5a+AnfRFUjj4y662elTTV+BW3sF0vi4tddzoG1tgHYtXOdM7XTXSFrBTovwH4nfxL4aoJem64nfZEk/wwcu4acIoiApkJc2ltdNgXQd3cpNzvz2f5V4/no60zmg4JYecCz6Lj4mBR8RWRYfLwYJfyFBOAgkquj+And71eOJLnp6nkkZdHrwk66Bg+RHMokfJxctvqhL5gBJkQVcXJZUC4oqkB1GwNlJ4DAkSGAnSpC1mCQU6yjHEsVpfKLkakBKMDwGM9XLSN7Sp6bLxvoZPiRZFiRRwBlsFATBwzJCgiRKipwIJE7M4KxRcrcfEll83bTbNW/ZQgVy73STuKZrKhu8RMK5rpL3To42ecnfPw8FEEGUWGYc3NqS8YEroYUUSF52BaFQX4+x6/H2RZyVPJGyLYT/JGUOoExYQmQkSoooKZKI5HgOc0AJJDESEArLUls0ckWGtFI4dx3AEfAhILkNRQSS91ySYJQ/zuYBNdhj6dtgAWwKih1ixHZpVHfPgn6GDwXhUUoItV67dunKlStXW1uvXcNytfVad9La/edqd5/uV71FS69e7e7wrl29cu3qlaut3Uhr65UrV5J33t0hdyxLXrNH81fgc7n1yqXWK5+2tl5qvXr5ytVLl65duHD13KXghaASiKA6EdUg9AlCxxE6nTJyCqGEnEboDNR0Q9UKqsVSp6AGhLwIBRBqwhkrL2ICXkGoVUFtkhyWJAlILMuSCP8jyNTWLiptImqPVVWApJcAGlzwHqtegIyYupLQxUhWsj7UEFHqf/oTPkgt0KgonDh1snTF8jfnzHlzzuxXX3/tzTmz58yb243MnTvnBp83u/vMvsHnBtuYM3v27O4207Fs9uzZid/OnTt39tw5vZAuGydHl9hgD2c6jiZpbvabc+bOnjdn9rzZc+a9MXf+63MXvD53wRtzF7w+769/mffOK2+vfGvdzrf3H5l/qGbOicBLJ5peOnH2pRPneyonz70E0tIX8vLJlldOtLxyHOQvWF493vLaMZBXjzS/dqT5jU/Ozj1+ftHpy4trr5V6w+WBts2X2vYHw59grJzDKIHCKgoKR0GgXhOup9CGUCuoJbHk6ZD7Ms6QpNRjsAwrKolld3VsUf/AB7wl4h9ZUcpt5U8/88zUadOm3XffxEmTpuLPlKlTu5Ep3X8m3+DT/do3XnqDzcQWT5kyhRwbmU6eMqV30nnrNz6Km33TeRuxv6ZOnnb/1Afum/rA1GkPTL7vwXvvf/AeLBOmP2K+/xF2xtOP/uL/+/KclU+Vbnx09a6p/LtT+QNTHAd7Ix9OcRzoE+EP3OM8MNEVk0muA5OcsORe54HJzgP38gfudXww2XFgmvPg9IrDD605Mmv94a9tP/zCe6d+e+LsokCw4jLaH0EnFeRH6JyMLkuoDSe/jcqiqEC+WLDnouDvIVUkIXEjNqxATYFCDKTwPaT2j2LBCXZTX0voqyPsB/iIcyOW+zoYDL744otms7mwsJBlWYPBwHEcwzD0jT4UTV8nN1rzJsuv2wL+k7nRh6YZLLDfz/HptPnENukup9PdscVOmaY7bST+B0uzTCFHF3EGg7GQ4sbS3BiGG81wI03FQyzjNZMeZJ7/xfTXV05ZsZNeuW+k4/Ao/vhI+8neyImR9j6REY4Tg50nct0xyXOdyMcy2HliWMWpYe6TQ10nhvDHhziODXEcH8qfGMkfLeQ/YuwfWu0fTuUPPr3h+C/e9b9+8qqzSToYQg0Kuow9GqFoMBpuhbJPggiVmzA+BEwSEZsxUFkZ6gqJUBgEz4WQFISlae2jr9h0a7ZL8EHchIqi1NfXv/DCC0ajkaIohmEMBgOZiTeNjv9ZhulWOIbl2O6l2/VvtJBjWSPLdZXExmM/pBmWBryxHYf22XOwcY4jwrEcbJMBYUG6P6/ulnd/hCbGaGZMJsbMsRaGM1NGM2U0USZTgaV4uGWceuL0/Ke/Z3rxHUvp3mErPlTZT+nsdfryhh5Lvb68rq/EVqez12sd9Vp7vQ6L3l6vt9fn2Opz7PW5Nizl9Xk2kHx7Q76jYZjbO6LCM9JVN9J2ckzZEePqj6Y6Pnq68vC/7D6z8GTLnsuiR4Gs/BFJVMLtSlQkBayhjAvuiFGgpnUUkapQUjSODyUc9yjfmqe8f24l1bWPZHZA1Q1R3LFjx9NPP20ymUxGE8Mw7I0/iSZHGl7nKcMx3QnNcF0Ft9vOPyeNubstMAwAhWGNDMsBOGiGohiKoimqW3xAm+/ug3cX2z6Lt8PSNJbujpBmuju8Gx8kzRgNNGdgaIqlaNZAMzDLUIVGbqzFqh0/LfPh50b9+2y29L0h5ScHuRtVrrMavqXHclbDN/eRaPlmHd+sczTr45LjaM6xN+fam3NsTTm2pjx7c56tOc/enGtryrU16csbs8t8Or4pp+JsjjugcdTpyk8MWf1x0aoD41bue8K+/5fbDr991P/e+aAvCvU72nElHqx/IBm8priXVw4jKYSgGk4EKVEFbJhYHae7u982VUtkE2rgmsKADAIOWZZDwWDpsmWPPPQwQ9Fmo4ljWIvZHGs5XRWKGzb72Jv8xk3uc60A4OiVdD3yuK7Ru+30eKcmhjHTlImmOaLIsAzHUCamiGUMjJEbPn5K9uRZw174IzV/1/CVp7KdLWrHWS1/VsfDVGNvUtubNPamxLwaL0maNqrtgb4Tnb1Rb2/K6SKEF7m2pjws5M88W2BwuSff5sl1ePW8R+30qJ11Wmd1vuPkiPJPipZ/ML70vcdtB17YfGr2ibYdIejEaUToHFKuAiNkXMMQV8mS2pHUjpQwDvbAqgLJkXBX2y4pj49YrS9JEgQo4XPubMtfXnr5vilTWZoxcUaOZixGU+JtT975ydM+an5/32aTD6wn83/fXnryKxNDW+hCM1NkZCmOpTmWNjOGEqrAShVYmaIC6wT9+IeGf+fX3Btbxy4/pbW3aOxNGr5Ryzdp+UaNI6B2BDSORq2zicyr8ZKkqV/t8Ksdvj4SDe/Xdic6h7+r5Np9Q2wNg20NeXaPjveqnb5sly/L7VO5PFpHfd7q0yPLTtJlxyeUn5i5wfP9D64taIq8h8R6hC4g1CZLSIgiIYyCV1D0qiKDmxWXN8Sdt6SM5N2tfqSo8YL75WN3hswTHeTYJ0d//pOfTigZZ2I5EzYQTCxnZo1kvts22ZPmdBvW6fbYbr6w747KxFBWZqyFKTCyBg4TxEoXTTCMnVA0ZkLRaIazDLNOGfbMT60vrTEuOzZ4daPO5s3i61Uur9oNonJ5VS5PYkbl8nSRBpWrrySzoiGjsqeS5faonX4NH9DwjRq+SR0XjaNRY/Ppyz2DHZ5h9vohq04OWXlstO3k41s+/sPp6s1hoRp0ENQekaWogISwIgUFuS2CQhEkSAqOTovgkLVUr0Lbtz6V1MVHctI3XEVREUWxasfOrz7znIUzWlijkWbI1MywJoY10V0E8+XmTfR2ftv9QXY9bLykTw/MzBis9BgLU4DZAc4XK01NMBTcUzTm3oKRZoYdY56Y/9i3rL9dVbLk8MhVHn153SC+Jttdr67wqEAast0NeFqf7e5W6rLdfSJZ7rpBlXUZN5I1dRnXSaU3w312kOt8pvN8tvOcmj+ncbToHGf19ma9LaCz+XIcvlyXT8c3qB01GmdNQfm7D7q2/Z8PTvEXxdMIXQIdBHfmykJYCYVRJIJEOY2POJRSFB/k8EhvCx5vASZmMBh02hwzH3rETLMW1mii2WLOBNSgGDPNdhX4KmUIYmK6OcKux5xYYqLB+dpHYqYpK11gZgzYx2KiWYuZZscbiu4xFEwuHGmhqSLzOP39zzC/WjDu7ffHrKrNKa8ZxNdmuxvUFV6MDw/gw01Q0u20QVVR30eicdVrwX/RvWicdcmS5QpkuC9luFszXFcGOS9l8xc0jha9vTnX0TjY6c+FLpsavaNGy9do+Wqt68wI/mjhinfHl+7+/o7qsmYIt21CUGb9qoyCioCHw0jQV4udqvHhQPHGdPf93w/wkXCjnj93fu6bsx+YPM3KcNDMKKaYM5kphis03Jwg8Nq/49Id4BKw6Ham747ZTNPFdJGJoRnWTLHFBnackTaXGJhJVNHkopEW2mCwlGimPD7yx38yL9g5euXJ3NU1WY4GtdOrcfk0Lp/a5SPzaifMdCMuj7qPxOnR8Z4cxw1F7/Do+Q7R8I1Z/MVM/lIW/2k2f17Nn9XwjTqHT897cvh6vaNW76jVOeq0jnqNo07tqMvjG4aU145c/FFJ6cHnN9XMP9W2vw3i3y8h1A61bWFAVUfcKamtfPdRI3HGKYqP5P5aYrnIslxdXf2f//are0smgNJhoC00a8GqB1dIpfHRK9YAPiiDiWYp1lrEji/kJjJMiYUyjqeoSYUjjXRhkdWSNfkxzXf+o+jN9SNWfJJXVgP9HY4mvaNRZw9o7QGdo1HP4z8djbpuJNDVi9l3S7p6UjW8n0iO3T90dWDYav/Qcm++vSGHr9U5azSuapWrOtN5JttVp3Z5Na5GjbNF6zintZ9Xl1/QlH86tKxxTOmZ4sUfPscffv3jloMhdBZBfKogykgUIVgMhhrCuMO7u+MlVXteEkFixG8qy7IgCB8d+ugH3/1eidFczJm4IspMs0aKMVEMzMftF8IUMiWv9G58IjdwN/Tpmt3qFzdf2HfHY6HZYgNjoo0UZzZwVgNXwjJWC2UqoehxRWM4qpA2m7STHlQ/95PCl+3Dlx/MK6sGfwF/Vudo0toCGptfaw/oHY0dgjtT9fammMDRgOm3AAAgAElEQVRXgT4SnSOg5TsJ9owGkqdqZ4BIjsM/fLVnZFnD8PK6wbbaXL5G56xWu6pV7prsijpVpVdVEVC5mtV8i8ZxQWO7mOO8ouMva1c1DSkLjF1+yrLs0DfXnVh4pvVwBJ1TULskKVIIySGkhAEm4BUhqQG6ThNv6IE8k6LaB/F3EO+pIAgi/mzfvv3ZLz1tpJhkMWGCkHZoodjr5Obt86791koZxxWZzZSR5miao1kWWFxsMJaAJUOZDQYTRQ+1TBn6+PPU75aMXv5+fvkZlfOsytmsdjbiZulTO30ap1fj9Gp5Ij4d79c5QCvRORqxOuDT8n0iGt53vcDBdC9a3qd3gH9U7/Dq8KGSw44bXD610692xvplNHxTrtOf76jVldfrHc35tsbBK+uLy099ZVP1ksbQERldhDiQa6J4CQlXkBCSohFFEmXIxAAiKZKMB8bgeLMkoCSnShlYMEldfCQ8poQdoVDIZrPNfPSxZHYQ7SNhuVgo1pokgJLeexzuBqZYDaZxhVYLZaSNBpYrNLEFVpoqMXDFBs5CMRYDXUzRo0z3jHj4a9SvF4xZuje//HSW82y2synb1Zjt8meTjlsXRGFpYuLFsAhogR0BaN4YLikw9SUMmZ7M5DrrBztO6ux1YM7wF1RlzcOWn7au+vh7244ta2g+jYSrKBxUWhFqQ4oghkKKJMiyGBOwaGKCnavx4jtk6C4ZrJvGx227AkT7IJFjV65cef3116fccy9H0R1ioI1YzBT0a6Tx0UP2WSlTSZEVtI/O+LAaWDNFW2jaSjMjjZOG3PfM6H99bfTbu4aUn8p2Nme7boQPr8bpwxpHv8eHzlGvt59R2xtUzrNa10Ud/+mQMk/h8qMT39nxky0fVjZfbEDyFSSHUUSUonJM+4jhI165Eo+Vgb6ZrjLQXCUprX0QBYTg4+zZs7/+9a+LLdYOdlA0l8bH36VeJfDBcAaOKzQzBVYKtA8LOERoC8NYaXokNyHv3ieH/ugPoxZsHVZ+UuVqVrmaVK5GlduvcvtI/JjGRbSPBD78xCvRf7UPDe/R8vUq3p/paM52nNe6Lg91nhtdXk+/896Dy6v+a9+Jna3RAEKfytLVMAy4VeKqRw/YMQD7aVIUH4nO2oTrtKam5qc//amZM3bCBxXXPnArSmsfvdU+CD4sTEFxAh8MbWFoK02N4sbnjH8s7/lfj569YUTZcZWzUeUMqJx+ldMXizrtMF6S8QER5f0XH9AV7fKr3c1Z/NmM8rOZ5ec05S05Zf7Rq05Ti//2uP3A6ycvfihBMMgVSJEpyIp4E3DEU8mSariQkfe2ae63Z0f9Bh8HDhz41re+ZWI5I80ky3Wu07TvoycEsVLGYmy8MJzByBZa6ULAR5HRYmCNDG1iKDNdNIYbl1vycM43/u/YVytHrTqKXYz+pEAPMvzME/dugIsh0YGKHZngWE0B6Z3vI5v3ZTl9anezxtWi4s9l289l286pyltyy/1Dl5+yrvjoO1urS73tpxRITRaSwpCyG1I0g3TN+KzEMpZ1OD9uT6u+bXtJUXwkzBaihiiKsmXLli9+4Qtcl+iv5NaS1j6Sr8ZN5i2UsdhgMdMcxkeRlS4sMdAlRSYzxRk5xsgUGakxY40l+cUP5n7554aXnWNWHlHxXiweFd+QEOw3JYzo3Erj/TL9Dh8qpz/L6VPxfp2zUe9q0fLnVfynKldrtuOizt4yZlX1vauP/Oueuq0XhWaErslREcmJRxQaLelviTffRFJ4CY+SGXjD61IXH8TlQYwXRVHsdvuDDz7I0oyZ4a4TyHiTNl564wRJ4IPlDCa2qJgqKjEwJUUmE81BnDxTaKRGFxitQ63T8770AvOn8sIVH6kd9V2kQcOD2RKTeKSWxunvv9qH1t2oqQhoHB6dvUHv8Otsjdn2c5muKxnOy+qK1vxyX+Gyj5/iD84/3nxKhhz0EYT5QaySeLp2CEvFH4IPktWeJD2Mg2WA/J+6+EgEnpKO24ULF06aNIljmE7hlZ3bTFr7uInGkfxVAh8cZzAxRSUYH8UGk5FmKQgDKTSzYwtZ03DLNP3M5+n/XmooPajh6+JSr3E0aBwekBg+YiGesZ7R/owP6EJyeXOcDfl8Xb6jIc/h1zhbMl2XMxyXstaFNPbmEatOT1yy98cbD+4PKgGEriEkKDKxW0RRxBWHkCLhcTFYF0mkVE7j4w4gk4SfBoPBV199dfz48dcbL2l8dL4CyYy4ybyFMlqx8cKxBnMyPhiOMtEsV2jmxhSy3AjTvTkPf4P+94XUkr9p+VosdVq+Xss3aHmPxgGxHjiCC+MDqEGE6COp4PjAylFCLerBjNbp1boacp11g/mawY66fIdH62zOcl3McH2aUdmqcjQPs9WZlr3/VPnet2ounEDoU4QiCg5iRwgCyCBwDNfPiVsxCQUkjY87gw9FUS5evPib3/ymuLjYyHYe/Na58aS1j5sgI/mrBD6MrMHCFI0zgPEC2gfLGSw0Yyo0caMLGWYEO0F/33PUL96g39mvd9bonbV6Z53OWa9zNuicXh0ElZJ+FoKPuBWTQo6PvwMfHp2rLtdZO5ivHuyozXfU65yBbFfLoIqLGa4L2XzTEEeDofTDiW9v//H2YzuCqBkynio4NzuUnRNFWRIxQeKOVIIRKEqHM7bfgSbUl7tMXeOFnDUZL+fxeH75y1+azWYjzhLUYb+k8dH5CiQz4ibzFspowdoH4IMuGm8oGofxwbFsoYWijGON3KgimhpJl+RMfsrwwp+Zt3bnuKpznDU5zjq9s15P8OGMdbXEbRaINCXB4CngMU3oPp19up+pgGDtQ++sz3XW5fH1ebxH5/SrXM3ZlecynM0qZyDXXjt65RH67b0Plb0/3xOpxwmTg0gJER1EVsQoJDmMSVwHISZM2nXalyjrbtvEA3Ls2LEf/OAHHAcpiDvYgVMEJTeStPaRfDVuMp+MDytdNL7IMK6ILTaYGJYdYzYUGcdw3AgDbRhNWfMmPUH94EV24Y5c5+lcZ4IgWPuIRZrGHR9Y6ej3+HD5NG6P1uXROz16pzeH92mdfrWrUVXRlOnya1xeja16ePmpsSs/YZYdfOH9loMRqOPZhpSrkiBiaIhCEj466yADLeoDpeqI2wRJCD7+9re/fetb32JZyF2exsdNuNDDr67Dx4Q4PtgYPkZzxhEUYxhLWfInzDJ893+Y+Vtz+FM5/OkcvlrP1+r4ep3DowXfx3XGS0fuj5RRQHqnfahdfpXbr3b7Na6A1hXQOhs1roDaDcN8sl0erbtBbTszxFE3yl47cvnJmevq1jVd+1SOtiPUKkZJLXFRxKWjuiggA48dKJXxkehOlySpqqrq61//OpQ4oeg0PnrIiJuslsCHCbIWFiXjY6yFMpjGGI3Daaao0GDOH/eY4Vv/j567Rc+f1DtO6R2ndY4anaNO52jQ2r06B7g/uhovkEwoVaR3+FC5GrPdTdnu5mx3s8p1FkL13Y0qty+Tr1W5ajWuWo29Jo/35tt9eWW+cY7aRUe8jaGrbQhdlcUI9m5cj4+4ApJ4Iw6kmdT1fSQ6biVJ2rx583PPPcexLEPRRpo1koQdaePl73J8YKwYzRSEjVnoQitdUEwXlFDUuCKjCXpeGIobyxlHQeW+ouK8kkdHfONXhjfW59tO5DlO5ziqdY46De/BHS7Q7RIfsA/D9jWQfMyPJZVG3CYiU3owo3YG8NCeJpWrSe1qVLsCkFrN5cnma9UunAaRr9M7PTq7R2/3GWzV/7an7lCbcgmqw8gCFKCDOlNxHwd4PmLej0QA2UCCRyprHyTwlFR4qaioePLJJ40cx9I0iVgneUxNndtP2vdxE40j+SsTbTLSVjPNldAFFma0kRsNOkghV0xxHMMydCHLFZhpo6VwQm7xo/qv/KLgLxXDVx8faq/Og7x+HtyoGlWuAM760aDjiXi0vC+epyd18NFLPQiUqUaceciPFSiPxtmgcdZ3lgYSbjvMVv30+pqKi5DNECwXIYgUKSyRKpeKCInJBJKbDMLKRCWWXWgAESR1tY9E3Ho4HC4rK3vkkUc4KGbLpvGRDIK/b74DHxTBx6gOfLAcwxR14MP6iO65n4592T2sDOPDXqt1NCThw6txNoArBAhyl+Ajxg6N0zvUVj29/MiimlC1iMIIyWIYKXIUCm0jEVIZijgjGegkaXzcbmYmfB/BYHDJkiXTp083Go1GNo2P3mVs75YvN8KHlQJEs6wB8EEZrQXjcywPaZ7+0eiXnMPKjg21ncm112ruanx0sEPj9A6x1Uxc/uEfDp07GkFBhCRJQIoSlRCUsYTBch34AL+phMff3u5m1Lf7S13tI1GlIRgMvv322/fffz/GR2zEbdp46ZYLPVzYGR9jOG60hTaMLzRaKaORM3EczRoLzBRnLRiXY35Q9cV/GvW/9qGrjg0h+IBUOgHoywTjZcBpH7GaUgHwB8PZXWe8JPABMXKD7bXWFYf+ZW/DgRAU2Y5KIhKVqICiImm0koKgFzeKO3QhjWHCK9K3jfr2bT2l8SFJUMOrra3trbfeItpH2njpISBuvloXfIwx09S4IpOFMgE+wDtdYKJYa+G4HPMDWU98b8Qfy4esPDqk/HSurVYD+PBD3qCBiY+knprPwIc/315vLPv4HzYe33UVXUQoKEhSVJEEJIELFeFM7IKM8YF5Qvpyb1/bvg17Sml8kJDTy5cvz5s37/7774dC9PFkH2nt4+aAuPm3JtpopKHnpRiKRY1ljWPNDODDTEFYL8vRYLwY2OLCklzz9MzHnx/+YtmQlZ8MLj+dY6vR2OtVTr/aDZnHBqL2gfHRMeqPaB8N2IGarHpA4cs8ewNV9slM+wfrLgpQyUFQpChAA7wd0F8rIRTDB+YJ6X25DY369u0idfFBfB+SJLW0tLz22mtTp05lGIaFjltIF5TGx80BcfNv4/hgrTTkSWaMBSYG8n2YKFzWDvAx1mxgxhWW5FumZ8769t2HD9JzlEgEnZghCQpiRXNzHZ6C8uNTV77rPB9twoVgABwSHgMjISTH8BFB4EyVY9Wlbl/bvg17SnV8yLLc3Nz85z//efLkyXF8pOM+Pq/3NIGP4iR8FBvMZprUC6ZYrsBCseMKiweb78uc8c3hv185dOXRmO/DgX0foH0MSN8H0T66xYdXzXvVvE/NB9SORrWjUW/zjik/ec+q91Y1B/0ItSMkRXHoGIYIVJNSojKSIjgtSLw43W1o1LdvFymND2K8NDU1/fGPf7z33nuhpmI6aL1zqMvNtYwbf2s0gfHCJvBhZBicf8yKI/IozlhgpdnxhdbB5qmZj31t+O9WDF11dKjtTN6A77h13ggfOCiO96kdfsyOJpW9SVfuG77q+LgV+5f4rtbDyBckxCJPMURkASlRBUlhjA8RJy68fS37tuwppfFB7JdAIPD73/9+0qRJNE2n8XFjIvRKJemED9pYaGQYq8FqYqyYTjRnLCimmQmFliGmqVmPfm3475bfRfiIBaeSbpdOZguoHo6A2tGktjerbM06SIB6tHjZ3nc8V+oIPoj2AfnFFHCBKBGlQ/sgKcluS7O+XTvpB/jw+Xy/+c1vJkyYkMbHLWIHa6aT8VFIG4s4hrUYik1MMS6tFcdHgXmoaUrWo18ZcRfhIzlKNcEOkhHap+b9cXycVdnO6sr9w1ccG1+6b4mvtQEbL0JUAY8HOD5IlwvgIxrzfaTxcbuoRkJOifbh8/n+53/+Z/z48Wl89BE+KKOBZTmLocTElHTgg6InFpiGme7NfvTLI35XetdoHz3HR4uuPDBqxbF7SveW+q54YdgLEgRZknAJbVlCSgShsIJEkkwIms6AG3WbutoHIZWiKH6//3e/+93EiROZtPFyaxwfCe2Ds9KFRrYI48NoMZQYMT4oFrSPEsCHcZjpHtWjz4743bI0PmBAIGgfjWpHs9p+VmVr0a8OjFp25J4lVaWeTwk+ogIkGxMlhBQRKWGEQgoSiSMVR4LcxtfvbdlVquMDIdThOmXSrtNeOThusjIxXjgrXWRkiwwmA8sazRgfBij1GcPHpALjcNM96kefHZnGh9Or6bBcmtX2FoKPMcuOTFlStdLzqR+nHYsKgqBgfMAYug58wBjcARg1ltrpgkiNW9JxO3XqVBI2ls73cStMGKOJMsOAfQbwAZVuGcAHx0ClSpqljRxoHxMKTcNM96gfeW7kb0uHrjw21FadZ6/DQ+ZwAq7YiFtP5xG3ULAej8RNtgL63XxHtme1kxTE8kKJLN6vAtdpQvvwF636ZPqK3TZ/azPuXomKkbAshyF3skAWkPAPsFpI4o/bohTctp2kqPaRGC+nKMr58+dfeeWVWNxHuuP2ltgvlNEC+GCMbIGRLTQxRWaaMxtKWLrYwFmNLFtMF1gNlKXINNh0r27GV8f+vmzYihNDV1fn2+t0fANkJIRKjgGYQspCLx5u69HGc52mUrqg3pELnwvJohbQ8AFI/4GLcma7GrJd9Sp3Q7azIcvhybL5sm1NuQ7f6LIPptt2VpwNX8Aj8qPRUAgJ11BEQDIeJofdqNjloeAR+wPM/5HS+CCj5i5dujR79uxp06ZB2FgaH7cCHxaKs1AmE8Nw3FgTW1BMF1opwAdDWw2cxcSw46kCSxFlpEz55sn6mV8veLF8+PJTQ8tq8m31esCHR+32qSsCKsAHVLTFSYM8WvKihtq3vWu0KZOaDJIe6XiCj0YN36Tmm6Cyr8ub5arPcteq3LUqV002X6+ye9W2QK6tfozt3Znr9my6qFxG4OQQoqEgilxBIRi/j7AKEvd8SCgig0oyoNynKYoPon2JoihJUltb29tvvz19+nTIdZpOlXwb8MGy46gCs4HiKFO+ZXLOE98s+INt2Ipu8KF2QWEX7QDCB1asPFAljw/gvEE4dRBEgnjUzno11Mqq1zm8ertfX96YX1ZrKN//zapDe66iVgVixqRoJISi11Akhg9ixABIFAlF0/i4bVYVUhSF4CMUCi1btuyBBx5gWaigmPZ9fH7fR0z7oK/XPmLGC8OUYHywlCnPOiX3C98u+JN92IpTQ7poH1j1GFD4ULk8We4GlcuLsejXOQJY/Hrep3V4tPYGnd2Ta/fn2xvzyxqHrqg2lu35+YenD4ZQm4yEkKKIQhgJV1E4QtQMMVHbVpEBH2Ja+7h9BCHGSygUWr58+QMPPMBxkIsijY9bgQ+jxWA2dcIHazYUM7S1iLNwDFNMFZoomqHMucXT8r/0j4X/yw9dcWrw6po8OyQWU7s8Kmy8JPChI+6P/m+8ZLsbBlXWZbvBv6PlfXqHP8eOxRHQ2/06m09X7suzBYbYmoaWNY4sPT1h1e4/nPQfj6CQjKQQQqIYBu0jHM8whvEB9oqiIOiTSePj9uGD1McOh8Pl5eUPP/xwGh+fHxxkCyTTOpSj5Arivg+IOgV8GC0swxbTRSaKpWlLTsn9+c/+sPAl15CVgI9cjA9VEj60vF/H+7C/AGI01S4s/db3keVuyKiszXLXq12QfjHX7s21+3PtgVxHk97RpLUFtOWBnPJA/mr/0DJfwfKTj/LvLmm8UifAyHyI8xDEkBIOoigkqoH8pjHXqQL4gGSnaXzcJnyQXltZliORSGVl5RNPPAFlotJFKm+N7wOqzGF8wID9EqqgmGIsBivLAD4YhoF4EIYroq26cdMHf+XHBa9UDF51Kr8c8KF1NiTwEdPwk/ABX/Vn1ynBR7a7Tuusy3E05Nk9eYCPRr2jWetsUTuas20B9Wqvvqxh8Op6w6rj39p6ZGub3CzhRGIRjA85HIURLxgUEL0eixfD7ACqDKRPirpOid4BneVQdhgKNTz99NMcC6mS08bL59dBkrSPQnMcH9Y4PmiGsdBFHGMsYIo14x/M/9rPxr66Jm/VqdzymhxHd/hwYO0DWy79HR/EeFG5a3XO2lxHXb69Ic/uy7E3aviz2a5zWa6WQY7GrPJ6ddmZ/PLTTPnH//LuqcMyukSKUAI+pLAUEUmMR7wyZTxeLP7/AOJHiuIDG4sKYYcsy/v27fv6178OY17SZaJutfaRhA8Ly1gLOTPDshbaQNPGUQarZsIjI77774VvbshZdVK3+ozGXqvi67NdnmyXV+Xyxf2LAwcfKldDlrtO46rN4WvyHLWD7XW5dp/W0ZTtaslwtmSsuZDhDGTydbnumtzyjydUfjyv4dNP2qMhyISMlKCERBjrIoCREg8zxQ4P6HsZiHFjKYqPRNiYJEmyLH/44Yff/va30x23n1/v6Oz74DguoX3QVoOFY6yFRgvDcWaWplnzKLpEfc+MEd//r8I5m/Rlp7TlZ9TX4YP36xx+fZL2gcnSj+M+oCKUq0HrrMvla/IxPnIcXjXfmFlxLsPVklFxNsPl01TW57uOD1n9t0e3fOK+HPFJCqQyhSB1GcG8EoVJDBcK/ga7QrADZACpHqlbpDJhvEj4c+rUqR/+8IfY95HuebnJSJaefoWNF6uJ7oIP1lJostCQLpmmOPModoJmyuMj//m/C+dv1Zef1tiq1Y7abCdoH9C16YICt3qMDz3UuwWnabYbpP+GjamdXpXLq+Prcx21+XbQPnS8J9sVyFhzPgMIEsio8A5eVzfU9iFl2//PH3k/QOgSHp2PooANSZLDihSBPGMEH4ocT10IygdWQgYSQFJU+0hUaSChH36//5e//CUp1JD2fXx+HcRCmSyGZHyMLaZoq8HMspYCnC/ZyFEGzjLSOElz3xdG/eT3hYu26+1ntPZqVXf4yHH4BhA+fCqnH/pcHHV59tp8e52W92S5AhmVLRlrL2S4Ayp3w0jXiTGlux+q/GB+S7gasgRJUhRiSmVBDgtCuyxGib8UwtZlCckkAxlOAjKQ0AHnkqL4IMYLWJT4c/Hixf/+7/+2WCzpsLHPzw4zzXbCBzN2HDW2hKKsBhPLmMcaTQaOYVlDIWcZabpHM/3p0b/4U9Fbu3T2MxpHjcpRm8XXZUHnS4f2MbDwEch2Nml5b46jPtdRl+uo0zg9me5Ahrs5Y+2FTJdfbz8zdsWBksXbfrz7ZJWMmiGlRwTKUYqyKEpt0eg1GUbo47zI4DsVkRzGOdcBHwOt3zZV8UFcpwQiJG791VdfnTBhQrrnpW/wMabEkMCHsYhlGNZQwFlGmCdrH3pu7L++Ynhnt56v1vA12XwHPrTugA4bLwMJHypnY5brrMbp1/P1OY66nAQ+nIFBlec0vHdI2UnT0ve+ZHt/welLZxC6DEyIQHYPUD7kNlFsU6AuVBI+pBDBRzwGZCBpICmqfZBLTFQPSZIikcg777wzbdq0ND76Dh/FBhPHmgtMJgMHBXUKjcUjLVP1j3y18FevU0v26p01GmdtNl+b6azLdDWo3N4BiY9sV9Mg1zmVM6DjG4AgfJ2aaB/OxuzKc7l2z9iVJx9Yeeg/qxr2tSKo7QIja0Pg3xDFiCQFcc6xBD4UqBglhXDJBvCtDrSg0xTWPhBEAMNHkiRRFO12O1TJZqDIS4cJg/OCJ1qUBdTyJLkVfZyJjQ+kGQvNWSgOD9gvMjNFVrrIQtPgSWWNMMGFhAuM44cWT9fP+oeiX882LHtXBwPG6qHXlm/IhuhSn84F2gfpedE7YNCtBvsd8YCRFBpxq4Xa3SC44qQXnKNwnD4s/myXH8bUxqQx29mc6WpRwVDAOq2zWuc8o3HWq1yBbFeLtuLTvHIPterkl9ccX3z6kk9BbaIclsKyEkZSVIpGI1DkltTHxjFjiqxg30eUFKckxstA0j1S3/dBYk8VRamqqnrmmWcog4ExQC0jEwulFDmKNlK4ZFRnjgykpt4350KbmUILU2ShKRPg2MiyHMUxLGOw0AYrRVsL2bHGSfqSh/Ke+QHz4iLD8g+0Dq/K5lHbvXh4Pu5zcTbq+AAOWvfreFgSF198DC6Mf7/l0qvR/Vreq8d6hI6HgDe1E/qMstzeLLcv0+0f5A4McjcNcjdnus5iacl2nlXzzSroQjqjdp3Quo7pXLU5rkYNf17nvKJfWc/aTv3nJxffi6JWJYyiF5EUkmVJUWToK1Sghi1Up0xiRMefHXNJX/fz2ZQ2XpI9IIcOHYLQD5zyA0LXk/ARKzqX1jV6cQUoM1OA8YGVDsbEsJzBSLNMkZUqLKGY4iLjGOM9uvGPDv76T4wvLzWsOqh1+NU2rwZiqGKY0MfxEadGAh+JMbi3nh1Ex+k5QUgqI5IPjaQjUbm82ViyXL4stz/T7c9yBbJcjViaVHxAAyfo0Tprda6anMpaXSUQR8sH9Ksbilae+OquplUtqEZB7WI7inyKpHAiRom86vo5EHp3+KmOD9KDqyhKXV3dz3/+c5PRBPYLyxpZDuopUtiWITUre9F4ehof0Tdv/lTYOwXaB22wUIyZ5owYH5SRZsCKKSyh2WKDaRR3j27SzOHP/6v5jTJD2Ue9woeGJ1XaUsiESSZOPP8gzkLoalAniQZUFW++M5Bv92ttHpXDm+n2ZrjrVPYTg1ccfKzi2Jtnwp9I4DENQ29LEMliGh+9Q85tWDvRcUvwIcvyhQsXfvvb344rKWFphqMZjknk/uBMDI4lS+OjF1cAGy9gp2B80CaW5WgOtA8LXVTMcFaDZRh7r/beJ0f98NfmuXzR6o97hw/Ir5MS7FA7IY4Dano7fZCBNZ7ZKJ6ftV4HPo5aEFeNxlWjtcOwwKHOpsH2FnV5U6a9KcvlVVfWDF713kTH/l8faNh/FZ0ngaQyLhsHoaSxz21oF6m2ixTVPhL4IDOyLF+7dm3evHnTpkxlaSiUzWIHqpnlLKzRwhohlqwXjScV3v939hhoM3Z8wEBbijNifDAczTEGK1NUDGmTi/PZKZppz4792R+MCyoK+jM+ssE2CWTjvIokvYDe4clxNOQ6cNcsX6PHLlKd67TWdSrXUT20vDZ/tT+3/LyWv5Ttuqx2+XKdR8c59/30vUrD664AACAASURBVCObLrSeV/BofFzzWpKh3yXxrKZa274Nx5Oi+Eh4PcglkGU5HA47HI5ZM2caoVcRkp4aGdbMcmY2rX38HSRK4IMl+OBYluFoI2Ow0gYLbTJSJbnG+zQPfaPwV68zf90wavUnGodfZfOq7VACljg7dK5GLXadXuf70PB+SPaXMtpHlsuf5YIeFjXkVYQROjkOb47Dm2sHiGCXKoyRU7trVO7qfFfDcJtHV+ZV21o0zgsqx9mhZSdNZR/8aM8xR/M5DxSsFUQpigQY3ALD45LdpLehvabYLlIXH4m4dYISQRB27dr11a981Ww0GRmWi3ffxvpf0j0vvVO+aFNM+wB8mGgjBJpylAn3vJgoE0ON11se1M76nuE3fzUs2T68/Jia92fbvSoHriDN+zW8X+dq1DgDAIuuklr48GW7wISBY4YROvEEYna/zgGYIwkKMyvqMyrrclze4Ta/ztGYVXlexTeqV1WXlB/9wdYzDu+leiF8FbULMDq/HRJpRgZgHEdv6ZSi+CBD5hK9trIsi6J4+PDhH/7gn0qsxSaW42jGzIHNQrynpjQ+eoMPE0MbWYOZpqGkLQSAGI0Mw7GUiaXMlIGFztxJ+pLHdF/6CfWnlWOX7xtiO6Hh/SrAB1RL0joDWlfghviIORogwqIv5MZ6DSnO0nkKiQUguyJJPogDVQJ6R6Pe0aTnm9WOxmxnY6YrkOH2Z1T4Mtb4VS5fns2bX9GYtzYwtPwEtfKj57fW2LyRmigKIjmsXBPkTyXULiEhKkJcx92tfKRq2FiyPUnUEEmS6uvrf/1f/3XPxElGlmMp2moyQ38jRWP7Je376IUJY4LeK8pMQ10GK2U0U0Yo2oDxYaKKIBbEOFk38cmcr/6Kes09ouyDPPspjdOvcnhVEPcBeofO3XRzfEBoVh8I4VG3BNG6fN2JVwvO0TqtswFHoPi1jkat46yWP6dxns90tGTwLRnuczAirrI5Y01ThjugdweGrPEMcZ4w2w5+c3v1srq22ggKQuZBAcntMroqolAERaMQqT7wxtD2Tv9IUe0j+SQSfbfnz59/8403pt93n5FhGZw3yEgxTBF0OKZdp73qY8b4oM00A/gwGIEgUDKKMrO0GRIFWYqMU9WTnhr83d9RczcNKT+c4zij5n1gvNi9at6vdQW0rkatK6DBFsF1xosaax99wQ5VXJ3pOT50MPq+TsfXafkYPjR8IwSGOZqzHM3ZzrOZfPMgZ2NWRXP2muYMp1fF1+a7zhTYPp5oP/hPO8+s9IePi+iCDKk8YPibGEFSSEFRAQkhJIaQJN3d+kdK4yNhvJCZYDDo5PknZj0O2gfuvjUxbBofvQIHWRnwwdBmmrUauGKDsdhgtACCKQtLmxkDxVjHclOzJz876mevU29V5dqP6mCsrTeODx+4PGLSjeMjtfDh9Or5Oj0QBPABdWqdjdnOpiy+cZDdr3I2ZfOBTFtDtqNB6/LpnN48/uQwx6FproP/512vuzFSHQJ2BJEiYHMaCRKIIkkIgsauQjW5gZa+NPnN/ZnzqYuPZPuFnIYkSe/u3//Nr3/DDMFjrJFmLJyRS6Qv7I3x/3c0uYH0EzD6WAj2twI7uGIobMuYGYOZoUy0wcAUj2Snqu//huE/3qaWvKtxnIAsQQ5vtsOncvhUPC40DyrGTcSXKtqH06fnIWe6BjQXcKDG+nGdvmy+QW2r0duqhzjOjLCdHFl+bGz5sRL7oac2ffLikXNbL6E6GV0S0RVBCslRyASkyJAsXSAWixwBBSQq3d3mS0rjQ5Y70jMRE+bM6dO//PkvxhWXkJ4XC2uEEXQ0zp+cxkePr4CJgXLjJhosF4wP1kpDV66ZNpgoQyFTMoydlvPY97nflhWWHsjiT0OOD4c3m4+FYMUCsaBENkRkdScphA9cRMKnBnBAD26W25/l9qndDVpnjW710aGrjxSUHzYsf9+0/L373Uf+uarm7ZrLB4IwmrZVQqIoiYoUFIJhOSogJVb6GudPl7ExI6fx8Zkqyh1ZgWgfCR2EDL29cP7CKy+9PG3KFJaijTTpdgE1JN3z0ivl6Dp8lBhYKwX4MFFFJooqYscNZe8b/vTPLf/rHFv6YaarJpOvz3J4IXbTFQDBMxpXI64g3R0+YDwrZP3rC7lRJsTu/KY+LXhnAmq+ESfyCGTCIBdfprtB7arR8yeGlH9UsPqAqezde1btfWrDkX87erHirOxpQ5/K6CoMqEVRWZIUSRAjoiRKiizKikRGxZEs6tLd3vWS0tqHoihktH6iYKUQFVaULp/x6GMcw5gYjikymEnEOi7g0KsmdDevjI0XrH1QoH1gfFBmpshIFZlouoibOMT4QME3/sP6lzWjlx/KrGjIdDZkO7xqV0DrbtQk8OFu7NZ+AWXE5SPD0m75VOWCzuCeu061zgA4Sp1ns2AkfuMgwIcn212rc50cbD88auW71tX7nth4+BcHvXOaomsk5JMQuoZQCFwcUUUJK5Io4/gwrP1GFTmMc4aBzhFBKPbHHXm9psROUxcf5PIkajWQ1EFIUfbv2/fsM8+wNGPijFSRgQShcgxUz4ZBdGnpwRUw0UarwWylTDhmDGLVGbaI4goLOabAaMmz3KeZ/OyYH79mnL9n6KrjGW5/Nu/V2Bq0Do/O4U2InvfqHddLTnxJYrVbPAPVMJMG8jp92rjonD4d79E5PDkw5s03xOUf7PTl8gGto1nHn83hm3LtnsGrz4xcfYwq/7hk9YHptve/uu7gf/2tbon36vZr6LCC6hC6inDGDtyhgjUMcJni1GGgB0u4s7ajBNSAS//TWyalOj5I/BiBiCRJiqJ4vd4f//jHZrPZYrFwOLcNwzBc+tObK2BhLBOKxo0zFJsZI8tRBlNhkbmwwFw4ymwcah4/qOTh7Bn/VPD/lhtLjwxZXTPI3aR1+nNt9Vgacm0NeVA8CSTf7hncWYbYPENsnsF272C7r48kz+HL5WOS4/THxZfr9Obynjx7w2B7wzC7Z3h5/dCy2vxVdfn25sG2xmFlDaNXnGRXfDK1/MhTFZ/8aOvJVz5qtDVcOdCGvAhdRKgVdA7IB5b+9PwK9Bt8EIIoihIMBl955ZWJEyeC949lCwsLGQZ7Asnf6WkProCJNhcXjTMXWVnaSEFewoIC49gC49ixZna0pSSn5P5RT37/nt8snrZkL73s/aFlR4bbTg8tryEybHVNXKqHl9VcJyPKakbAwtq+kxGr64gMX103LCa1w1bXDsO7HlVWM6astqCspmhVjWFVDbvypHnph/es+PAR/pOvbDz9k33ePx67uNjbvvaC8EEQ0nacQ+gKBgekMYbelQ5vfc9b0V27Zj/AR0IBSRgyDofj2WefnTx58qRJk6xW6/jx48eNG1eS/vT4CowvnjjJPGWCZXJxyUTL+BLjBJNxAmcaz5omWE0TJ9LTHrnnq//8hRcXPb1k00PLd95jf3+C85jVWWN11lj4aitfbXUQOWOxnbZ2EYvttMV2xmyr7gux2KqLbdUl5TXFthqrrdpaXm0tP2MtP20tP11cfmpc+ekJ5WfusdVMddQ+VOGbtfHsN7Y1/sf7/j8fblxUc9l+NrKlVXk/jI5JqE6BJOlXIDWpGBZCihiCggpiGJKTpj89vgL9Ax+JXhhRFGVZbmho2Lx5s8PhcMc/lZWVa9KfHl+BtRXr17k2r3FvclWud66tdKxz8mvtzrU291p+zbo1FZu3rdlzYO2xBpfn0jJf64LGtqWNkbJGoaxRWBWIgvgjq3yRMl9klTe8ygNSliSrPOGV3r6TyApfdLk/uswfXeqPYAkv9YeW+kKl/vCKQHhVY2R1Y9TWKLhblI2XUdU19ME16UhIOi0hD0JNCF3A6dGvIjmIhIgclqQQDKMVwxBRKkYQ9M2mPz29Av0MH7IMSSVFUQwGg1evXg0Gg+FwuK2tLRgMhtKfHl+BcDAabpeDQelaOHo1EmqNXLsaaW0LXw4GL4fbr0TCofZQ9IIgNyHUgNBp3OpasXegVUGtCrqCp1dx7+ZVBV2Tr5erCnR89oW0KlDV7QKW8whMDyzKOSSfQ9IFJH+KlEtIuYKUVuwHbUNKOxKCSAijaBhFwkooIrcLUpsktclimxRpRdE2JEXg+3AQRSMkKXpPW89dv17q4iMR8XHdPSIKCKkgReLKCFMSGkp65jOvAAzUwP0JIvQzQJkjAfdUwqyE38CiFBbFa4pyBUFyrVYkh1AkIdAOUSSCIlEkCFhEJCSLABvsO4HaSwKYGWIUCVEYvRaNoEhYDkaUkADDU6IKSESUglGxPSIGo3JYQlE5JhEJlI6wJEUkKapA0g4cSDoQ67Bc13Zu+Z/9Dx/RaJR0wZCBMIQdt/y6DPwN4qHmEuTdU6K4HImEROiXlHBjFAScxVMUoUxJNIJCAqS6aBdRkIiEghIKylgUGI+aLCE8xCzcR1MccRGJxV0oIbBC5CCS2kHPkNtQtBVEuIqkNiRdQ2IbkiOKHAVRQGRFkOSoIAlRSYTTV+DcQgIScEi6dJePwO/lc5+6+LjRidxIK7nR+unl3V0BBdcekRSIvJYIPgQFQqOQLCNJRiIIBO1JkiCJUUkUJIi5JGWeydsa5+kjIRG4NgH5Dk8VXEy+j6YYeTD0hBRViSFBhqr2oiILsiTIkijLoiJLRHCgFw7ZgHUELFDQGkd4RBAKKSBhDKS7egBcdw/KzZf1P3zc/HzS3/bsCsi49UHhMxmsDElAsqAgSYHknRBSKUEIRKJFEhNFxLn5CBSAMxJBUKx1xmq4kmJI+CuIt7rVIstAjXBcQrjPFRq/DFGgcZ2kY4VI/Dw7cIOpkWBH8k9itax7dgXTa6Vuiez0venjKyDjRgT4UCBpBfYmKPAHeAAUUEGgNrwEHRGygKKSHFYg10UMKbF3eCycm6xIpuR3Iv5d30wVPGCNwEoB/UKWZJiAwgGiiFKSiDC4PkY2fPCyBOcLA+9jKhYS8RJIe0yGs/TxlR9Qm09rHwPqdvb4ZBLaBzQuGae9wQoH4AMEayLQpHCbE6AQYyQKaXKguomIXa0CuEtFqbOQNknW6aOpAjSQoew0sUXkKDa/IhC4IUfA+6uASqHERCDV3bA5JWM8CjG/CRm1ooQREfgzilHT46t416+Yxsfd+QjE3Bfxmorgx5BhTEeSCRJzj2ArRkI4HhPWITUY4x4o7GmMN1Dowoh934dXNXHo0HekEE0Jqw4AFEmBMbFEnwK3jgQnhNGRMMmAEQnrJ4yUEBbi+kibL727cWl89O56DYy1SQuMdTJAgycNDP6LOyuAA7EeTQKVJM8otMTPlARKbvlM3DlDfLcdRxI7YjiLuGYCMzF8wJkRBYtoHwlXSRT3PsXNMthc+tPTK5DGR0+v1EBaj5gusfGiMZbIeDQppNPCPhBiIGBtJJYRmLTDOF4Ice7MFFdXgcOJWyRQyh6rIVgBwd4b0EFkcOPglBwJhMFdTKgvZBMEMLGlMaQOpJvdl+fSz/CReG3e6Dbj5YmHJf4+wo9M8tIbzX/mO3VgrCDFHaexVy1cDhk7PQSMDyAIfscr8DLG6j+5hKSMfFIl+aQLmYySjiaZtMKtWggGCwZHN/jAdIsrJPjou+Kj4ziS72ayjpU46J42vcQPrpvBvyfLBqRftp/hA0dJxh5tuDWJuxW7TwouGyhj7xrpQ4iFKiQ/KDeaTw4oIP18A3tKvKSkI4MoFaSnBfeYQBWCRIu6Eayvb13kdly/tG/+Ttz6rjNdd5hYp/NXicWJGRJHJ2CvLMnzAQ9ZjFNxky2xdmKGPFLJriOyBF84rNcpuLDDQCtK1//wQXry4bXZRRXBbYCwI9GNAHEMPZRYArp4s0l+GAbcPHA2LsTfEXtld3umvdbienjFU2813KENoWUidgPFVBfQdzqzIxlD5Cy6JQi+cBgfchT3YvUUxMnbT+H5/oePKFayr3+g8SVOmMIxAoAlHEsVFXuBJCvYXedjJjQxpAf2lHR8QlfFjS9RvMEkWs7dMIMfnQ5Doyvg8FVJvJ0Iba9fn/xNfoufPBIOI8OLbEB9+hk+yG27/m7F7wjRMmPaRqIPoeczJF475nQjrrcBOu2ICYsl8uzQRRJKCcwkMbRrQxqoS5KN4mQQYFUk5iKKh65C4B1WVZJJHH8eyf/XXabOX/bzv/oZPhL2ymdc9sQti7n+ulXJ7/KFsQAxrICQh7/LNEYZcI/EHQBddbYBtSRmESfbsUTnwk+UgnUT4oAjHb9RCMCVkgQicTsZPjHXCVZaBprykao1bj+DDvjrBCK6vyl4acKcSXqNJr9SO83HfQGd3r8DcmGSKZ9kkICa1pkgSfgYkNeh60kBPq57rSSuUOyJir2RRDyaBkemQehtPBiXoAQgQpS3mOeV8GjAxZT0M+2jwwsa95wm3g0J4hANhXQcYN2zp69HCUZh3hUiJrmCOjzLsetEHNCdW9YNbJvOKw0E7MLVSPCi60ziUYo9iAlTBjq8ZYAIhLpiAfTGtkX6A0kXV+IxHRAz/RAfcc9HXMEk3lHcIPCbg4zIDEIaS4hPjuvoPZoZ2D21yWdHhpziiEu4Mt27AOMKXtdX8nVv6IH1Z8KfHG/iJNIER/aDgpZQymSRjFXGQwjJUCGRhMxLHdpHoj8QwyS+yYHxf//Gh4hvJmiJUPVckhQUEtE1BX2KU+9/Gqv4Awn4k7PZBDuNeegY/wCsIUPFBvo0glAbvjhXYxn9UDvCgtNeEKZgpyAeg6sAhXslifFqZBRa19/GIsbJsLZebrz7rf29myJIhWEwCgpJqE2RW5F4FYnXIAGRHMbaKLg2JEEmiQ0kATKcQa41nHQtFIKxhCL2eEiCIkL/rKyIxFju6LuK+e878sCl8XEnrkDcd0rehwJ+EUCvmCQJgiwq6Hx75EhTy7Fr7Yfag4fC4cPB0MftwYQcbms/3Nb+cVv7kWCoq3wcDH0UuivkUDh0MBL+MBz6MBw6GA4eCgc/CrV/HA4ejYROCJHTQrRGFGrFaJ0YrRMiNdFwbTRS1xupjUYS0u0PE9+SmW7X6fnCjq1Fen6c0bpotE6I1oMI9aJQLwh1QrRWDNeikBdFG5HUgpTzCH2KlMtIvoaTmoWRGJWi0WhYDIfkSBinYcNDkQU88BgyAQhiJBwJhTrb1tgKwgRJ8ONONJ5bv8/+qn1gy0XBvY4SRFJDBmXIn3ey6dzCTZv/vHHDf66r/L+b1v1yy7qfb10fl3U/2xKT+JLEVzDzw53rv713/bfuAvnu7vU/3Lnhh9vW/Wj7hh/v2PCjrWtf2FL5L7s2/s+BvS8d/fAvxw6+ceLQ7JMfzTlxaPbxg28ePTDn6IfzPumFzD96kMjNfhVfZ/7Rgzdbrct+537y4dwuC7vdXbdrJvaVOMj5Rw8uOHZo4fGPFp04vPTMEZvnRGVTzeaL3qorze+3X/w42npaCXqR0IzEC0i6giTQTSQhKEXDYlSBHACyFBHEcFSOiLGESzGPfCyUV4mPAyaPaXyw8q1vzLd/i/0TH7HQHcjMKSMc+ITxcSUiHW05/6fKiif+98X7Xv5Dyat/MM57mVrwChHD/FcM81++iYxd+PKIt14efhfIyL++MnrRX0bNf3nswr8ULnp1zLw/F8z7c/HSOY+uWfXczjVf2bnm6zvXfGNH5Td3VIBsd39rW8XzW7uR72yt6Fa+u33Nd7dVfndb5fPbKp8n62xxf4fIVjdsalvF83iF726H1brdyHe62+PzWyu+vcWFBW+QrEM2Fd8d7BHv69tb3N/e4ur2yJ/fVkEOL7aXbZXf27HmH3eu++dtlT/bWvGvO9b+qmrDr/du/v37O147/O5fT31k855ef7Zh18XGA9cuHotcq5EiPlBP0CVFuSYrxByOKpCGSBQgvyP2v5JRfJAIQcEPKgzhi39uf1Pviz32Q3zg6B3sq1MgmwO4siD9rSiiS1HJI8krTx1/5PU/T5z7UuGCl3IWv5a19I24vJ655Gaifud1/Vuv59wFonnnjUFL38hY/Hrm0jezlr456J1XNcveGONaMn6n+/53N07ft376njXTd1c8sLviod0VD+9Z89juNTOrupEZuyq7lVm71xIhv5pRtSZ5tcSmEuskf9sxX1WZWDN5Zsauysd2VsRWix9VYlOxPeIDe2xnxWO7KpJ/2zG/e82s3Wtn7l4TOza8r1m7135xm/vZjc4vb3R+eQP/3Dr7l9fZvrmR/8etlS/sWPvLqo3/772dLx9+/6/VR8sb6zdcPren/cpJWfBBjQhwt11G6Kooh8BJgr2kJFwGSosQfIBXNU6P7oMN+qKF9+k2+xs+cERgos8lgQ8kyJKELssogNC24NV/qFxtfevVvHl/Ui2ZnVE6D2TZ3M+UQUvmqt6Zq74LJGvx3Iwl82KyeE7m4jl5ZW/R62337Nk4/f3tD+zf8sDejQ/s3vDg7vUP79nw6N6NM/ZsnLl7oMmsPZtm7dmUOK8ZVRtmVG2YuXP94zvWP7lz4xd3gXxh5/ov7Vz/7K71X9rqfnqT8yubXP+wpeL7O9b9bN/W/zi47w9HPijzVm8713g43NaAK86QQrkC6fGFV1ws76OiiDISZLBiYp8+bdW3beP9EB/YcsF9jXHtQ4JbI8tQHr0eoT1I/qPvpGnFHNX8P2UvmZexdBHIkoWfLYsXZtwdMuidhZlvL1It/mv22wuzFs3TvbNojG1lyaY191Vte2Tfrsf27pixe/vM3dser9r6RNW2J3dv+0LVti/s6oU8uXPLkzu3Ekn88Iu7tn2xYyOxb69bJ7HyTWbIdpK3ltjXkzu3kh92XafrBmGdqm1frNr+VNX2L1Ztx8e29bFdW6dXbZ1eteWB3Vse3Lv1oX3bHt6/9dH9Wx7Zs/HR3esf27Vu5o41s7ZVPLmt4qnta762fe3Pdqx7cd+2t44e2tDoPdR6uSESviCIbYIsx0bFKDiVKiSilqFGhBinR1r7uG2Iu25HeDQ+SdIvYJSAnRmR5IgcxW+A0wjtRtEfbHdxi14a/Nbr6iXzskoXZJQuyFi2YNDSharFC9XvLNQsXpS9dFFG6aKM5Qszli/IWDY/a8m8zKXzM5ctHNStLF04KJUFjnnBoNL5IMvmD1q2IDMhS+dnLl2QuWRBVlyyYWZh1rK3spe9lb14gertuUOW/5WrWD11+7qHd29+tGrzjKrNM6u2zKra8njV1llV22ZVbXsc5jf1XGbt2jBr10Yij1dtxLLpiSqQ+J+xbzuvQ9b8jCnZTnxrsMHEvmbtiv02eZ0nqjbeWDY9WbXpyd2bscDhzdq79bH9Ox7Zu/Wh3Zsf3L3pwT2bHgLZ+GDVuod2rXt09/qZuzfM2r3+8ap1j+9a94Uda762rfI7m9w/2Fjxi63rf7+/asnpYzs+PfeJEPYi1ILNmTboElZEGAeOI8ui4KxD8AwnAhQhRBUsctKrGB9lQ2Jurnv2U+3P/qZ94Isq4ly3JEk/lCRV8N9tIoqC7+qiIvuQzNce+cKil8fO+YPurb9kL38zY+WcjOVzBi2Zq397fs6i+XlvLVAvXpCxYkHGqnkZq+ZklL6hWvxq1uI3Bi2b140snZexdG5qy5yM0tkZy98AKX1zUOnsQctmZy6bnbVsduaSNzIXv5m1eHb2OyCqd2ar356dtWRuxspFwM0ls9VL3hxV/tb4jeUPVVXO3LN2VtVaaBtVG2bt3jRz95YZe7Y9tmf7Y3s2z9i7vjeybsbelJCZe9f1Tvasn7lnY1eZsXvDY7vXg1Stn5Ekj1dt/OLuTV/aueFLWyqf21zx3aqNvzr83ss1R8sund0RbT+OwJq+hKCOBETOBBFqk6DSBKSeluIBJlBfV0bwLxbaiONTcaK0VMPF9cfT3/CBrUoRx31BMBi+KZDSQ0CoXUJhRRKUa4pyEaEPrpz9/Z6N1nkvDV7wkq70TfXq+RnLZ2csm6NfuijnnYX6txaoFs/PWD4/Y+U8IAvg47XsJW8OSnVM3IhiczKWvZlR+kZMlr05aBkmyNLZmUvezFyC8bF4dvbi2arFs1XvzMlcMjdj+YLMFQszl87VLZtjcC+btqvi0b1rZ1RVPl61pht87O0VPtbN2Lt2xr7UkL1rZ/ZKboyPGbs3dJVHdq6bsWvDk7s3PlW18ZldG768Y903dq59fsfaX7y7/ZWTH7kuNB2Ihj2YIEEZws3gQRWguoSgyO2K0A6Vd0UhFqLaES9PwtxTP7lQP8SHBKGQYcyOIFY7oLCghBAujSgJSruCWqG2c2RNS8OX7KWFC1/Vv/WKrmx+xorZGUtnZy1boFq8QPP2guzF2KJZMT9j5dxBy2erl76RvXR2ZrfaR39YmFE6B/i4fHZG6exBpXOIZC6bk7kUJGtJTLKXzFEtnjtoydyMpfMGlc5Xlc4fsvot62b7w+9unLFvw2Nd8bF724w922f0TvsYgPiYuWdDV5mxZ8PMvZtm7Nk4Y9f6x3et/2LVhmeq1j+7c+2Xt7m/uc39T9vX/Me+bfOOfrSpufFEJHoWB/iC0S3IoohTfygKVKiB1PAkDD4pwxse6wlqdWp/+hs+cDI5CZcUC+I46zAuUwqKHxRFVhQRynu0gRNE/lgK/u/hDx9Y/s7gOX/KLZ2duXp+xoo5oHEsA+M/c+nCjFLs+FgxP3PFPHXpHFXpvKzS+Zn9UZbPH7R8XkIyl88jklU6b9DSOYMwQQhHMpfOzVqC8bF4TsaS2bqVC4vWrLy3as0j722esW/DzN1rH+9ivMzYs23Gnk29sVzWp4jlQg7jlhgvXc2Z2JJ9m2fs2zRjz4ZZuzc8uWfjF/dueGrPui9VrXl6h/vLW53f3Mi/sGXN79/dXXrmVNWnl08J4nnsEGmXFIH4VmO5EAAfAq43QxSUWDK91GZHP6wyR/KR4kqFIYyPELZfYol+idGITZsrSPYhZcvlKz/avIma+0reW6+qbAsyVs8DFudbwAAAIABJREFUa2XVoozl2G9aumhQ6cJByxdkLZ+vWj4/u3R+5rJ53Uh/AMqg0vmxLurSeYNKY2cxaNmNvTZL5mQsfnOw7W3rNtf9+zc+tG/DY3vXz9qLnYJV65N8H1sBH3t7i49eOUr6duWZe9fPBJOkh7LhhqTo4hOZsWfjw7vXPbJ3w8z9mx7fv/nx/RsBVXvWzthd+dgO5xeqKp+rWvv1bZXf2ej+xfZNfz70YVlD7QdtVzwwrAaFRVxcN4JTU8sw9i6Mi3oHkRTByghOXp3q6ke/1D4QLv4DxY0xKWCoW3xsNKgh2AMVRPIlhE5KaOGJ07NWLRs+7/9v7zvg27jOPMEuyY69qfYme9lNtiRbk9hqLKistlwUJ47jONkkt75kc9lcsrd7yeZ2b7OxY0usYAXRSKqzoM0MOjAFACW5yYpkW+6Wi3qxGkUSwJR3v+89AIRoypYsSqYk8Pf9wMFgMADevPefr/6/R8vsLaohrN6v71YNAnwUWbshKgEBl86Sgc5i+9yLbQ5n6sIzZ1TWzhmxdapsxqx0quApFpICg7NgiiztFXbjZ51DX+WpyoSvkqc0AmWI0XrWo2cpPbhOGR3v0/J+LR/A2getFS5QLi8cXJQeBNhxOeGjhqdqBFobY2BwePjh+oTXMO7VxsGCq+XdjVHXKr9jtdfx3QD9cz7U/dwzoWMHX0XycWxti5g1RE7LKVGcltOTKD0NHhKo/cd9MxY6QcjVCh/EW5pr9ZPG4RewFUlXAUgflidx8Gz7pPgLgfti15ryvt+pBpohNrGhG+IO9p5ic1dxf2ex2VhkySy2qwIp5vqSnUXWriJrD5ZulQ2i1BkhQWt7F8RZBjpVA0YQW0eJue3jG/v/zDu8VPBWx33VsAYovUDrOI+Oo3QsDflUvBe8HoAg3gu/J2MfwQXe6hfgYefTPub2fWgEhohWYLQCo4kx6jhTk2BqtjIrY+4qwa2L03UC3Rjx3BWmvhV0Pxx0PvKkMPr2GzsnJw/J6IyMUlBnp6RSYjKdTkqptAI7FOxiJWkJC9mCudrggwS3MCiTZiWkfHum4xG2X4DzRVJSMjqD0NsIrdu7d9Xo+lv6Hi8x/U5lb1atwzEXW3eJubvU1Fli6lD1gytRtfB0irmQYq7Qso3ARyY5RWU7F0FsnarBbsAOa5tqsKtoqFtlaVtkM37etf6rLLUi5qsSmBqY/bSOp/ScR89ReshugPgl6B2AIAX4mAM+MFDCKOl5xiCA6HhGzVNVvKcyTq2MU5UJRp3w6mJeA4RmvHeH3V+nN38/4PjXRLjvxV2RE0dfVqRjmDwhBX2DJSWdzrQhJxEanKVagI/5G4EcfOAgFyGMI8wUGT0vl3uDKZ/SCB1F6OlU+rFdz9w22H1T7+9KBttUthYVOAi6F9n6Fll6yvs7i/o7VDgYASByVcZujSprl8ranSdE++iEfDmrEbDDblRZ2lRDXcXruossbR9f3/dl/8iKhL8q7q8SGDWe+jqO0vOUHhyBsCQwfBAEge0LFoChq1bOp33M/fMBODimNisGjLnqGFOZYFYkmBXj3pUJb3XMqxG8es7bEKVWhcbuDY59M+R4WPA+8tyTzmP7n8MIkpKRDL5/GXccTyM5CXqJIkIy9QL+u9q0jxw6ZJP0CM8VKTLIOJpIvp6kyCJEwo6L6ABC4dMnfxjwfKm/9WZzs6rvcRWkeBgrrD2LLD0V5q5icycGDuO1Ah9dGE3A31EM6bZGlaUVVA97h2qgQ2Vvrxgwft4x9NWwq3o8UJMIqGM+XcynExhIqeRnRMdnnR2AHd4LFua9Mc6ras/cSDEnehL4qGOZeix1LKCJVmBqYkxVHECkKg7bGgHguJal6sKOutBIQ3Ts7qjj27znVzvimw+9tUtMHUcQMcyQvmHyIQASuQAf84udWfq8XEg8fwfu6YI/D1BGkUU5LSlnZSiFfA1MmNdWbRn8dMdvbzStLTa3FJnbSk0dZSZjmclYbCHqPb5RX/XaRxY7rJ1FVhKHNqr6m1WWltJBo8raorK2fHyz6W8Coyt4Wj0e0CT82rh/Bj5A76CxDgIaBPFT4pVz4fBxUZbORazVORfwR7szBx8NUaYRV9nVsYweEIRWx+jqOF0Tgw2tQECZ0rKuqsiIOuasHffU8o6vR52/eIJdv/fV5yaTJ0hvXvB7gANPlEVRKsDH/MJH7mz5sIG1DozdEMAlr8hQaCBPy5DpNyFKOAojP/bU9qVm4609az5ma19k7aiwGMv7ocq22ELU+86r03LBjhtivBCPKURhwArDSbRtZQNGlbm5yNJcNthebG2uGGz/vGdoGUdVx3yahF8DmQs+neADBQG7PAh8EOsjBx96DtTvCxXsDtAvjMfLii9Qi8x7DZwXFJAsfBg4cJRoMIJocLhKz1O1HFUr0IZxb5Xgqoq5tAlKJ7gbwmPfCLn+dyI69OrLT545cwBnPKZwVVcqDX8F4yW34udhg5TqA1zkrJis3aJkugxkFEDsWJWmUSoFScJyGicOJ06f+Rkf/qLxsZv71i4ytyyytC+yGhdZOksgzNmhsrZf3fCRibZkscPWXmRtU1laygfaS22tJdbmMntrxUDbJ0dMfxUaqRQYdcyrifk0glcD/lFGy83AR8Zzka1zAe/ghWMHHAl34AUhF+GyuWg9SMszMHoC6GU5BKlnmVqwASFgrMVhY4wdnnrWbeA96gRdnaCrElR1nFLHqFrO0xRx3x90/ZQP9uzZNT5xej/moJ2UFFGUJUkuwMc8oEbuFNmssSx85Bi+IckXCLJzztQ05LOLUyg1CZS3UOY4mYb6pQ0H9zeMbfhEz+OL+9aU97eUmdvKLR0lNuwUsLVjEDlfXclC3m/EmR1QOgxiNRaB6tFebG0rtrYQ1CizNpfbmj++uedPAxu/xruqBCDyUPOMhmc0LKPBN0zQF7DxAvCRwQ6ofNOBM/WCVY/rBz7AxzHjGSUekDoMHwZwHpNqPbeBd9dxrgbWpeNcyzhnZYLWjPt0Ca9eYGo5qoH13Blyrg6M/SPn63v1+SemJvYrymkJ8qcxE1bBdZpb/Ze8QRp8SeQ8WdYg0DfAaMnABwnl4nYNAB9JNAkPOBn4NELb0+Jjr7/4l+t7bx3qWmJtKzE1F5taiizt4FaEFG+QDLEQVv6L8SNYARnCIZwhgg+DIz8yRwnx8uY9ggJF0sNIDksGPkptraXW5kUDreXWtRXWtX/ksn1FcC2PUVWcR81TGp7WcLSGBdFD6BErDlDfkUv9KsDHebUSrcBUx7xVca8aKyC1HFPHgtRytAECWBTOl3cbeFct56pnXXrBU72Vrox7qgUP5LmztIGl6nmmSWAaoq67/SMPCz7TK7ufmjh5VEHpNBJFpaB9XDJm5J2AmCznRFhyTpCsRkJYlCXovSEnoQ9HCi5FCtoNSJiOjJemfvb7xOfNa5f0r6mwtql6mytsvYutplJTZ5m5E6eQYbDA5SHl/R2l5o5iK1ZPoDzXqBqEVVoK/CCXGT5AG8IyG6QIauSlmVoxo1omqRRiK1C/D0W3raB92FoqbM2LrWs/vbH7LwObl8U8K3i3mqe1WCA6C+FGCFgSb8VMlESgdSAUaB/ZV6+ujcvq+IChw9limaEj9hqYS+Ar1Qi0JkZlhKhyMbcm4aiOjVXFHOqYRy8wdZyvKepvZH0NnLcu6jKEhr/He9pffmZ88sRhXBQKDOAL+O9qC9xe2FASTifMyALVBNCGI4XL7NLotKy8jORNp/avDo/damtZ3N9cYesCAqHu3iX9pvL+rgx84BVbau5YbDKWm40AH4MdqvVG4AcZAvgoM3eCw3X2wp4/AweUnSx8gF8mX4wz+em5XHW7EYKyILj01t6qsreqbC1FtuZSa3OFee1NA21/4rTdzjqr4nQV58E+v/PeVy/3qrs2zp9L+jBk02QIoJA8VHUMQrbVMaY6DlIVZ9Qxl14Y1sSGq+Jj6rhbF/PW84E7wsGGSMDA+TUxpjLuauRGH97uNe/dvTN15gRY5AX4uLA1P49HEfiQgdBJTiPcFgwIDRUkKpOysh+hHUjqP/hGrWPdLV1rbjYbS3vbVSZj2YCpCDKvulSWziKzscRsLDUby8ydJUTLIEkTA4Q5NWvmnLOq81f4JW/PB3wU2VpK7a2llrWLrS23bu77m8CWyjhdE4dCr2tjAX+0v+JC4CMfQTQxt4Ef1fOjWsGpF6hawVfHB+qBz81fw9I1vEc77rkzMnw/s+434wH+2DtHEZAbzuO6mPdTXcvah4ztlzSSJGC4hn6ssqQkJfkEQvsQekJMPbrzae0G+yc6Hltsai3baFLZO6ES19ZTau4u6++q6O8qtQDrH+wHEkBjiRUENBFbB/hKZisFlwwZ+WB06fBhay22tZTaWiusLZ/Y0P3n9PplvLs64a0SqAJ8zAvuEPgwcJAqRpJ0c+aMBgJboH0QITqIJuap5Zy1rLOWdddxdD3nr+WDej6oFiDxt4Z36wXn3cHN3/NuXPsUu/X0oeOYmX3e1/w8nvCahg/svQaaWiSnkJRCUlqRRUlJiehsGh1GaNupid8+/cTfmY0f6/5d2SYjqP3r+lT2vvL+3gpTz2JTT6kFl/YPdqsGu0qtnYvNxsVmY4UZ2xRAzDOveJGPHRlP7SUYL+D1aIUOFf1rbxzs+Lxr4Guss3rcC1o0T9VAXKBguczDCOgxduTDxywEyYFINeSeUgbOXRd1N0YoyDFjAwYhWBMLVCf81Vv9OsFdF9zy7cCW3zwRoQ6/8QpKnoZ4QEH7mEe4u7BT5fiscShXSSJlCkmTCEgloedGGkr9ZRkdlxF74sSPOP9nux9R9f4H0JGtN6nspor+vsX9fUtMfSXWXtVgL5TnDnaXW7tuNBlvNHUs7m8DZsDBVvBQzlrz8/j0IrWPIvCbgk5UZG8vtreRBi6llpbS/rWf2WL6q+DIygRTM+6rxjnU2th1lBh6WYEyE+rO0z7Ix0H1LZYcfODUdUgnq4tSTWH6joiviQ3ohcDKhB9KY8ZpQ3TsHt/mn/PMlr0v7FYmD+JSugJ8XNiKn9ejcvChgNGCUln4SCLcly6NndoimpbQ6wracnTf172bP9X3m8W2FtWQqchuKrf0lZn7yi19RfY+1ZBJNdSnGuopt3XdaDYuMbdXmNuAUnSwZaHBRxFgR0exvb3E1lZibS2ztJZbWv9gXfef0RuXCXRlnKkUqOoYrYl7dfECfMyD6vGegMvMOTP1+1kEUcfAlgERvHrW2xT23hHxN0UD+lhgxbh3edyznB+7Mzz605jf9vKuHaff3YfkY7irbgE+5hUYLuxkM/AhQdaNiJQkkqZQOpVta4lw63dZgnrcFxCyHni1wWH5rKm53NZbZusts/aWWHuLbX2qgT7VoEk12Fc82FNm71pkNZZb20ttmNMc4KNtAWkfNmMxYEdHiQ2+IWCHuXWxpfWPXetu4yj1tmClQC+POKt4j1qg1QXjZZ5st/fRPgiC5NQQDc4xq4z7NZyvMexrivjviAYMgm/lOF0dc6nZke+w7u49zz4zdeYESTwFzx1M5Aub8h/NUdem72NmLHFWiALEb0AnCcmn8CCjpCilJAmhkwjtRfJT4tneF55q3DzwqR7jTZaeCntvyWAvMJJZu1S27iJ7Twm0TekEA2GgHWycQWy8WFtVlvaMzKPZQk51kcZL2bqeYntHkaWt1Npebm0rNTUvtrR9cn3fsph3ZQwIgWpiXtCfY4w2xkBx7Tytn+v8POeDj9yw5KshVXHv7Qn/cpY2hL1NbKAxTGtCjhrBVS84vx5z/3b3duHkscMIcgxSaQlIlKFzcwE+ZlbzFd8C+CCs1bg2BhJTIQoDMV1FTmKYP4aUIwjtOnV87VPbVw7aP9G+Zom5vQwTc5VvMpevMxVbusosOP6CadmhL8xgW5Edl8AT+MhiB2H3mR+V5GLgo8jaCVweGDtKLW0lfc3l/S2f2mD6onvDypi/OuaviflwhQsDXo+YtwAfueV9iRv5SXTnO1VODamMeW8b91eNB2s5f12Yagy6G8Ou+sjofZGxf97BOY689SaSpxBSpmV5MgUogntaXvE1cxEfeK1rH9C8i/QZhcAtcJApkggXSTmD5AngzldOyWIKGvkoz56Z+Pft2/+6s+Xmjt9+DLoutRbZ2kssHaVmYznAR5dqiLSVgtSsEihImx15+Sjho6+52Npebu8s6W8p6V1z80DXn3k23c7SVYAdfrWAS+MERhfz6gWotjjfXC/sv3wjUBVjbgMSEJ9B8DVEPHf6Hff4Ru4PDP/vraFNB19/QUmdwaoHmsRuuZQCFL4F7eMi0Gz+D8Vp7jjpA8OHrChyCoBDOYXkM5ir/Ww6LUMDY3RCQfEzE//Mh/66d82ne353w1B7Sf+aor61ZeaODHwMdgOCDAFzV6nVCN1SFobxAtqHua3Mbqywd5b0tSw2t/3RyMBXI56qeBBjh58QDsJtsGCzfHQjoI4xKxPMStZVKzD3xnyr/WMP0lt+FQ8Ov/3KC0ryGOb9TqckKLCA4i65AB/zjwcXdUaie0BFHeggIIoCHqlpAhyEqF2S5ZSEpuQpnAzCnz7x06D7L7se/ZTpsY/b28pt4E0otXaWWLuKbT1FQCPaXWzrKgEynjz4yOGIZZ6iuRdpvEBKm6W92NRS2tf8qQ39fx1wrIwFqmMBtRDAXMc+zBVWUDou+wjkmzOztwXGkPBpOXcd57434nzQP/Irwe/c+9LL6amTCJ1V5KQoiqKEJyquAi34Pi5qtc/vwZgBBDymmBeVsBsCfJCq/yREb5WkAk2+AOxxu+1pBb0lidS+vf/gH/tiz6Mf6/qvUmtzia292NZZZula1N9TYQYptfRAM21AECiNzzg7cspIbs+lbFwkfEAurKm5qHftjfauL3o2LRN8NYlwFefXCgGdENAL/gJ8XD6rJP/MM85UXEFHclLJYy1H1bGeRs5dGxq5i974E45a98ruF8+ePqXI6WRaTKezXjkpLUG6Ovmb30Uxv2e7ln0fSjZpXQS7BXuwMZIoMpIkRVZQSpRTogTdzbPkQ0paPJlO700nRw+9+WDE9TnzmiLLY8WQYNq5yNx1U2/Pzb29N/X2lpt7i2w9xfbuTEs6G3SKAccHqfe/FNTIvfci4aME6oPbbhjs/iPn+q9E6cpEqDoequExdvABA+/HhB24phbTAuXP+ML2PI7AnPBBuJTro547Qs5VYcddUcfD476uN3Y/OXXqJHjjFMiDTomKAhnSE0g6i8QUksVC4HZ+0e6izqYAe5AsZkK2ABHgiMIRGHB2ZJyqGeiAXqMpEU2lZIROKehFJG0+vv/+iOuzA603WtaW2doWmTtuMHXd2NdzY19fRb+pxNJXbuspt3eVDnQVQ4/ITijkxx3eiqxQ4F9swWX+pDoGCIqhRgaz+Mw8zhGjAdTAR9o6imztRPCeTCea7HamWh/YTK1Q+1thM35sqPtzY4N/E3GvTAQrY/4qwa+JEfjwG3hfBj44Rg89XC6OT3weV9e1daoMrbSOlOdjBiYNOJgILywD/S4w9TThT2lk3V8PjX3LP/yP437Tmy9sF88ewezI2NOBkCil5PQUEs8C0QRUe4o4cntRc/4KH3wtax+E0pDoFrOi51gtzAw1aB5gwsiKCM29kAzZqMcQegUpGw/s/bZv5Eu2tj+wNZeZ16qsrcXWrjKrqby/v6LXtMTcu8TaVWbDPRAGO1RDuKh/oKPU2lFu6Sg3t5dacNHKYLtqXZtqCKjMAFayQqDkHATJYgcAjc1YgjtmglJDiDwyHZ6gTW/RIOFP7yizd5cPdJea22+wtH9ui/lvQ2MrYt7KuG8lT1fxTA0EXHxanjg+YE5nScMuuwvg2oKJuYdLz9MGjjLwHq1A1UBXF3plgqmM+6pjfm08qOYYDUtpeVotUJW8szLhqmdH7/MM/jPrHnh1187pM+/i/qow5TDflYKfpiDFEe55eN7OmrZXGBw++OOucfg43wDMsiohtx3nlIGPVUTJpHIaI8iO5NTgW6884Bv9c1v7x/vXqnp/p+prKR3oWzJoK+83VZh7yi2dJVbcETJTzg9p4yW2jjJrR6kFWtsDZ8dgOzTHHJw/+CAoA72vO0qsHcXm9uK+lk+u6/kyvXEFT68U6BUcVRP3qeP+KpbSQAv4GZJ0fRZBroflfbl/YwY+gP2A0gg0rs33VsV9VTFfFe/VjQf1cZ+a82h4tyFO6WLOVaHN/8S77K/ufGrq5EGkJEmX7HSmNSJpe5bGKjMoyRna7/NN4QWxvwAfcBkIfMD1ksDonJ6SJtLQoe4gQs8jtO7AW38fYb5s6bjR+OgSc1v5QDeOv/Sq7N2YWBT6IRAjosQGrMvFRF/IUyUARPBqz6keMxyIOWfHDB8iMV7Op31gSmdLmwp4TNuLza0l5rbFNuOfOAaXsm7NtuBKnl4R9WgTAd14sAAflxlBgBLZwFG1HA3eDRYIk7W8t0bwgvYXYzQJrz5O17KuhvDY3WHHwzxteu3ZbcmTByDhCIjwsmYLMOXJ2H0v4Qxp0IHBX1fQPhYESs7+Ehmndt4/WZYhO0RE6aScnJamU2hKRCcVqOt/GaGRQwd+4KP+ztz5h6bWG6xtxbZ2yP4Y6oLmj/auYmtXqbmrwtJdYe0us8Ee3FA2QyxUbDWW9neU9neUYG9IDkEu0HjJgFG2uzU4WWwd0ObK0gbY0d96w2D3Zx2DfxtyVMW9mq3B6pi3kqPUMZ82EVBjHvCC9nH5QAQoSzHFaUMECuEaI75aFiNIwreMdVYL7qZx710R59eZ4Z/FwqZXn9+aPLkXKccRmsBceBn4wC2aFQwm2MePkwykAnzMXrYL63keemSsGVlC6ZQsJsEDLqXQ9DSaTOG6GBm59x/4aTjwVUvnx3sfq7A3qza0qTZ0qdZDRX8JdKvrvcHcu9jSW27rVdmhwB88qbDUO8vMxiW9HYv7OkovHj5KzvWAFNmNJfZOsInMrRg7WhbZOm4dtf91xLUi7q0UmGrBq0n41XFfFZjcXn0iWDBeLid2MGreq+G8dRFfU8i3Kui7M+htCHv1LKMZ963knTW84w7W9e2Q619jkU2vv74zlXwHd009DVUt2NVBHnGLZtJkDlYIbEHKKThAFvbfdWq8kItCbBbopSHj7GAcvpVwc1zwZmWbPqTTaFIBgjL/4SM/40NfsRs/3vtfFYNritZ3qjb0FQ31ldp6F1l6F5t7Kyy9pfY+1QChCME6iLWzvL/zhp6OJb2Q/J5TPS7MeOkk1hABEfJYigO0xf0tpf2tN9iNn9li+QvfyO2Ctyrhr+SpSo7SJvzacX81T9fwtH48MAs+wHsKMrcv8PKttGvyzFqeqRZ8NbxfH/U1hAFBmkLehghjYCk159Lzrobo2P0hxy8T0S1vvLZnWjyOSzQnENBmwgRLQTMRknCEcJpYpoVABj6wPVOAjwU7ArPgg/g+wIQh7O0knYz0fUjBhT6MUOjk8X99gl25qfvT5kcWY3ayksHeUltPmaW7zNxTbOlV2XqhzH+oVzUAVkyRtau8v3NJr3FxnxGTs1945AXyXDPwYYUc+TKQjjJLe5m5ray/dYmt49Yt1r/0j93OM0t5ujLGVAt0DXQ2Y7Rxrzbh08S8aggoAhv4Nbl6P/IfpRWYKsFXKfjVHCBIXcRbH2HqolRt1G2IOu6IjD3Ief79mbhz31svJdNncBfbJFYsMn4O3DwEcAQDBblhgb5BspBwEHDBrh3yxQraB1E+cHowTkcF+CDdRvPhYxoC8VNYB2HPvvufT/Pa9V2f62+5wdq5xNa1yNpZaukstnarbD3Q497eDQqIvQeK/S2dpZau8n5jWb8RMkHyZCZdNec9zfe2AqlqV4kNEKQUzm+E0htze0V/26L+thutHZ/ZYPoSvXmZwFTG/cs4TxVP4WJ8rxraIzL6cb8u7qtmPQX4uHwoA31e4v6VcX8V6CBeDeTUUHWsuynqujs09r2o+zc7xqkj+1/DrSfTEhKBwAPUDAVsFsx6h5uqEq9HOuM6xQuTIMhCt13QdQ0fJOaS00EUEa6oIoFumVJA3YCMVFxNB0+mkTQpT8gQjhk/cbhz1/am0XX/zdz5B73NN1k7yjGdMlCEDPWqrF1FA30lA31Flq4ic2exravIjrvnWtqL8mQOopBz4UMFKWFdoINYjCX97WWmNsAOU+uN5vZb1pu+TG9eGvUs56gVHAVEu0ACREPbJ2gykuk/ktu4fEvoej6zVmDUW4MrE/7lce/KhLcyQdcIrlrWcU/E8fcR55pd28PvHtmL0CmEptOQzgF2CsnyIN0RcQM5cpNKYjsmZ8oseNzIaEUF+ACnKdFAiL9DkZAILaXQNM55x/kgBE5kNCVJEiDJUVn6/ZmTptdeWs04vti55tbetZ+wdZSYW4BxY31fsb2nfKCvwt5b3N+pMneobEbVgBHHbjuKLOcIyRkjZf5F0CZuRorsGHcsnUX9HSWm9rL+9kX9HTf0d9xkMd6yzvQXrg23h12VHFXFU9U8GCwYOygNNI6jtLgtc+4RWj1BF6j3SsGouaQR0AKBGFMZo6sSdM04DW1c2NG7o2M/4Dw9r+8OvXvodUk8gfUMUGhzHRJJU0RSxYl9IMR/muuOmMOWhQ8i1zt85Csg2GiBsDu50NhewW1iSBBelKGGGprFwFSYktBLCA3uf/OHIep2W+ctPY/dZG6+cdBYYmkDfpD+rnJTZ3Ffu8rcDtixzghdpubKOi0CksFOIqCk5ARa1XYWWTqLzWD4YOww3mQ23jpk+gvnhuVhj1rwQodagdbGsK7BU1rOQyTT4BoYCc8nBEouafFcz3oHwWIt+Kc91by7mndWsyPq0Ka7ubGf7+S73ti1LX36baRMIpQmpkrOE4+7qSKg4IXSTbIbTygyrc55XNDtbbH+UYAPXJaUCeHilJ2MH4vUy0hm7cMoAAAgAElEQVQiEiVgN8QNixUFO8wVlIQdJ4AnVXEfP/DLbVH1UO8fdz9+i6nl5v7WG7CmUN6PfaVE9RjEjSM/CD5I7UwRqaCxdaogpRV6zZSbOxf3G2+ydH3K3vtno+uXBl0awa+L+bQ8oxe8BuA9pnPYocVJkHMAB+72rs22fccLoAAfH24EaC1HhKqPM3W8qzY03OTf9K3Q6C+fZjcfeWMHmn4H2yxJBLYv9G3HlVbwSEqvZoo0M68QZz3xeJDezVeD5/S6931kbDiSeIrvBvgSZ9hRFUXEDq90EqVT0OoS3w+y2cVJhI4g6Q0kxSbefXzHtlWb7F/qbv50x2OfMLUtNrWVmdvL7J1lg13Fg5ghFbOTvTdwO0v7INgBj/buYltPibW7xGwsM3XcYO76zDrzF0bWfc3vrOG8WsEHjWlZulbw1sW8uqze8X7aB2mzmn0swMeH1Z4ywKHlKB3raRKoO0Ijq32bf8zRLbu20wff3CNOvovZZKaRAiW0eGpBfTdBCAAOTDxDgITMvxx4ZI6BeVaAj9zavDo2CCxA7B20DOw0laBRjIzEJBJxpxgphWb4QWRZmpCTJ5C0HynbJ0/3v/zCQ4zrz7uab+ltXdTbrDI1q2wdpYOdpQPGcltHOTSp6yiGeMqM5LweZAN8H9ns0uKBnhJ7X5G5s8jUXmHu/OQ68586N3814K7m/Brep2EZbZTSc3QtD6JnPTpuRvSkvfssyyULHBkFBPfE/rBL6MPdtK+FdxG9Q8NSGpbSRV31weHVgS0/jXn7XtoZP3HkbRECtCl8HyJN2kVQPoBilzBGkKgsRhDg4IWFQVQOYskQtwh+AcdzF/rCKRgvM1dIxORjAB8A/gpmi5OQBKGXaSijlk4jaQLJ0whXMwG9kIjEqVR6elKRjyK0B6GNh/b/4/bYX22wfGKwu8TeoRo0lgx1lts6lvS3LbF0lFmhjCUnxdmC2pmi27zIS5G9GxrumjqK+403rzN/wbXlKyG6kgtohaCW9WoigB11AmPgPPqo28B69AX4uCK5cBg+ADs0rEcXcd7Lu/7XjujAvleeTk4cVXAu6TRxtMP8SMNskaagugUTdoMucq4Qc5g424jvlGgdOWVlZnouxK0CfMxcFaIxwh0hc0MgNwlZlkWcwk5YGMCSBQMWbhQygIskidC1Dr0LNf5ybHrikWefuI8a/lJ/62f61txsa6uwthRbWort4EMtGugqhhqZ7hJLd6mltwz6UfWW9neXWXrKrN0lwDnUobK1qeytRba2IktbkbllyVDXH7mH/ibqWp7wVo37a+LeGp5S4x7XBh7yo/UR2sACtYSOo4hkOSZmh1pmYjGZKMy1oA68vwKlBe8yo84T0vyNpMO8l/y1lqUaIu66KFXHefW8X8MHqmPB6kS4Kg4UKmrBa+DohohrVXDs68HR74ccnS886Tvw+h5x8jhuPZZMiUpSBH9pGqYJ9nvIIqiyUH8PDP8wt/Ik39txbsRl4YddECr4PmbQ47xbudIYckTmKXCEYBDBk0FRUFqRJ2XphCK9npoceWn3j12bV/a3fc70+A22taqhVtX6DtX6LtVQt8reUwydqPoXWa1LzPbFJuuiHtMiU1+FuafM0lVsbS+ytagG1xbZ15bZmj+20fhZj/XL0S23jbuWb6NWbvOsTLirYq4awQP5HaxXH/UZon5DFMjE3n8hXZ+vkuZM1XHvjOB+NzW451sGRPLUliaWuifkvCPkaYz6DHy4Woguj7G3bxVuG2eXjoerY34D67nLP/zdwMivtwUH9jz1/LEDJ86cTkpiWpFTopiWRFECwtLMZMoDigxonHeWXZUvFLSPD75ss+AjL9aLrZisAQu97BT5DJKPI/SqIvqPH/qPJ+OGzdb/1rvmpt7HFtvbigbaigaNpYPd5YN9Ffb+RZb+Rf39i0ymir6+8r6esv6uUouxxN5ePNCqGmoutTX/wbquL9Dr/o51LI25V8Q9lXEADuhIJrg0vAdr0YyO9epYHwiQelz72sSH+I2Er5h0rlbjTA3cMctbA0n9Xq2QYVEycN5a1lvHM7W8Rxf16FhGJwTVQqiKD1byQU0srOcDjWHq6wHX/4jQv3sq7jzwxgvS5BFxOimloXsQOMkkCWcQQXYQ+SvAxwcvr2v9CAIf+b+S7JGxgzWnj2LbR5lGymkEZGVvIjQuJTtff/EBn/PvLMbP9DxeYWkusbeW2TvKoQy3q8zUvdjct8RiqjD1lAPzUHeZrbNkoL1oEODjY+s7/9S1binrqUr4KgVPFe/WxDxawa3lXSAQaqG1HKPloOJTg2kmPsTSuubfYuCYhihIPcsYOIBXsGVAAZmBDz2PgYP11ke9Gp5eHnMt59xVPK2JAdG0nvPXsf47or67gtSDQepftnLWV/fwJ4+9JKUPI2UCyWkFWAVFRZZw+zGShZiZLQX4yF821+f2e+GDBGdy8JHnDQODZlpWzmJXyNsI7UaIOnH837fGGzba/6Sv5ZM9a27qWXOTqe1Ga+diW1e5vbvUDs0fSga6Swa6Smwdpbb2xYMdN2/s+hPX4NKopybur+GZqohLy3rqBKaW89Sy7lrWY+AoPQdEeBoeui6rC3Vx59G8DBwARz3L1GGp5QBEMoyNMyRsPj3n02FZGWe+Mk4tTVBVcejFVxel7gx5vhmmH/A6fxRi1ux4wn3gnd2p1CHM93NWRElJTkliShJFSE/GFS04h7kAH9cnVlzErybhe5LkkxdxU9JpUcH1DadkdEhBexW0/cTpoddee8jnrlpv+ULX2lu613zS2n6DvUNlbVXZWsEnsq5TNdBeZGtbMmC8dYv5S9T628OumphfI/jUEUoTdtdzTBPvrQ+5GsLuxihVzwLJlRbqa+nqGF0TgzK5a16V+BA/UM8zQAXG0nUgTD3WRBqi3oYo6BqEH0zH+zS8Xy1AN8+lW/1/+5Tv9m3eyjiti7iafCP3e0d/HPL8vwRr37Mr/u6xN2XlJIK0QSh7SwMNd1oCl0cWOxRRgr+54eMiJtfVcWjB93EJ1wmrpln4UDINZXAbCDmZTk2lRGg+hU6I6HAavaGgyMlTrTuffWBk4229bZ8zPnpj96NltrUlGzpUG9rBtzrQsmTI+Llhy9/Sm9URt5pnVgoM0B1DSIWp570NLF0H8OEh8FHLQUK6JkbVYNFCYUsBQWaPgBYoSAFktQJt4Oh6lm6MMHeEQZoiYNTUckCMXh3zrUz4lo37lm3zL93mq+Q9urDz7sDYD0LuXydCPc9uCx9+54Xk2QPYMp1WICQLtU9T4DsHfwekhYFvVJIBO0ARuT7+CvBxCdcZTxnS+wF3hJAkBaxglE5D3C6ZRkkJpWQ5DekAZyR0HKHnp9Kefe/811Pjd4wNfd70+GLTb8sG16jWrVUNri1f3/aHo+aveLdoI56mCK2Oem7nPSsEuga0aK8+StVGPI0s3RSlmqJUA0vVcZSe92hjbjUIkH0X4OO9I6CO0SvGqRXjVHWc0gpULUs3Ruk7w/SqMDw2RulaDhS3yrh32bj3a9u8K8Z91QKjDzru8jv+R5RZ83TC/fYru86+u19JnkTSJJKTkiyTGpU0AhYpUcnhhaIoIjFiLmFOXV1vLcDHJVwvonjgDB/ovg2lMTiWCzz7MjxLQ5tSQpotyiipoBMyektG26cmB95+7ceCf+n67j/s/u0n+393y2DrF0ZNt/k2abBrozborIo6b094lsepyji+eXI0cElEqYYoRbSPOo4ycG4d9qSq4bEAH7NVDx3PqGP0ygS1IuFZCXErj1qgtDy4jQwcVcdD2qg26oImLKChQLOFBpa+N0A/5Kf+Jc7ZX35h68ljbyqpE0g+C9yVogj9xSRctoLzv3BmaL5rLH/7EibWVfPWAnxcwqXKq0wgDTFlSBDCCAKmDEYQcKjh4AzONJMkNKGgowi9iBTv8cNrn3vqhyGXZkOfZtSqpdcbAsO1YUdd1FkfddYIrqVbPcvHPSvi7pW8uxqQgm6I+Rt4pp4F30cdS9VyHgPn0nEuLbxagI854EMj0JWCZ4XgWiY4lwmu5TEXjGfcDVFwwVnNjel5V2OMauI9DRFnY3Ds2wHqX/lY7wt7AkePvZBMHVaUCSg/Ad4XpADDjwK3hZns0asiuesSpvgHvLUAHx8wQO/3Mim3ngEHICrDXGVYLYFUAJJYJuH9xDYGr9s0gi4QhxB6KZnijx21v7D7P7dy/xBw3e8fWR11ruKc+uhwVXTLCmG0UnDUxN3aBKVPMDqB1oLHlK7jmTqOqePoOmgR4MEg4tEXaljmcv3oebpeYAwCrYlRVXHPsnH37dvctz/hXrrNuWJ8TBN3NPBjdwWHv8ls+UHA9S+xSOfOZ6k39+84M70vWzILLZDhHiAiBZJJJchAl1NAPgfsP+8PH9d63LaQdfp+8PBBr+W0j2yN00yTDihtAOxQkIQnHMw5oF6WlXQ6YzxDP6oUOplC+5LSE8ePb3z1xd88Ffsh77k3tKUuvLGOHa4VHHpuVBsd1bBjWt6lFygDrASvgffWgkBMoQ6rIdgPUnCdzqF91HJ0YwTMPQPnqYm5lyacX9vq+Mp2x21bR5fFNmujm+4MbnzIv+X/RJm+nU8F9r3z3OT0OxI6lEInUkARRlRJDBpQ+4bLr6UUVLKQCgYMH7NAIm/W5L9C8oPyXrwWNgvaxyVcRZLvgW9ABC2yighpMAgvK7jhYApmG0y4NFJkSBfBdy5MtC1No4lp5YiEXkqnwu8e6ntt1789FX045vlWaPge/6bV4dF7Io7G0KghOGKIuurjPkMs03FSz3sNHAQOcEiShpqXuW6/189OUgs769HAUplYFUcbeI9acNXEHNqEw8AP1/qH7vNv/CeBMu7eHjz41vPTZw9IkDF8GrtEU7jpD2YkJdmBkA6WdyeA/tWZvuv5IHGuNpJ7JW+mXMJ8W3hvLcDHJVwTMjuwBpuDDzgdqYMiNZZY600C06UCxf4k4UzCbIhZdjo5jU4npcOi9DY0tRMjE0cH9j7/n0+yPwo7v+sbuZ/ecl9g7J6Iuynq1oVdWpbS8F4ipGct7m/GFHovzAIO8lTP0Y2Cv0nwNXJ0fcRVFx5rCo+ujjoeYl0/G/e1Pv+E6+DrT0+eeEdOnUTKpKxMpMUJUYRGCuQikiALvi3ISqbjOqbix4AAAJKtjc1BRd6Eyp3mnOmRd8DVvlmAj0u5gjA9MOvcTPUcnI7ca4jygashUljvyEw0cKlKiog7ckuQMECIAs7i+95RhPYh+XUp9cT06c0H9z76dOIf/c6HvKMPRKj7eG8jcHnTao6p4ZhqkqvOefUsrru9vlUPKGnJMIDlqMBgQw29bzzVrFsTctR5R1b7HP894v23ca7r90/7D+7bnZw8CBUGyrH09AkgXhCTYJiI02IqmUrJIo6kYQwglylL4aNgvzgOteV4gM4DH2QuEB/YtZcNUoCPDw8fxEQh5VJkfmRU1xn4gJvYTO9SqPsnOi/cs8gdKYWUs5I4KUvTmQbr4FidlLBjFaEnpSnP0f3GPc/+Ih5+KOi+x+9oDDoNYZc24lGzlJqlNRyW99Aj5zjWtTyjnY0spLhudjk/4e+ExzxqZVLjf7HUZKRK7b2PeZbU+T8dkwkQzoHsI+hWs4ScCn4dJOxDVhhwRGPCVx3n0bMeAxY9665hnXrWtSrq+R7v//WT4wOvvRo/cerVtHwMc4IBxbmipCAuK01Dg2OIzoLIkD4KUVqsbBAtJEPhA4oJDsmTRnA54DjXcsmpobnp8J7XP/zcWyDvLMDHJV0IgiC5+ZM5V+45ni8ZUyZTJyNDSQRkGkmwhUFEzJb+E1+rKCspSZ7AVTOHEXoLSbtSE5Fj+wde2f3YM4mfcsy3/SOrvJsaQsN1glOXcNUknFUJV2XcXTPOqLd6qxNMpUBV8p6aGKNN+NS4rhSS3zmvmmU0rFfL+XVQaYoL8AQ3lOHliSbmyYhAaQTIalXHoH38DB69pwvErJd0PEOqV2tZby0HXaMNuNIEHnnGIDD6jNB6gdbFaL0A+W/5YsB9pw04O8PAQq5XHe+tF3wNIH4gN2G9Oo7RcHQ156kWqJo4rRlndFsZjeDSRsfqWEdDeKwhsKXJv+Ue//D9/pH/GQ+s2bNj+NA7WycnXlMgf+8sgpw+UC9kWZTElJxKotQU+LLToiwS7CDZpMQ6IarkTNNIbJmCa+uDICF/LnzQsZc0FT+SNxfg44oOOynHxFURONcZMpAyXM25DQIvSUmcktOTinQWKSeRclBO75k8tfXEoeE39rTu3PrzmPc7oZF7QpsaopvrhJG6rS614KgGv6C7WnBVca4qzg2Z2glvDTSag2a3tePh2vGwIR42xMJ6qCV1awUXlnPhQ/BoQDB2wHtBLjYjHsOHL4sdXlyixug5RoftC9yMhtLwHg34Mj1a3mPIShZEcHw65q1P+OtivlrBC+9laU3Uow67dSxTKwTqx0P120KGrQFNnK4R3NWsQx0dqeMc98Q83+Bc9/mH72c2/0PU86vtrG3vHtfhtxOTJ1+Q0u8oyrsymhRBx8BscmBIylI6JSen0fQkhg9ydUguqYIvUO7S5J5e0UmzgD+sAB9X9OJcOHzIoiSnRSkN5VeEy24C8wAcQOh5OR1+9/DQ3hfX7Nr2i7j/e/7h1Z51qwLDjeGxxoijMeps4jwNuDZXF3XVQikdrWGpGpaq4Wi14NPEgjqAD1qHKVGzBgKNN2CRZwpSOa+e8xkyAnrEBYoB2AN8GoGIVyPkhKnhoY0mFqpGoKqxaHgavL9YSE094eao4elqnqqOMdUJX824v2ZboGZbQL09CEw/nKeGdVVHxqrDo7roWCPvvkegVkec3/CPPEhv+ZHf8X+FUM/uHe5D+xKTZ34vp19D6AAevVO4tX0qDQ5tnAIGXgwJeqKD6oHhA0pnc385vCDppLmnV3TSLOAPK8DHFb04ZBaS2ZlLcM5t5O5ymd5UwLcqoWlJwYUzooSmZTSBoEHEIYT2IrRLTIaPHVr/0u7WZ8Z/EqW/E3DcR22617NxtXf4vpDzPpa6l6Pv5KhGnBuiZylwLkJ1v0/Ne7W4XB3aZWOY0HNQtI7xwm9g/QY2QKSWDWDxgyVyYaLnMgWs8EEgwMqTFaDbyAlwCMagYo2AFFTN8z4CPWrBWy14q2Peyrh3RZxZHqeXxailMWpZzKNLMI0JpilON/HupsjYHf7hu5nN3/Bsejjo/hfW1/rU+OjeV5+cOP06hozDCO2TlaM4B+wscClANRJgB8TOcQRdViRFTiriNEpPQRvJHHTARg4vCvAx5zopwMecw3K5duZmYW4jBxm5j8zwzUi4B2pKhjRV0g8Vu+9SSXkqpUzJaBKnrh5HaJ8o7pme9B3db31jzyNPxn4WcP/QveU7ro33Ozesdm28m9p8l3/s7qjn3kTg7m3hxkRAx9M1UUrD+TScf5ZouYCOC+q4kJ4L6dmQng1nhAtgNjMg5soXLefFlEXMuY9efHIffiRsRnCAjsPuz5wfJLuh431qIaAW/BoBquax+IAKLObTxP2ahF+T8KnjDBTOxmldgqmPOu4Mblnl3XQPvekB7/CPotT/3cY2P7N142svRo8efFFMHcZgMUHIR3Fj6pSEUiJuMUsayZKM0SwpsYRdp9PgOoVsDvJHsKMAH7lpOedGAT7mHJbLsjMHGXNu5H8kzNqcv55s5PqREWYRGax3wBbMDn8KocMIvYrQ06mzoWMHN7/xsvHZJ37NB37ic/49PfIANXyvZ/Od1OY7fKNNAUd90GEIufVRn47150TL+kG4gJYPavmQlgtp+ZCGDxNRC/6aGDRknCXVAlMt0LOkRmDU0C86Jxns0LG0LurRRz2GyIzURjxajqmKAddGTQy0FY3ghfZXPAMHh921YXdd2FUfdDQGHaui7vt4+lv+0e/7hn8Sdv1bItS++8mR/W9snTr9ElIOIfCJnkTopKycTktJCYYQXJtk6HLt7MFswZ0jyUjiOHtagYw+IEfHlyH/ApHrktuTf5kK2wX4uHJzgEzB/M/LTcrcXY68quBYTK6hMnH7YzpNRRYxuQQO+ZDQL/GMHJfEI0g5jqAe7yBCLyFp6+Qp//GDlpd3r9355C/Hoz+OMD8IUd8NeR4Mee4L001huiHM1EdA6iJMbZSEM3xanmgBgRohUB0LVMUClfHAyoR3xTj9XlmeoN4rK+JUVQwwBXwcPDTuJr27SV8lXdQNnSVAXLUREA3nqUx4q7B+oRWgFraB9dwZcd8Tcn0j6Hog4HrI5/w+43jY6/qnsPeXfLDvuR3ut15LnD7+EpL3Q6cuQA2SLXoGobO4tznBCmhUPJ0EsEji5gm5JHSCyNm4GITG8ngnc/pg/vXKXan8y1fYLsDHlZsD+dMxBxPnm5cp6JCqkGQQMu1J0QQOBELYUAJNG9JIgKIZ6rigO9EUzj17Fy+qA5hv9SWEnpFT0YmTjsP77Xtfad31zH9sFX7KBh8MUN8KUt8MeO4LeFYH3PcE3auCnjswF1EdC8w60PgS+ymA0CxOVSXc75VKKF11vUegNL465qkWPDUCxFaA2Jn36Di3gXPXcu46zl3PuhqwNLKuOs5l4N21HOy5M+q8J+y8P+R8KOD8od/506Dn11yweXvcsmuHc+9rwrvHfp+afhMrGgQ1TuEQLBmftJRJpUnDuElJeATIxW0TgJgjU8CSrSyYGU8SWs/DlHwEmXWlrtx0uRo+qQAfC/QqiZjOCpKaMC7kNJEMqTdo2tCFKAXrBIq4SAYCTqyGt5zFnpET2Kg5CJms4Gp9CaGd6dQTZ89GTp3cfOAd8+svt/z+mf/YFvsFF/xRkPqez/GQ3/ntkHu1f2yVb/iOwMgdEUdT1FEfGauNjurzxMCO1XKOOt5ZyztrOccsMfBOXcKjibu1cbc2BuFhneAy8E4D5zBERmsjo/XR0cboaFN07E7WsYpz3BMevc8//EBg9KGQ4x+inp/HA488k+jZ8+yWt14JHdn3xKnjLyYn35LFQ1i3IngxpYA+kcYkKxnbRMTmHmhxkFqeRPIUkjBJB86tmWkLmbFmSJpfxnwh8JGrn16gM2Ihfq0CfCzEq0IS33NTnGyQu2M2Rx4oiXDzKkiXTMMaImwBkCMpywpukqdMK6DMn8GuxBNYwz+C0EEF0OQdhF5HaI8k7Zieip8+6T9ycHTfG30v7Pyvrdyv4qH/xXl/wlIPs+7vhx3fCQw/GBr7dsTxQGjs/uDIN/zDIL4t3/Bt+WZg+JuBkVlyX3Dk3vDo3ZGxeyOOeyOO1RHHfRHnNyOO+8NjD4TGHow4vsu6fsBTD8eYH4/7f7It+MvtkZZnxy0v/3704N7gqSOJ6VM7xMk9SuoNJO5D0lGknAIoVCZk6awoToliUpZTkOsly9BIFFNwZCrpCS8CGCIiZvfBWaRZXxGuuicQQfynJPyCE2+wz6MAHxe/FArwcfFjdmXeMUujzmUvZj4dnKv47itjYiLCdiYBPQDsJm2YoZ4rLcrQ+UyCJMukDH4AosikSWAH2ztnsMfkHUl8G6G3QUmRd0hTiemTodOHqaNvjxx41frKrq7nnzbufrJt5/aWHeNrn44//qTw2BPCo9vYR7bOlt9uYx95KvbI04lHnxl/bMfWNTu2NT+7rXXnto6dT/Q+94z1pV0b33zZc+Sd6Nl3t8lTO5D8IpLelFMHkHwEp2Ycw+m2RMuYnlG+5JQspmUxrUhJBdo+JhVJJJzmkozE3A/PoitQJUBzYkgLAyI4grZA0pETAh8wnAXt48NO6QJ8fNiRu9zvI37RnAaS1T1groPk/pH0aQWTJeZWEWmvCUcqoizPCMl0wMGITDwY9pB6sBSOdJ7Gq/cotnoOgJKi7EXSm9j2eR2CO/LLSHxRTu2Rki+I08+lJ59LzSF7xNSLUvolWXxZkV5F8htwEuVt7JE5iqHqWBYpiMuTuHiSCpoU5bNpaVoCKmKIUytAHpuWoRWoCL3JIc0/CV1jwTxJIeiugqNURPPCiEpYmma4mgh2kMAKYUfPAGg28JKFDzLg115i+eWcqAX4uJyjeynnJlxEOfiY0cEJfMx+BIsFCy4hzwsqZOCFhGpIqagMOj8pAsMURti5KCNI5VaSEPJUiMNlGusmkwhy1c6AU1Y5hZSTinxCgV6cJxTpNN5/5tzHCfyu6bwISOa7gyqkSCIAHTG2IEyK07fEqbQMJSjYiDgXKEHLgrI1XNkM3Zgk7NcghD0yTh/FZfMkuxx+LDk2a8rhwqL8UZw1kJlLlFPuCvBxMZO2AB8XM1pX8tj3N17ypzue8WCvEHqiLLDgL6sAtVn+DTkbsVFAqcf+VlmBEj5RktLgTcgqM1glkREYPmk5JUEvtZQsZUSBdUsyv3MolNsgZankC8J3yP+qOWgARwM2L9IiWBjZH0u+nZxWpJQMuaE5FQy/Eb8KtYZYK4FfRT6UuJPJuTOsCLgldQ5Jz4MJ+d8Mtj+4AO5KToCr4bMK8LFArxJJd5p128x/OhN3xKsst3pzK5SsOFERRcyyl60wT8solULps0icwoHhaRzgTGKfCHhGIIk7axvlzgXrD27sCgimZCRgBY0ZZ4sMGgYxFsDjgJ0xRCUg2RW5pHHsq1TSCpghQFNwVpInRWlaVDJ18KTrJ+ZkA48F+YXEeZMLRGE/DxkWkg6We4VoGeSL4y87S7UhPxJ+4blepPNAzQKdJh/x1yrAx0d8Ac738e8PH2Rd5989yX06t96zG7l1S3jfoZUEDkwAcyKRKSRNyuK0IqVBS4GFlrkREy9kfnwCY8c5eJEBFAIrM49pWUorIIQ7gzgvsx5dSQEWDSKYQFSRUtBdHIRwmYPPk2AUGYV8SMjBZPa7Ep0hp6bkEDY3ROeoP/lDluc/yhhHBQXkfNPxPPsL8HGegbnadufSzy5gA4yWc9ZRvoVxnvdnPQo518L7bsRB5tYAAAEqSURBVJznJHPtBocNNGeDylcs+Alu1Za1pN77Xee6OvlHzfV6Yd/8j0ABPuZ/TD+SM861Mt9v3/m+5JzvyTkvLxBE5jzJ++w8p8o1++R8x5/vmxf2X/kRKMDHlR/zy/KJ51ts59t/vi8x9/Ez8Yz3VTqyh4F2c9n+zvfNC/uv/AgU4OPKj/nV94n5dsGFbF99v7DwjT/UCBTg40MN23X2pguBjPxjrrPhuX5/bgE+rt9rf1G/PB8dPnD7os5cOPjqHYECfFy9167wzQsj8BGPQAE+PuILUPj4wghcvSNQgI+r99oVvnlhBD7iESjAx0d8AQofXxiBq3cECvBx9V67K/vNP9Bfmn/Alf1qhU/7qEagAB8f1chfbZ+bjw4fuH21/bjC9/1wI/D/ASgHJaAsZDNcAAAAAElFTkSuQmCC;" parent="MMB2D70Bj3hJrAFttmzr-19" vertex="1">
          <mxGeometry x="74" y="103.67000000000004" width="132" height="112.67" as="geometry" />
        </mxCell>
        <mxCell id="MMB2D70Bj3hJrAFttmzr-23" value="&lt;font style=&quot;font-size: 18px;&quot;&gt;&lt;b&gt;request&lt;/b&gt;&lt;/font&gt;" style="text;html=1;align=center;verticalAlign=middle;whiteSpace=wrap;rounded=0;" vertex="1" parent="TvYVOuvGwIo_3C9jy05R-13">
          <mxGeometry y="105" width="60" height="30" as="geometry" />
        </mxCell>
        <mxCell id="MMB2D70Bj3hJrAFttmzr-25" value="&lt;font style=&quot;font-size: 18px;&quot;&gt;&lt;b&gt;respond&lt;/b&gt;&lt;/font&gt;" style="text;html=1;align=center;verticalAlign=middle;whiteSpace=wrap;rounded=0;" vertex="1" parent="TvYVOuvGwIo_3C9jy05R-13">
          <mxGeometry y="180" width="60" height="30" as="geometry" />
        </mxCell>
        <mxCell id="TvYVOuvGwIo_3C9jy05R-18" value="&lt;h1&gt;&lt;u&gt;&lt;font color=&quot;#7b2828&quot; style=&quot;font-size: 25px;&quot;&gt;Optimizing the Technology Products Search System with ElasticSearch&lt;/font&gt;&lt;/u&gt;&lt;br&gt;&lt;/h1&gt;" style="text;html=1;align=center;verticalAlign=middle;whiteSpace=wrap;rounded=0;" parent="1" vertex="1">
          <mxGeometry x="-310" y="-170" width="930" height="30" as="geometry" />
        </mxCell>
        <mxCell id="MMB2D70Bj3hJrAFttmzr-21" style="edgeStyle=orthogonalEdgeStyle;rounded=0;orthogonalLoop=1;jettySize=auto;html=1;entryX=0;entryY=0.25;entryDx=0;entryDy=0;exitX=0.992;exitY=0.66;exitDx=0;exitDy=0;exitPerimeter=0;fillColor=#0050ef;strokeColor=#001DBC;strokeWidth=2;" edge="1" parent="1" source="MMB2D70Bj3hJrAFttmzr-1" target="TZkRVpZgQpIInud-tQH3-7">
          <mxGeometry relative="1" as="geometry" />
        </mxCell>
        <mxCell id="MMB2D70Bj3hJrAFttmzr-1" value="" style="rounded=1;whiteSpace=wrap;html=1;fillColor=#dae8fc;strokeColor=#6c8ebf;" vertex="1" parent="1">
          <mxGeometry x="-710" y="-60" width="430" height="610" as="geometry" />
        </mxCell>
        <mxCell id="MMB2D70Bj3hJrAFttmzr-2" value="" style="sketch=0;pointerEvents=1;shadow=0;dashed=0;html=1;strokeColor=none;fillColor=#DF8C42;labelPosition=center;verticalLabelPosition=bottom;verticalAlign=top;align=center;outlineConnect=0;shape=mxgraph.veeam2.restful_api;" vertex="1" parent="1">
          <mxGeometry x="-593" y="21.16" width="180" height="175" as="geometry" />
        </mxCell>
        <mxCell id="MMB2D70Bj3hJrAFttmzr-3" value="" style="aspect=fixed;sketch=0;html=1;dashed=0;whitespace=wrap;verticalLabelPosition=bottom;verticalAlign=top;fillColor=#2875E2;strokeColor=#ffffff;points=[[0.005,0.63,0],[0.1,0.2,0],[0.9,0.2,0],[0.5,0,0],[0.995,0.63,0],[0.72,0.99,0],[0.5,1,0],[0.28,0.99,0]];shape=mxgraph.kubernetes.icon2;prIcon=api" vertex="1" parent="1">
          <mxGeometry x="-590" y="270" width="177.08" height="170" as="geometry" />
        </mxCell>
        <mxCell id="MMB2D70Bj3hJrAFttmzr-5" style="rounded=0;orthogonalLoop=1;jettySize=auto;html=1;entryX=1;entryY=0.704;entryDx=0;entryDy=0;entryPerimeter=0;strokeColor=#001DBC;endArrow=classic;endFill=1;curved=0;fillColor=#0050ef;strokeWidth=2;" edge="1" parent="1" source="TZkRVpZgQpIInud-tQH3-7" target="MMB2D70Bj3hJrAFttmzr-1">
          <mxGeometry relative="1" as="geometry" />
        </mxCell>
        <mxCell id="MMB2D70Bj3hJrAFttmzr-15" style="edgeStyle=orthogonalEdgeStyle;rounded=0;orthogonalLoop=1;jettySize=auto;html=1;entryX=0;entryY=0.25;entryDx=0;entryDy=0;fillColor=#0050ef;strokeColor=#001DBC;strokeWidth=2;" edge="1" parent="1" source="MMB2D70Bj3hJrAFttmzr-7" target="MMB2D70Bj3hJrAFttmzr-1">
          <mxGeometry relative="1" as="geometry" />
        </mxCell>
        <mxCell id="MMB2D70Bj3hJrAFttmzr-11" style="edgeStyle=orthogonalEdgeStyle;rounded=0;orthogonalLoop=1;jettySize=auto;html=1;entryX=0;entryY=0.75;entryDx=0;entryDy=0;fillColor=#0050ef;strokeColor=#001DBC;strokeWidth=2;" edge="1" parent="1" source="MMB2D70Bj3hJrAFttmzr-8" target="MMB2D70Bj3hJrAFttmzr-1">
          <mxGeometry relative="1" as="geometry" />
        </mxCell>
        <mxCell id="MMB2D70Bj3hJrAFttmzr-8" value="Users" style="strokeColor=#dddddd;shadow=1;strokeWidth=1;rounded=1;absoluteArcSize=1;arcSize=2;labelPosition=center;verticalLabelPosition=middle;align=center;verticalAlign=bottom;spacingLeft=0;fontColor=#999999;fontSize=12;whiteSpace=wrap;spacingBottom=2;html=1;" vertex="1" parent="1">
          <mxGeometry x="-990" y="340" width="120" height="120" as="geometry" />
        </mxCell>
        <mxCell id="MMB2D70Bj3hJrAFttmzr-9" value="" style="sketch=0;dashed=0;connectable=0;html=1;fillColor=#757575;strokeColor=none;shape=mxgraph.gcp2.users;part=1;" vertex="1" parent="MMB2D70Bj3hJrAFttmzr-8">
          <mxGeometry x="0.5" width="50" height="31.5" relative="1" as="geometry">
            <mxPoint x="-25" y="19.25" as="offset" />
          </mxGeometry>
        </mxCell>
        <mxCell id="MMB2D70Bj3hJrAFttmzr-12" value="&lt;b&gt;&lt;font style=&quot;font-size: 18px;&quot;&gt;SEARCH&lt;/font&gt;&lt;/b&gt;" style="text;html=1;align=center;verticalAlign=middle;whiteSpace=wrap;rounded=0;" vertex="1" parent="1">
          <mxGeometry x="-830" y="360" width="60" height="30" as="geometry" />
        </mxCell>
        <mxCell id="MMB2D70Bj3hJrAFttmzr-13" value="&lt;font size=&quot;1&quot;&gt;&lt;b style=&quot;font-size: 20px;&quot;&gt;WEB&lt;/b&gt;&lt;/font&gt;" style="text;html=1;align=center;verticalAlign=middle;whiteSpace=wrap;rounded=0;" vertex="1" parent="1">
          <mxGeometry x="-660" y="-30" width="60" height="30" as="geometry" />
        </mxCell>
        <mxCell id="MMB2D70Bj3hJrAFttmzr-16" value="" style="group" vertex="1" connectable="0" parent="1">
          <mxGeometry x="-1000" y="45.33" width="120" height="100" as="geometry" />
        </mxCell>
        <mxCell id="MMB2D70Bj3hJrAFttmzr-7" value="" style="sketch=0;pointerEvents=1;shadow=0;dashed=0;html=1;strokeColor=none;labelPosition=center;verticalLabelPosition=bottom;verticalAlign=top;align=center;fillColor=#515151;shape=mxgraph.mscae.system_center.admin_console" vertex="1" parent="MMB2D70Bj3hJrAFttmzr-16">
          <mxGeometry width="120" height="100" as="geometry" />
        </mxCell>
        <mxCell id="MMB2D70Bj3hJrAFttmzr-14" value="Admin" style="text;html=1;align=center;verticalAlign=middle;whiteSpace=wrap;rounded=0;" vertex="1" parent="MMB2D70Bj3hJrAFttmzr-16">
          <mxGeometry x="20" y="23.840000000000003" width="60" height="30" as="geometry" />
        </mxCell>
        <mxCell id="MMB2D70Bj3hJrAFttmzr-17" value="&lt;b&gt;&lt;font style=&quot;font-size: 18px;&quot;&gt;GET, UPDATE, DELETE, POST&lt;/font&gt;&lt;/b&gt;" style="text;html=1;align=center;verticalAlign=middle;whiteSpace=wrap;rounded=0;" vertex="1" parent="1">
          <mxGeometry x="-895" y="59" width="190" height="30" as="geometry" />
        </mxCell>
        <mxCell id="MMB2D70Bj3hJrAFttmzr-18" style="edgeStyle=orthogonalEdgeStyle;rounded=0;orthogonalLoop=1;jettySize=auto;html=1;entryX=1;entryY=0.5;entryDx=0;entryDy=0;fillColor=#0050ef;strokeColor=#001DBC;strokeWidth=2;" edge="1" parent="1" source="TvYVOuvGwIo_3C9jy05R-7" target="TZkRVpZgQpIInud-tQH3-7">
          <mxGeometry relative="1" as="geometry" />
        </mxCell>
        <mxCell id="MMB2D70Bj3hJrAFttmzr-20" style="edgeStyle=orthogonalEdgeStyle;rounded=0;orthogonalLoop=1;jettySize=auto;html=1;exitX=0.995;exitY=0.31;exitDx=0;exitDy=0;exitPerimeter=0;fillColor=#0050ef;strokeColor=#001DBC;strokeWidth=2;" edge="1" parent="1" source="MMB2D70Bj3hJrAFttmzr-1">
          <mxGeometry relative="1" as="geometry">
            <mxPoint x="250" y="130" as="targetPoint" />
          </mxGeometry>
        </mxCell>
        <mxCell id="MMB2D70Bj3hJrAFttmzr-22" value="&lt;font style=&quot;font-size: 18px;&quot;&gt;&lt;b&gt;request&lt;/b&gt;&lt;/font&gt;" style="text;html=1;align=center;verticalAlign=middle;whiteSpace=wrap;rounded=0;" vertex="1" parent="1">
          <mxGeometry x="-80" y="52" width="60" height="30" as="geometry" />
        </mxCell>
        <mxCell id="MMB2D70Bj3hJrAFttmzr-24" value="&lt;font style=&quot;font-size: 18px;&quot;&gt;&lt;b&gt;respond&lt;/b&gt;&lt;/font&gt;" style="text;html=1;align=center;verticalAlign=middle;whiteSpace=wrap;rounded=0;" vertex="1" parent="1">
          <mxGeometry x="-80" y="130.67000000000002" width="60" height="30" as="geometry" />
        </mxCell>
      </root>
    </mxGraphModel>
  </diagram>
</mxfile>
